<?xml version="1.0" standalone="no"?>
<!DOCTYPE svg PUBLIC "-//W3C//DTD SVG 1.1//EN" "http://www.w3.org/Graphics/SVG/1.1/DTD/svg11.dtd" >
<svg>
<metadata>
Created by FontForge 20090914 at Wed Jan  5 18:45:33 2022
 By www-data
Copyright 2004 The Licorice Project Authors (https://github.com/googlefonts/licorice)
</metadata>
<defs>
<font id="Licorice-Regular" horiz-adv-x="0" >
  <font-face 
    font-family="Licorice"
    font-weight="400"
    font-stretch="normal"
    units-per-em="1000"
    panose-1="0 0 0 0 0 0 0 0 0 0"
    ascent="800"
    descent="-200"
    x-height="332.999"
    cap-height="709.001"
    bbox="-172.148 -452.003 1373 1042.99"
    underline-thickness="17"
    underline-position="-108"
    unicode-range="U+000D-U+FB02"
  />
<missing-glyph horiz-adv-x="501" 
d="M50 0v644h401v-644h-401zM252 374l104 208h-208zM117 102l110 220l-110 217v-437zM383 102v437l-104 -220zM148 62h205l-101 204z" />
    <glyph glyph-name="fi" unicode="fi" horiz-adv-x="423" 
d="M128 -341c-14 0 -25.834 7.33105 -35.501 21.998s-17.5 34 -23.5 58s-10.833 49.833 -14.5 77.5s-6.16699 55 -7.5 82s-2.16602 51 -2.49902 72s-0.5 36.167 -0.5 45.5c-11.333 9.33301 -17 20.666 -17 33.999c0 5.33301 1.66699 10.166 5 14.499s8 6.5 14 6.5
c1.33301 26 3.66602 52 6.99902 78l10 77c1.33301 10.667 4.83301 29.834 10.5 57.501s13 60 22 97s19.167 75 30.5 114s23.166 75.333 35.499 109s24.833 61 37.5 82s24.667 31.5 36 31.5c12.667 0 22.334 -6 29.001 -18s11.334 -25.5 14.001 -40.5s4 -27.167 4 -36.5
c0 -8.66699 -0.5 -17.334 -1.5 -26.001s-2.16699 -17.334 -3.5 -26.001c-4 -20 -8.83301 -39.833 -14.5 -59.5s-12.167 -39.167 -19.5 -58.5c-2.66699 -7.33301 -7.66699 -19.333 -15 -36s-16.333 -35.167 -27 -55.5s-21.834 -40 -33.501 -59s-23.334 -34.667 -35.001 -47
s-22.167 -18.5 -31.5 -18.5c-4.66699 -30 -9.83398 -59.5 -15.501 -88.5s-8.5 -59.167 -8.5 -90.5c6.66699 -4.66699 12.834 -9.66699 18.501 -15s10.834 -11 15.501 -17c13.333 1.33301 27.666 9 42.999 23s30.666 32 45.999 54s30.333 45.5 45 70.5l40.5 71.5l31.5 57
c4 15.333 8.33301 27.833 13 37.5s10 14.5 16 14.5c5.33301 0 10 -1.66699 14 -5s6 -7.66602 6 -12.999c0 -8 -2.33301 -20.667 -7 -38l-16.5 -59c-6.33301 -22 -12 -44.167 -17 -66.5s-7.5 -42.5 -7.5 -60.5c0 -4.66699 0.5 -12.667 1.5 -24s3.16699 -21.833 6.5 -31.5
s8.66602 -14.5 15.999 -14.5c10 0 21 7.33301 33 22s24.167 32.834 36.5 54.501s23.833 43.334 34.5 65.001l27 54.5c7.33301 14.667 12.333 22 15 22c3.33301 0 5.5 -1.16699 6.5 -3.5s1.5 -4.83301 1.5 -7.5c0 -8.66699 -3.66699 -22.5 -11 -41.5s-17 -39.667 -29 -62
s-25 -43.666 -39 -63.999s-27.667 -37.166 -41 -50.499s-24.666 -20 -33.999 -20c-15.333 0 -26.666 6.5 -33.999 19.5s-12 28 -14 45s-3 30.833 -3 41.5c0 6.66699 0.833008 19.167 2.5 37.5s3.83398 38.5 6.50098 60.5c-10.667 -22.667 -23 -46 -37 -70
s-28.667 -46.5 -44 -67.5s-30.666 -38.5 -45.999 -52.5s-29.666 -22 -42.999 -24c21.333 -29.333 36.166 -61 44.499 -95s12.5 -69 12.5 -105c0 -10 -0.5 -22.667 -1.5 -38s-3.33301 -31 -7 -47s-9.5 -29.333 -17.5 -40s-19 -16 -33 -16zM107.999 277.998
c10.667 3.33301 22.002 13.333 34.002 30s23.667 36.667 35 60s21.666 47.5 30.999 72.5s17.166 48 23.499 69s10.5 36.833 12.5 47.5c2.66699 13.333 5 27 7 41s3 27.667 3 41c0 4 -0.5 10.5 -1.5 19.5s-5.16699 13.5 -12.5 13.5c-2 0 -4.5 -0.666992 -7.5 -2
s-5.16699 -2.66602 -6.5 -3.99902c-14 -24 -27.5 -52.5 -40.5 -85.5s-24.833 -67.667 -35.5 -104s-19.667 -71.833 -27 -106.5s-12.333 -65.334 -15 -92.001zM362.001 392.998c-4.66699 0 -8.99902 1.16602 -12.999 3.49902s-6 5.83301 -6 10.5
c0 5.33301 2.33301 13.5 7 24.5s10.667 22.167 18 33.5s15.166 21 23.499 29s15.833 12 22.5 12c5.33301 0 8 -3.33301 8 -10c0 -8 -4.33301 -14.333 -13 -19c-5.33301 -3.33301 -10 -9.66602 -14 -18.999s-7 -19 -9 -29s-4 -18 -6 -24c-2 -8 -8 -12 -18 -12z
M130.002 -315.003c8.66699 0 15.001 5.00098 19.001 15.001s6.5 21.333 7.5 34s1.5 23.334 1.5 32.001c0 26.667 -1.5 53.667 -4.5 81s-9 53.833 -18 79.5s-22.833 48.5 -41.5 68.5l-18 4c0 -6 0.166992 -17.833 0.5 -35.5s1.16602 -38.334 2.49902 -62.001
s3.33301 -48 6 -73s6 -48.333 10 -70s8.83301 -39.334 14.5 -53.001s12.5 -20.5 20.5 -20.5z" />
    <glyph glyph-name="fl" unicode="fl" horiz-adv-x="449" 
d="M128 -341c-14 0 -25.832 7.33398 -35.499 22.001s-17.5 34 -23.5 58s-10.833 49.833 -14.5 77.5s-6.16699 55 -7.5 82s-2.16602 51 -2.49902 72s-0.5 36.167 -0.5 45.5c-11.333 9.33301 -17 20.666 -17 33.999c0 5.33301 1.66699 10.166 5 14.499s8 6.5 14 6.5
c1.33301 26 3.66602 52 6.99902 78l10 77c1.33301 10.667 4.83301 29.834 10.5 57.501s13 60 22 97s19.167 75 30.5 114s23.166 75.333 35.499 109s24.833 61 37.5 82s24.667 31.5 36 31.5c12.667 0 22.334 -6 29.001 -18s11.334 -25.5 14.001 -40.5s4 -27.167 4 -36.5
c0 -8.66699 -0.5 -17.334 -1.5 -26.001s-2.16699 -17.334 -3.5 -26.001c-4 -20 -8.83301 -39.833 -14.5 -59.5s-12.167 -39.167 -19.5 -58.5c-2.66699 -7.33301 -7.66699 -19.333 -15 -36s-16.333 -35.167 -27 -55.5s-21.834 -40 -33.501 -59s-23.334 -34.667 -35.001 -47
s-22.167 -18.5 -31.5 -18.5c-4.66699 -30 -9.83398 -59.5 -15.501 -88.5s-8.5 -59.167 -8.5 -90.5c6.66699 -4.66699 12.834 -9.66699 18.501 -15s10.834 -11 15.501 -17c17.333 1.33301 34.833 8.16602 52.5 20.499s34.667 27.166 51 44.499s31 34.333 44 51
s23.5 29.334 31.5 38.001c0 65.333 7.66699 131.333 23 198c7.33301 32 14.5 60 21.5 84s14.5 46.333 22.5 67s17.167 42 27.5 64l35.5 75h-3c-4 0 -7.16699 1.83301 -9.5 5.5s-3.5 7.16699 -3.5 10.5c0 8 5 14.667 15 20s18.333 8 25 8c14 0 24.667 -6.16699 32 -18.5
s12.333 -26.333 15 -42s4 -28.834 4 -39.501c0 -13.333 -1 -27 -3 -41c-4.66699 -33.333 -12.834 -69 -24.501 -107s-26.334 -74.167 -44.001 -108.5s-39.167 -63.833 -64.5 -88.5l-17.5 -14.5c-7 -5.66699 -14.167 -8.5 -21.5 -8.5c-2 -22.667 -3 -46 -3 -70
c0 -8.66699 0.5 -21.5 1.5 -38.5s3.33301 -34.667 7 -53s9.33398 -34 17.001 -47s17.834 -19.5 30.501 -19.5c14 0 27.5 7.5 40.5 22.5s25.167 33.667 36.5 56s21.666 44.666 30.999 66.999l23.5 56c6.33301 15 10.833 22.833 13.5 23.5c2 -2.66699 3 -6.66699 3 -12
c0 -11.333 -3 -26.666 -9 -45.999s-14.167 -40.166 -24.5 -62.499s-22.166 -43.666 -35.499 -63.999s-27.166 -36.833 -41.499 -49.5s-28.833 -19 -43.5 -19c-16 0 -28.833 5.33301 -38.5 16s-17.334 24.334 -23.001 41.001s-9.5 34.167 -11.5 52.5s-3.33301 34.833 -4 49.5
c-9.33301 -13.333 -21.5 -28 -36.5 -44s-30.5 -31.167 -46.5 -45.5s-31 -26.666 -45 -36.999s-24.667 -16.833 -32 -19.5c21.333 -29.333 36.166 -61 44.499 -95s12.5 -69 12.5 -105c0 -10 -0.5 -22.667 -1.5 -38s-3.33301 -31 -7 -47s-9.5 -29.333 -17.5 -40
s-19 -16 -33 -16zM108.001 278.001c10.667 3.33301 22.002 13.333 34.002 30s23.667 36.667 35 60s21.666 47.5 30.999 72.5s17.166 48 23.499 69s10.5 36.833 12.5 47.5c2.66699 13.333 5 27 7 41s3 27.667 3 41c0 4 -0.5 10.5 -1.5 19.5s-5.16699 13.5 -12.5 13.5
c-2 0 -4.5 -0.666992 -7.5 -2s-5.16699 -2.66602 -6.5 -3.99902c-14 -24 -27.5 -52.5 -40.5 -85.5s-24.833 -67.667 -35.5 -104s-19.667 -71.833 -27 -106.5s-12.333 -65.334 -15 -92.001zM322.003 263.001c15.333 4 30.167 16.667 44.5 38s27.5 47.333 39.5 78
s22.5 62.167 31.5 94.5s16 62 21 89s7.5 47.167 7.5 60.5c0 6.66699 -0.666992 15.167 -2 25.5s-6.33301 16.833 -15 19.5c-0.666992 -2.66699 -2.16699 -4.66699 -4.5 -6s-4.16602 -2.66602 -5.49902 -3.99902c-8 -8.66699 -17 -25.334 -27 -50.001
s-19.833 -53.667 -29.5 -87s-18.834 -67 -27.501 -101s-16 -65.167 -22 -93.5s-9.66699 -49.5 -11 -63.5zM130.004 -314.999c8.66699 0 15.001 5.00098 19.001 15.001s6.5 21.333 7.5 34s1.5 23.334 1.5 32.001c0 26.667 -1.5 53.667 -4.5 81s-9 53.833 -18 79.5
s-22.833 48.5 -41.5 68.5l-18 4c0 -6 0.166992 -17.833 0.5 -35.5s1.16602 -38.334 2.49902 -62.001s3.33301 -48 6 -73s6 -48.333 10 -70s8.83301 -39.334 14.5 -53.001s12.5 -20.5 20.5 -20.5z" />
    <glyph glyph-name="f_f" unicode="ff" horiz-adv-x="474" 
d="M128 -341c-14 0 -25.832 7.33691 -35.499 22.0039s-17.5 34 -23.5 58s-10.833 49.833 -14.5 77.5s-6.16699 55 -7.5 82s-2.16602 51 -2.49902 72s-0.5 36.167 -0.5 45.5c-11.333 9.33301 -17 20.666 -17 33.999c0 5.33301 1.66699 10.166 5 14.499s8 6.5 14 6.5
c1.33301 26 3.66602 52 6.99902 78l10 77c1.33301 10.667 4.83301 29.834 10.5 57.501s13 60 22 97s19.167 75 30.5 114s23.166 75.333 35.499 109s24.833 61 37.5 82s24.667 31.5 36 31.5c12.667 0 22.334 -6 29.001 -18s11.334 -25.5 14.001 -40.5s4 -27.167 4 -36.5
c0 -8.66699 -0.5 -17.334 -1.5 -26.001s-2.16699 -17.334 -3.5 -26.001c-4 -20 -8.83301 -39.833 -14.5 -59.5s-12.167 -39.167 -19.5 -58.5c-2.66699 -7.33301 -7.66699 -19.333 -15 -36s-16.333 -35.167 -27 -55.5s-21.834 -40 -33.501 -59s-23.334 -34.667 -35.001 -47
s-22.167 -18.5 -31.5 -18.5c-4.66699 -30 -9.83398 -59.5 -15.501 -88.5s-8.5 -59.167 -8.5 -90.5c6.66699 -4.66699 12.834 -9.66699 18.501 -15s10.834 -11 15.501 -17c16.667 1.33301 33 7.16602 49 17.499s31 22.666 45 36.999s26.833 28.5 38.5 42.5l29 35.5
c7.66699 9.66699 12.834 14.5 15.501 14.5c1.33301 0 2.33301 -0.833008 3 -2.5s1 -3.16699 1 -4.5c0 -10.667 -6.5 -24.5 -19.5 -41.5s-28.833 -34.333 -47.5 -52s-36.834 -33.167 -54.501 -46.5s-31.167 -21.666 -40.5 -24.999c21.333 -29.333 36.166 -61 44.499 -95
s12.5 -69 12.5 -105c0 -10 -0.5 -22.667 -1.5 -38s-3.33301 -31 -7 -47s-9.5 -29.333 -17.5 -40s-19 -16 -33 -16zM108.001 278.004c10.667 3.33301 22.002 13.333 34.002 30s23.667 36.667 35 60s21.666 47.5 30.999 72.5s17.166 48 23.499 69s10.5 36.833 12.5 47.5
c2.66699 13.333 5 27 7 41s3 27.667 3 41c0 4 -0.5 10.5 -1.5 19.5s-5.16699 13.5 -12.5 13.5c-2 0 -4.5 -0.666992 -7.5 -2s-5.16699 -2.66602 -6.5 -3.99902c-14 -24 -27.5 -52.5 -40.5 -85.5s-24.833 -67.667 -35.5 -104s-19.667 -71.833 -27 -106.5
s-12.333 -65.334 -15 -92.001zM130.003 -314.996c8.66699 0 15.001 5.00098 19.001 15.001s6.5 21.333 7.5 34s1.5 23.334 1.5 32.001c0 26.667 -1.5 53.667 -4.5 81s-9 53.833 -18 79.5s-22.833 48.5 -41.5 68.5l-18 4c0 -6 0.166992 -17.833 0.5 -35.5
s1.16602 -38.334 2.49902 -62.001s3.33301 -48 6 -73s6 -48.333 10 -70s8.83301 -39.334 14.5 -53.001s12.5 -20.5 20.5 -20.5zM365.004 -340.995c-14 0 -25.832 7.33691 -35.499 22.0039s-17.5 34 -23.5 58s-10.833 49.833 -14.5 77.5s-6.16699 55 -7.5 82
s-2.16602 51 -2.49902 72s-0.5 36.167 -0.5 45.5c-11.333 9.33301 -17 20.666 -17 33.999c0 5.33301 1.66699 10.166 5 14.499s8 6.5 14 6.5c1.33301 26 3.66602 52 6.99902 78l10 77c1.33301 10.667 4.83301 29.834 10.5 57.501s13 60 22 97s19.167 75 30.5 114
s23.166 75.333 35.499 109s24.833 61 37.5 82s24.667 31.5 36 31.5c12.667 0 22.334 -6 29.001 -18s11.334 -25.5 14.001 -40.5s4 -27.167 4 -36.5c0 -8.66699 -0.5 -17.334 -1.5 -26.001s-2.16699 -17.334 -3.5 -26.001c-4 -20 -8.83301 -39.833 -14.5 -59.5
s-12.167 -39.167 -19.5 -58.5c-2.66699 -7.33301 -7.66699 -19.333 -15 -36s-16.333 -35.167 -27 -55.5s-21.834 -40 -33.501 -59s-23.334 -34.667 -35.001 -47s-22.167 -18.5 -31.5 -18.5c-4.66699 -30 -9.83398 -59.5 -15.501 -88.5s-8.5 -59.167 -8.5 -90.5
c6.66699 -4.66699 12.834 -9.66699 18.501 -15s10.834 -11 15.501 -17c16.667 1.33301 33 7.16602 49 17.499s31 22.666 45 36.999s26.833 28.5 38.5 42.5l29 35.5c7.66699 9.66699 12.834 14.5 15.501 14.5c1.33301 0 2.33301 -0.833008 3 -2.5s1 -3.16699 1 -4.5
c0 -10.667 -6.5 -24.5 -19.5 -41.5s-28.833 -34.333 -47.5 -52s-36.834 -33.167 -54.501 -46.5s-31.167 -21.666 -40.5 -24.999c21.333 -29.333 36.166 -61 44.499 -95s12.5 -69 12.5 -105c0 -10 -0.5 -22.667 -1.5 -38s-3.33301 -31 -7 -47s-9.5 -29.333 -17.5 -40
s-19 -16 -33 -16zM345.005 278.009c10.667 3.33301 22.002 13.333 34.002 30s23.667 36.667 35 60s21.666 47.5 30.999 72.5s17.166 48 23.499 69s10.5 36.833 12.5 47.5c2.66699 13.333 5 27 7 41s3 27.667 3 41c0 4 -0.5 10.5 -1.5 19.5s-5.16699 13.5 -12.5 13.5
c-2 0 -4.5 -0.666992 -7.5 -2s-5.16699 -2.66602 -6.5 -3.99902c-14 -24 -27.5 -52.5 -40.5 -85.5s-24.833 -67.667 -35.5 -104s-19.667 -71.833 -27 -106.5s-12.333 -65.334 -15 -92.001zM367.007 -314.991c8.66699 0 15.001 5.00098 19.001 15.001s6.5 21.333 7.5 34
s1.5 23.334 1.5 32.001c0 26.667 -1.5 53.667 -4.5 81s-9 53.833 -18 79.5s-22.833 48.5 -41.5 68.5l-18 4c0 -6 0.166992 -17.833 0.5 -35.5s1.16602 -38.334 2.49902 -62.001s3.33301 -48 6 -73s6 -48.333 10 -70s8.83301 -39.334 14.5 -53.001s12.5 -20.5 20.5 -20.5z
" />
    <glyph glyph-name="f_f_i" unicode="ffi" horiz-adv-x="661" 
d="M128 -341c-14 0 -25.832 7.33691 -35.499 22.0039s-17.5 34 -23.5 58s-10.833 49.833 -14.5 77.5s-6.16699 55 -7.5 82s-2.16602 51 -2.49902 72s-0.5 36.167 -0.5 45.5c-11.333 9.33301 -17 20.666 -17 33.999c0 5.33301 1.66699 10.166 5 14.499s8 6.5 14 6.5
c1.33301 26 3.66602 52 6.99902 78l10 77c1.33301 10.667 4.83301 29.834 10.5 57.501s13 60 22 97s19.167 75 30.5 114s23.166 75.333 35.499 109s24.833 61 37.5 82s24.667 31.5 36 31.5c12.667 0 22.334 -6 29.001 -18s11.334 -25.5 14.001 -40.5s4 -27.167 4 -36.5
c0 -8.66699 -0.5 -17.334 -1.5 -26.001s-2.16699 -17.334 -3.5 -26.001c-4 -20 -8.83301 -39.833 -14.5 -59.5s-12.167 -39.167 -19.5 -58.5c-2.66699 -7.33301 -7.66699 -19.333 -15 -36s-16.333 -35.167 -27 -55.5s-21.834 -40 -33.501 -59s-23.334 -34.667 -35.001 -47
s-22.167 -18.5 -31.5 -18.5c-4.66699 -30 -9.83398 -59.5 -15.501 -88.5s-8.5 -59.167 -8.5 -90.5c6.66699 -4.66699 12.834 -9.66699 18.501 -15s10.834 -11 15.501 -17c16.667 1.33301 33 7.16602 49 17.499s31 22.666 45 36.999s26.833 28.5 38.5 42.5l29 35.5
c7.66699 9.66699 12.834 14.5 15.501 14.5c1.33301 0 2.33301 -0.833008 3 -2.5s1 -3.16699 1 -4.5c0 -10.667 -6.5 -24.5 -19.5 -41.5s-28.833 -34.333 -47.5 -52s-36.834 -33.167 -54.501 -46.5s-31.167 -21.666 -40.5 -24.999c21.333 -29.333 36.166 -61 44.499 -95
s12.5 -69 12.5 -105c0 -10 -0.5 -22.667 -1.5 -38s-3.33301 -31 -7 -47s-9.5 -29.333 -17.5 -40s-19 -16 -33 -16zM108.001 278.004c10.667 3.33301 22.002 13.333 34.002 30s23.667 36.667 35 60s21.666 47.5 30.999 72.5s17.166 48 23.499 69s10.5 36.833 12.5 47.5
c2.66699 13.333 5 27 7 41s3 27.667 3 41c0 4 -0.5 10.5 -1.5 19.5s-5.16699 13.5 -12.5 13.5c-2 0 -4.5 -0.666992 -7.5 -2s-5.16699 -2.66602 -6.5 -3.99902c-14 -24 -27.5 -52.5 -40.5 -85.5s-24.833 -67.667 -35.5 -104s-19.667 -71.833 -27 -106.5
s-12.333 -65.334 -15 -92.001zM130.003 -314.996c8.66699 0 15.001 5.00098 19.001 15.001s6.5 21.333 7.5 34s1.5 23.334 1.5 32.001c0 26.667 -1.5 53.667 -4.5 81s-9 53.833 -18 79.5s-22.833 48.5 -41.5 68.5l-18 4c0 -6 0.166992 -17.833 0.5 -35.5
s1.16602 -38.334 2.49902 -62.001s3.33301 -48 6 -73s6 -48.333 10 -70s8.83301 -39.334 14.5 -53.001s12.5 -20.5 20.5 -20.5zM365.004 -340.995c-14 0 -25.832 7.33691 -35.499 22.0039s-17.5 34 -23.5 58s-10.833 49.833 -14.5 77.5s-6.16699 55 -7.5 82
s-2.16602 51 -2.49902 72s-0.5 36.167 -0.5 45.5c-11.333 9.33301 -17 20.666 -17 33.999c0 5.33301 1.66699 10.166 5 14.499s8 6.5 14 6.5c1.33301 26 3.66602 52 6.99902 78l10 77c1.33301 10.667 4.83301 29.834 10.5 57.501s13 60 22 97s19.167 75 30.5 114
s23.166 75.333 35.499 109s24.833 61 37.5 82s24.667 31.5 36 31.5c12.667 0 22.334 -6 29.001 -18s11.334 -25.5 14.001 -40.5s4 -27.167 4 -36.5c0 -8.66699 -0.5 -17.334 -1.5 -26.001s-2.16699 -17.334 -3.5 -26.001c-4 -20 -8.83301 -39.833 -14.5 -59.5
s-12.167 -39.167 -19.5 -58.5c-2.66699 -7.33301 -7.66699 -19.333 -15 -36s-16.333 -35.167 -27 -55.5s-21.834 -40 -33.501 -59s-23.334 -34.667 -35.001 -47s-22.167 -18.5 -31.5 -18.5c-4.66699 -30 -9.83398 -59.5 -15.501 -88.5s-8.5 -59.167 -8.5 -90.5
c6.66699 -4.66699 12.834 -9.66699 18.501 -15s10.834 -11 15.501 -17c16.667 1.33301 33 7.16602 49 17.499s31 22.666 45 36.999s26.833 28.5 38.5 42.5l29 35.5c7.66699 9.66699 12.834 14.5 15.501 14.5c1.33301 0 2.33301 -0.833008 3 -2.5s1 -3.16699 1 -4.5
c0 -10.667 -6.5 -24.5 -19.5 -41.5s-28.833 -34.333 -47.5 -52s-36.834 -33.167 -54.501 -46.5s-31.167 -21.666 -40.5 -24.999c21.333 -29.333 36.166 -61 44.499 -95s12.5 -69 12.5 -105c0 -10 -0.5 -22.667 -1.5 -38s-3.33301 -31 -7 -47s-9.5 -29.333 -17.5 -40
s-19 -16 -33 -16zM345.005 278.009c10.667 3.33301 22.002 13.333 34.002 30s23.667 36.667 35 60s21.666 47.5 30.999 72.5s17.166 48 23.499 69s10.5 36.833 12.5 47.5c2.66699 13.333 5 27 7 41s3 27.667 3 41c0 4 -0.5 10.5 -1.5 19.5s-5.16699 13.5 -12.5 13.5
c-2 0 -4.5 -0.666992 -7.5 -2s-5.16699 -2.66602 -6.5 -3.99902c-14 -24 -27.5 -52.5 -40.5 -85.5s-24.833 -67.667 -35.5 -104s-19.667 -71.833 -27 -106.5s-12.333 -65.334 -15 -92.001zM367.007 -314.991c8.66699 0 15.001 5.00098 19.001 15.001s6.5 21.333 7.5 34
s1.5 23.334 1.5 32.001c0 26.667 -1.5 53.667 -4.5 81s-9 53.833 -18 79.5s-22.833 48.5 -41.5 68.5l-18 4c0 -6 0.166992 -17.833 0.5 -35.5s1.16602 -38.334 2.49902 -62.001s3.33301 -48 6 -73s6 -48.333 10 -70s8.83301 -39.334 14.5 -53.001s12.5 -20.5 20.5 -20.5z
M599.008 393.01c-4.66699 0 -8.99902 1.16602 -12.999 3.49902s-6 5.83301 -6 10.5c0 5.33301 2.33301 13.5 7 24.5s10.667 22.167 18 33.5s15.166 21 23.499 29s15.833 12 22.5 12c5.33301 0 8 -3.33301 8 -10c0 -8 -4.33301 -14.333 -13 -19
c-5.33301 -3.33301 -9.83301 -9.66602 -13.5 -18.999s-6.66699 -19 -9 -29s-4.5 -18 -6.5 -24c-2 -8 -8 -12 -18 -12zM579.009 10.0088c-15.333 0 -26.667 6.49609 -34 19.4961s-12 28 -14 45s-3 30.833 -3 41.5c0 6.66699 0.833008 19 2.5 37s4 38.167 7 60.5
s6.66699 44.166 11 65.499s9.5 39 15.5 53s12.333 21 19 21c5.33301 0 10 -1.66699 14 -5s6 -7.66602 6 -12.999c0 -8 -2.33301 -20.667 -7 -38l-16.5 -59c-6.33301 -22 -12 -44.167 -17 -66.5s-7.5 -42.5 -7.5 -60.5c0 -4.66699 0.5 -12.667 1.5 -24
s3.16699 -21.833 6.5 -31.5s8.66602 -14.5 15.999 -14.5c10 0 21 7.33301 33 22s24.167 32.834 36.5 54.501s23.833 43.334 34.5 65.001l27 54.5c7.33301 14.667 12.333 22 15 22c3.33301 0 5.5 -1.16699 6.5 -3.5s1.5 -4.83301 1.5 -7.5
c0 -8.66699 -3.66699 -22.5 -11 -41.5s-17 -39.667 -29 -62s-25 -43.666 -39 -63.999s-27.667 -37.166 -41 -50.499s-24.666 -20 -33.999 -20z" />
    <glyph glyph-name="f_f_l" unicode="ffl" horiz-adv-x="686" 
d="M128 -341c-14 0 -25.832 7.33691 -35.499 22.0039s-17.5 34 -23.5 58s-10.833 49.833 -14.5 77.5s-6.16699 55 -7.5 82s-2.16602 51 -2.49902 72s-0.5 36.167 -0.5 45.5c-11.333 9.33301 -17 20.666 -17 33.999c0 5.33301 1.66699 10.166 5 14.499s8 6.5 14 6.5
c1.33301 26 3.66602 52 6.99902 78l10 77c1.33301 10.667 4.83301 29.834 10.5 57.501s13 60 22 97s19.167 75 30.5 114s23.166 75.333 35.499 109s24.833 61 37.5 82s24.667 31.5 36 31.5c12.667 0 22.334 -6 29.001 -18s11.334 -25.5 14.001 -40.5s4 -27.167 4 -36.5
c0 -8.66699 -0.5 -17.334 -1.5 -26.001s-2.16699 -17.334 -3.5 -26.001c-4 -20 -8.83301 -39.833 -14.5 -59.5s-12.167 -39.167 -19.5 -58.5c-2.66699 -7.33301 -7.66699 -19.333 -15 -36s-16.333 -35.167 -27 -55.5s-21.834 -40 -33.501 -59s-23.334 -34.667 -35.001 -47
s-22.167 -18.5 -31.5 -18.5c-4.66699 -30 -9.83398 -59.5 -15.501 -88.5s-8.5 -59.167 -8.5 -90.5c6.66699 -4.66699 12.834 -9.66699 18.501 -15s10.834 -11 15.501 -17c16.667 1.33301 33 7.16602 49 17.499s31 22.666 45 36.999s26.833 28.5 38.5 42.5l29 35.5
c7.66699 9.66699 12.834 14.5 15.501 14.5c1.33301 0 2.33301 -0.833008 3 -2.5s1 -3.16699 1 -4.5c0 -10.667 -6.5 -24.5 -19.5 -41.5s-28.833 -34.333 -47.5 -52s-36.834 -33.167 -54.501 -46.5s-31.167 -21.666 -40.5 -24.999c21.333 -29.333 36.166 -61 44.499 -95
s12.5 -69 12.5 -105c0 -10 -0.5 -22.667 -1.5 -38s-3.33301 -31 -7 -47s-9.5 -29.333 -17.5 -40s-19 -16 -33 -16zM108.001 278.004c10.667 3.33301 22.002 13.333 34.002 30s23.667 36.667 35 60s21.666 47.5 30.999 72.5s17.166 48 23.499 69s10.5 36.833 12.5 47.5
c2.66699 13.333 5 27 7 41s3 27.667 3 41c0 4 -0.5 10.5 -1.5 19.5s-5.16699 13.5 -12.5 13.5c-2 0 -4.5 -0.666992 -7.5 -2s-5.16699 -2.66602 -6.5 -3.99902c-14 -24 -27.5 -52.5 -40.5 -85.5s-24.833 -67.667 -35.5 -104s-19.667 -71.833 -27 -106.5
s-12.333 -65.334 -15 -92.001zM130.003 -314.996c8.66699 0 15.001 5.00098 19.001 15.001s6.5 21.333 7.5 34s1.5 23.334 1.5 32.001c0 26.667 -1.5 53.667 -4.5 81s-9 53.833 -18 79.5s-22.833 48.5 -41.5 68.5l-18 4c0 -6 0.166992 -17.833 0.5 -35.5
s1.16602 -38.334 2.49902 -62.001s3.33301 -48 6 -73s6 -48.333 10 -70s8.83301 -39.334 14.5 -53.001s12.5 -20.5 20.5 -20.5zM365.004 -340.995c-14 0 -25.832 7.33691 -35.499 22.0039s-17.5 34 -23.5 58s-10.833 49.833 -14.5 77.5s-6.16699 55 -7.5 82
s-2.16602 51 -2.49902 72s-0.5 36.167 -0.5 45.5c-11.333 9.33301 -17 20.666 -17 33.999c0 5.33301 1.66699 10.166 5 14.499s8 6.5 14 6.5c1.33301 26 3.66602 52 6.99902 78l10 77c1.33301 10.667 4.83301 29.834 10.5 57.501s13 60 22 97s19.167 75 30.5 114
s23.166 75.333 35.499 109s24.833 61 37.5 82s24.667 31.5 36 31.5c12.667 0 22.334 -6 29.001 -18s11.334 -25.5 14.001 -40.5s4 -27.167 4 -36.5c0 -8.66699 -0.5 -17.334 -1.5 -26.001s-2.16699 -17.334 -3.5 -26.001c-4 -20 -8.83301 -39.833 -14.5 -59.5
s-12.167 -39.167 -19.5 -58.5c-2.66699 -7.33301 -7.66699 -19.333 -15 -36s-16.333 -35.167 -27 -55.5s-21.834 -40 -33.501 -59s-23.334 -34.667 -35.001 -47s-22.167 -18.5 -31.5 -18.5c-4.66699 -30 -9.83398 -59.5 -15.501 -88.5s-8.5 -59.167 -8.5 -90.5
c6.66699 -4.66699 12.834 -9.66699 18.501 -15s10.834 -11 15.501 -17c16.667 1.33301 33 7.16602 49 17.499s31 22.666 45 36.999s26.833 28.5 38.5 42.5l29 35.5c7.66699 9.66699 12.834 14.5 15.501 14.5c1.33301 0 2.33301 -0.833008 3 -2.5s1 -3.16699 1 -4.5
c0 -10.667 -6.5 -24.5 -19.5 -41.5s-28.833 -34.333 -47.5 -52s-36.834 -33.167 -54.501 -46.5s-31.167 -21.666 -40.5 -24.999c21.333 -29.333 36.166 -61 44.499 -95s12.5 -69 12.5 -105c0 -10 -0.5 -22.667 -1.5 -38s-3.33301 -31 -7 -47s-9.5 -29.333 -17.5 -40
s-19 -16 -33 -16zM345.005 278.009c10.667 3.33301 22.002 13.333 34.002 30s23.667 36.667 35 60s21.666 47.5 30.999 72.5s17.166 48 23.499 69s10.5 36.833 12.5 47.5c2.66699 13.333 5 27 7 41s3 27.667 3 41c0 4 -0.5 10.5 -1.5 19.5s-5.16699 13.5 -12.5 13.5
c-2 0 -4.5 -0.666992 -7.5 -2s-5.16699 -2.66602 -6.5 -3.99902c-14 -24 -27.5 -52.5 -40.5 -85.5s-24.833 -67.667 -35.5 -104s-19.667 -71.833 -27 -106.5s-12.333 -65.334 -15 -92.001zM367.007 -314.991c8.66699 0 15.001 5.00098 19.001 15.001s6.5 21.333 7.5 34
s1.5 23.334 1.5 32.001c0 26.667 -1.5 53.667 -4.5 81s-9 53.833 -18 79.5s-22.833 48.5 -41.5 68.5l-18 4c0 -6 0.166992 -17.833 0.5 -35.5s1.16602 -38.334 2.49902 -62.001s3.33301 -48 6 -73s6 -48.333 10 -70s8.83301 -39.334 14.5 -53.001s12.5 -20.5 20.5 -20.5z
M604.008 -12.9902c-18 0 -32.333 7.16602 -43 21.499s-18.334 32 -23.001 53s-7.66699 41.833 -9 62.5s-2 37 -2 49c0 67.333 7.66699 135.333 23 204c7.33301 32 14.5 60 21.5 84s14.5 46.333 22.5 67s17.167 42 27.5 64l35.5 75h-3c-4 0 -7.16699 1.83301 -9.5 5.5
s-3.5 7.16699 -3.5 10.5c0 8 5 14.667 15 20s18.333 8 25 8c14 0 24.667 -6.16699 32 -18.5s12.333 -26.333 15 -42s4 -28.834 4 -39.501c0 -13.333 -1 -27 -3 -41c-4.66699 -33.333 -12.834 -69 -24.501 -107s-26.334 -74.167 -44.001 -108.5s-39.167 -63.833 -64.5 -88.5
l-17.5 -14.5c-7 -5.66699 -14.167 -8.5 -21.5 -8.5c-2 -22.667 -3 -46 -3 -70c0 -8.66699 0.5 -21.5 1.5 -38.5s3.33301 -34.667 7 -53s9.33398 -34 17.001 -47s17.834 -19.5 30.501 -19.5c14 0 27.5 7.5 40.5 22.5s25.167 33.667 36.5 56s21.666 44.666 30.999 66.999
l23.5 56c6.33301 15 10.833 22.833 13.5 23.5c2 -2.66699 3 -6.66699 3 -12c0 -11.333 -3 -26.666 -9 -45.999s-14.167 -40.166 -24.5 -62.499s-22.166 -43.666 -35.499 -63.999s-27.166 -36.833 -41.499 -49.5s-28.833 -19 -43.5 -19zM559.008 263.009
c15.333 4 30.167 16.667 44.5 38s27.5 47.333 39.5 78s22.5 62.167 31.5 94.5s16 62 21 89s7.5 47.167 7.5 60.5c0 6.66699 -0.666992 15.167 -2 25.5s-6.33301 16.833 -15 19.5c-0.666992 -2.66699 -2.16699 -4.66699 -4.5 -6s-4.16602 -2.66602 -5.49902 -3.99902
c-8 -8.66699 -17 -25.334 -27 -50.001s-19.833 -53.667 -29.5 -87s-18.834 -67 -27.501 -101s-16 -65.167 -22 -93.5s-9.66699 -49.5 -11 -63.5z" />
    <glyph glyph-name=".notdef" horiz-adv-x="501" 
d="M50 0v644h401v-644h-401zM252 374l104 208h-208zM117 102l110 220l-110 217v-437zM383 102v437l-104 -220zM148 62h205l-101 204z" />
    <glyph glyph-name="CR" unicode="&#xd;" horiz-adv-x="600" 
 />
    <glyph glyph-name="space" unicode=" " horiz-adv-x="241" 
 />
    <glyph glyph-name="exclam" unicode="!" horiz-adv-x="279" 
d="M164 144c-3.33301 0 -6.33105 2 -8.99805 6c2.66699 14 6 34 10 60l14 88c5.33301 32.667 11.166 66 17.499 100s13 66.5 20 97.5s14 57.833 21 80.5s13.833 38.334 20.5 47.001c4.66699 5.33301 11 8 19 8c5.33301 0 10.833 -1 16.5 -3s8.5 -6.33301 8.5 -13l-3.5 -10.5
l-8 -24.5l-8 -25.5c-2.33301 -7.66699 -3.83301 -12.5 -4.5 -14.5c-14 -43.333 -27.167 -86.833 -39.5 -130.5s-23.5 -87.834 -33.5 -132.501c-4.66699 -20.667 -8.83398 -41.667 -12.501 -63s-8.16699 -42 -13.5 -62c-0.666992 -2.66699 -2.66699 -4.66699 -6 -6
s-6.33301 -2 -9 -2zM149.002 -26c-5.33301 0 -10.666 1.83398 -15.999 5.50098s-8 8.5 -8 14.5c0 6.66699 2.83301 17.167 8.5 31.5s12.834 27.5 21.501 39.5s16.667 18 24 18c3.33301 0 5.83301 -1.5 7.5 -4.5s2.5 -6.16699 2.5 -9.5l-3.5 -11l-8.5 -25.5
c-3.33301 -9.66699 -6.33301 -18.834 -9 -27.501s-4.33398 -14.667 -5.00098 -18c-2.66699 -8.66699 -7.33398 -13 -14.001 -13z" />
    <glyph glyph-name="quotedbl" unicode="&#x22;" horiz-adv-x="277" 
d="M169 438c-4 0 -6 1.66797 -6 5.00098c0 4.66699 3 11.167 9 19.5l18.5 26.5c6.33301 9.33301 10.5 16.666 12.5 21.999c5.33301 14 8.5 27.667 9.5 41s1.5 26.333 1.5 39v35c0 5.33301 1.66699 9.5 5 12.5s7.33301 4.5 12 4.5s9 -1.5 13 -4.5s6 -7.16699 6 -12.5
c0 -32 -5.5 -65 -16.5 -99s-29.167 -62 -54.5 -84c-1.33301 -0.666992 -2.83301 -1.66699 -4.5 -3s-3.5 -2 -5.5 -2zM70 438.001c-4 0 -5.99902 1.66699 -5.99902 5c0 4 2.83301 10.167 8.5 18.5l18 26.5c6.33301 9.33301 10.5 17 12.5 23c7.33301 20 11.166 39 11.499 57
s0.5 37.333 0.5 58c0 5.33301 1.66699 9.5 5 12.5s7.33301 4.5 12 4.5s9 -1.5 13 -4.5s6 -7.16699 6 -12.5c0 -31.333 -5.5 -64.333 -16.5 -99s-29.167 -62.667 -54.5 -84c-1.33301 -0.666992 -2.83301 -1.66699 -4.5 -3s-3.5 -2 -5.5 -2z" />
    <glyph glyph-name="numbersign" unicode="#" horiz-adv-x="884" 
d="M239 24c-1.33301 0 -3.67383 0.504883 -7.00684 1.50488s-5 2.5 -5 4.5c0 3.33301 0.333008 6 1 8c2.66699 13.333 6.66699 26.666 12 39.999s9.66602 26.333 12.999 39c9.33301 32 17.333 64.5 24 97.5s12 65.833 16 98.5c-43.333 -1.33301 -86.833 -3.5 -130.5 -6.5
s-87.167 -4.5 -130.5 -4.5c-4.66699 0 -7.83398 1.83301 -9.50098 5.5s-2.5 7.5 -2.5 11.5c0 4.66699 1 9 3 13s5.33301 6.33301 10 7c9.33301 2 25.833 3.66699 49.5 5s49.667 2.16602 78 2.49902s55 0.666016 80 0.999023s43.833 0.5 56.5 0.5c2 19.333 3.5 39 4.5 59
s1.16699 40 0.5 60v46c-46 -1.33301 -91.833 -2.5 -137.5 -3.5s-91.167 -1.5 -136.5 -1.5c-3.33301 0 -5.83301 1.5 -7.5 4.5s-2.5 5.83301 -2.5 8.5c0 4.66699 1.5 9.66699 4.5 15s7.16699 8 12.5 8h132.5c44.333 0 88.5 0.333008 132.5 1
c-0.666992 15.333 -2.66699 32.666 -6 51.999s-6.33301 38.333 -9 57s-4 33.667 -4 45c0 6 2.66699 10.5 8 13.5s10.333 4.5 15 4.5c8 0 12.333 -3 13 -9c4.66699 -25.333 7.16699 -52.166 7.5 -80.499s1.5 -55.5 3.5 -81.5l179 2c0.666992 27.333 1.16699 54.5 1.5 81.5
s0.5 53.833 0.5 80.5c0 4.66699 2 8 6 10s7.66699 3 11 3s6.83301 -1 10.5 -3s5.5 -5 5.5 -9c0 -26.667 -0.333008 -53.667 -1 -81s-1.66699 -54.666 -3 -81.999c43.333 0.666992 86.5 1.16699 129.5 1.5s85.833 0.5 128.5 0.5c8 0 12 -4 12 -12c0 -8.66699 -4 -13 -12 -13
c-42.667 0 -85.667 -0.333008 -129 -1s-86.666 -1.66699 -129.999 -3l-2 -83c-0.666992 -28 -1 -55.667 -1 -83v-7c32 0 68.5 -0.5 109.5 -1.5s81.667 -3.16699 122 -6.5s75.5 -9 105.5 -17c6.66699 -1.33301 10 -5.33301 10 -12c0 -8 -4.66699 -12 -14 -12
c-17.333 0 -35.5 1.66699 -54.5 5s-37.167 5.66602 -54.5 6.99902c-37.333 3.33301 -74.666 5.5 -111.999 6.5s-74.666 1.5 -111.999 1.5c0.666992 -26.667 1.83398 -53.5 3.50098 -80.5s3.83398 -54.167 6.50098 -81.5c1.33301 -12.667 3.83301 -26.334 7.5 -41.001
s5.5 -28.334 5.5 -41.001c0 -4 -0.666992 -7.5 -2 -10.5s-4.66602 -4.5 -9.99902 -4.5c-6.66699 0 -10.667 3.33301 -12 10c-11.333 37.333 -18.166 78.5 -20.499 123.5s-4.16602 86.833 -5.49902 125.5c-30 -0.666992 -60 -1.16699 -90 -1.5s-60.333 -1.16602 -91 -2.49902
c-0.666992 -8.66699 -3.16699 -24.167 -7.5 -46.5s-9.66602 -47.333 -15.999 -75s-13.333 -54.334 -21 -80.001s-15.167 -47 -22.5 -64s-14 -25.5 -20 -25.5zM329.992 349.005h176v50v60.5c0 20.333 0.333008 40.5 1 60.5l-177 -6c0.666992 -16 1.16699 -32 1.5 -48
s0.5 -31.667 0.5 -47v-35.5c0 -11.667 -0.666992 -23.167 -2 -34.5z" />
    <glyph glyph-name="dollar" unicode="$" horiz-adv-x="446" 
d="M165 -89c-8 0 -12.0029 4.66504 -12.0029 13.998c0 15.333 1.66699 32.833 5 52.5s7 39.334 11 59.001s7 37.5 9 53.5c-4.66699 -1.33301 -9.83398 -2.66602 -15.501 -3.99902s-11.167 -2 -16.5 -2c-17.333 0 -30.333 6 -39 18s-13 26 -13 42
c0 5.33301 1.16699 13.166 3.5 23.499s6.83301 15.5 13.5 15.5c7.33301 -2 11 -6.33301 11 -13c0 -5.33301 -1.33301 -10.833 -4 -16.5s-4 -11.5 -4 -17.5c0 -7.33301 2.5 -12.5 7.5 -15.5s10.833 -4.5 17.5 -4.5c7.33301 0 15 1.16699 23 3.5s15.333 4.83301 22 7.5
c9.33301 63.333 19.333 126.333 30 189c-15.333 -4.66699 -31.166 -8.83398 -47.499 -12.501s-32.833 -5.5 -49.5 -5.5c-25.333 0 -45.166 6.16699 -59.499 18.5s-21.5 31.833 -21.5 58.5c0 27.333 8 55.166 24 83.499s36.833 55.166 62.5 80.499s52.834 46.833 81.501 64.5
s55.334 29.167 80.001 34.5c2 7.33301 4.33301 18.666 7 33.999s6.33398 29.333 11.001 42s11.334 19 20.001 19c2.66699 0 6.66699 -0.833008 12 -2.5s8 -4.16699 8 -7.5c0 -1.33301 -1.33301 -8.16602 -4 -20.499s-5.5 -24.666 -8.5 -36.999
s-5.16699 -20.166 -6.5 -23.499c27.333 -0.666992 49.5 -8.33398 66.5 -23.001s25.5 -36.334 25.5 -65.001c0 -3.33301 -0.666992 -10.333 -2 -21s-5 -16 -11 -16c-8 0 -12 3.33301 -12 10c0 2.66699 0.166992 5.33398 0.5 8.00098s0.5 5.33398 0.5 8.00098
c0 22.667 -7.5 39.667 -22.5 51s-33.167 16.666 -54.5 15.999l-31 -123.5l-29 -124.5l46 17c16 6 31.667 9 47 9c29.333 0 44 -15.333 44 -46c0 -22.667 -6 -46.167 -18 -70.5s-27.667 -47.666 -47 -69.999s-39.833 -42.333 -61.5 -60s-42.167 -31.167 -61.5 -40.5
c-4.66699 -27.333 -8.33398 -57.666 -11.001 -90.999s-7.33398 -62.666 -14.001 -87.999c-2.66699 -7.33301 -7 -11 -13 -11zM127.997 329.998c15.333 0 30.833 2.16797 46.5 6.50098s30.834 8.83301 45.501 13.5c7.33301 42.667 15.666 85.167 24.999 127.5
s19.333 84.166 30 125.499c-22 -6.66699 -44.5 -17.667 -67.5 -33s-44.333 -33.5 -64 -54.5s-35.5 -43.5 -47.5 -67.5s-18 -48 -18 -72c0 -16.667 4.33301 -28.5 13 -35.5s21 -10.5 37 -10.5zM209.997 139.999c13.333 8 28.166 19.333 44.499 34s32.333 31.334 48 50.001
s28.5 37.667 38.5 57s15 37 15 53c0 7.33301 -2.16699 12.333 -6.5 15s-9.5 4 -15.5 4c-14.667 0 -29.667 -3.33301 -45 -10s-29.666 -12.334 -42.999 -17.001c-12.667 -62 -24.667 -124 -36 -186z" />
    <glyph glyph-name="percent" unicode="%" horiz-adv-x="562" 
d="M79 -17c-8 0 -12.0049 4.33105 -12.0049 12.998c0 32 8.33301 66.5 25 103.5s39 74.833 67 113.5s59.167 76.834 93.5 114.501s69.333 73.667 105 108s69.834 65.5 102.501 93.5l84 71c-23.333 3.33301 -46.5 8.83301 -69.5 16.5s-45.833 14.834 -68.5 21.501
s-46.334 10 -71.001 10c-26 0 -51.667 -7.66699 -77 -23s-46.166 -35 -62.499 -59s-24.5 -49.667 -24.5 -77c0 -20.667 7.83301 -34.167 23.5 -40.5s31.834 -9.5 48.501 -9.5c20 0 38.167 5.83301 54.5 17.5s29.333 26.5 39 44.5s14.5 36.333 14.5 55
c0 12 -4.16699 21 -12.5 27s-18.166 10.333 -29.499 13l-29.5 7c-8.33301 2 -12.5 5 -12.5 9s1.5 7.66699 4.5 11s6.5 5 10.5 5c12.667 0 26.834 -2.83301 42.501 -8.5s29.5 -13.667 41.5 -24s18 -23.166 18 -38.499c0 -24 -7.16699 -46.833 -21.5 -68.5
s-32.666 -39.5 -54.999 -53.5s-45.5 -21 -69.5 -21c-27.333 0 -50 6.66699 -68 20s-27 34.333 -27 63c0 22 5.83301 44.167 17.5 66.5s27.167 42.833 46.5 61.5s40.166 33.667 62.499 45s44.5 17 66.5 17c28.667 0 55.667 -5.16699 81 -15.5l76.5 -31.5
c25.667 -10.667 52.167 -16.334 79.5 -17.001c6.66699 4.66699 13.834 9 21.501 13s15.5 6 23.5 6c4.66699 0 8.83398 -1 12.501 -3s5.5 -5.66699 5.5 -11c0 -4.66699 -9.16699 -14.834 -27.5 -30.501l-73 -60l-100.5 -83.5c-36.667 -31.333 -74 -65.166 -112 -101.499
s-73.333 -74.333 -106 -114s-60.334 -80 -83.001 -121s-37 -81.5 -43 -121.5c-1.33301 -8.66699 -5.33301 -13 -12 -13zM329.995 -1.00195c-16.667 0 -32.8359 2.66699 -48.5029 8s-28.667 14 -39 26s-15.5 27.667 -15.5 47c0 14 4.33301 29 13 45
s19.834 31.167 33.501 45.5s28.167 26 43.5 35s29.666 13.5 42.999 13.5c2.66699 0 4.83398 -1.66699 6.50098 -5s2.5 -5.66602 2.5 -6.99902c0 -2.66699 -5.33301 -7.33398 -16 -14.001s-23 -15.167 -37 -25.5s-26.333 -22.833 -37 -37.5s-16 -31.667 -16 -51
s6.83301 -33.333 20.5 -42s29.167 -13 46.5 -13c18.667 0 36.667 4.33301 54 13s31.833 20.667 43.5 36s17.5 33 17.5 53c0 15.333 -3.16699 26.166 -9.5 32.499s-13.666 10.333 -21.999 12s-15.666 3.33398 -21.999 5.00098s-9.5 5.5 -9.5 11.5c0 8.66699 4.33301 13 13 13
c22.667 0 42.167 -5.66699 58.5 -17s24.5 -29.333 24.5 -54c0 -25.333 -7.5 -47.833 -22.5 -67.5s-33.833 -35 -56.5 -46s-45.667 -16.5 -69 -16.5z" />
    <glyph glyph-name="ampersand" unicode="&#x26;" horiz-adv-x="570" 
d="M174 -99c-32.667 0 -60.832 9.16699 -84.499 27.5s-42.167 41.833 -55.5 70.5s-20 57.667 -20 87c0 44.667 9.83301 87 29.5 127s44.667 77.5 75 112.5s60.833 66.5 91.5 94.5v11c0 18.667 2.5 41 7.5 67s12.5 53 22.5 81s22.333 54.167 37 78.5s31.667 44.166 51 59.499
s41 23 65 23c22 0 39.667 -6.83301 53 -20.5s20 -31.5 20 -53.5c0 -23.333 -8.16699 -47 -24.5 -71s-36.833 -47.667 -61.5 -71s-49.334 -45.166 -74.001 -65.499s-45 -38.5 -61 -54.5c3.33301 -18.667 6.33301 -37.5 9 -56.5s6.33398 -38.167 11.001 -57.5
c10.667 17.333 25.167 35.166 43.5 53.499s38.5 33.666 60.5 45.999s43.667 18.5 65 18.5c22.667 0 41.667 -6.16699 57 -18.5s26.833 -28 34.5 -47s11.5 -38.833 11.5 -59.5c0 -20 -3.83301 -42.167 -11.5 -66.5s-17.667 -48.666 -30 -72.999s-25.5 -47.333 -39.5 -69
s-27.333 -39.834 -40 -54.501c3.33301 -3.33301 9.16602 -8.66602 17.499 -15.999l26.5 -24c9.33301 -8.66699 17.333 -16.667 24 -24s10 -12.666 10 -15.999c0 -1.33301 -0.5 -3 -1.5 -5s-2.83301 -3 -5.5 -3c-2 0 -6.83301 3.16699 -14.5 9.5l-26.5 23l-27.5 25
c-8.33301 7.66699 -13.833 12.5 -16.5 14.5c-30.667 -32.667 -65 -58 -103 -76s-79.667 -27 -125 -27zM246.002 452c12.667 11.333 29.665 25.334 50.998 42.001s42.833 34.667 64.5 54s40 39 55 59s22.5 38.333 22.5 55c0 12 -4.5 22.333 -13.5 31s-19.167 13 -30.5 13
c-15.333 0 -30.166 -6.66699 -44.499 -20s-27.666 -30.5 -39.999 -51.5s-23 -43.333 -32 -67s-16.333 -45.834 -22 -66.501s-9.16699 -37 -10.5 -49zM174 -68.999c40 0 77.5 8.33105 112.5 24.998s66.167 39.334 93.5 68.001c-30 28 -55.833 58 -77.5 90
s-39.167 67.333 -52.5 106c-6.66699 -14.667 -11 -28.334 -13 -41.001s-3 -26.667 -3 -42c0 -3.33301 -0.5 -7.66602 -1.5 -12.999s-4.16699 -8.33301 -9.5 -9c-4 1.33301 -6.5 4.5 -7.5 9.5s-1.5 9.5 -1.5 13.5c0 19.333 2.33301 38.166 7 56.499
s11.334 35.833 20.001 52.5c-6 20.667 -11.333 41.5 -16 62.5s-8.33398 41.833 -11.001 62.5c-23.333 -24 -47.333 -52 -72 -84s-45.5 -65.667 -62.5 -101s-25.5 -70.666 -25.5 -105.999c0 -22.667 4.66699 -45.667 14 -69s23 -42.666 41 -57.999s39.667 -23 65 -23z
M395 40.999c15.333 18 31.001 40.1689 47.001 66.502s29.333 53.666 40 81.999s16 54.166 16 77.499c0 16 -2.83301 32.167 -8.5 48.5s-14.334 29.833 -26.001 40.5s-26.834 16 -45.501 16c-17.333 0 -35.5 -6.16699 -54.5 -18.5s-36.667 -27 -53 -44
s-29.166 -32.5 -38.499 -46.5c11.333 -42.667 27 -82.5 47 -119.5s45.333 -71.167 76 -102.5z" />
    <glyph glyph-name="quotesingle" unicode="'" horiz-adv-x="185" 
d="M70 438c-4 0 -5.99902 1.66699 -5.99902 5c0 4 2.83301 10.167 8.5 18.5l18 26.5c6.33301 9.33301 10.5 17 12.5 23c7.33301 20 11.166 39 11.499 57s0.5 37.333 0.5 58c0 5.33301 1.66699 9.5 5 12.5s7.33301 4.5 12 4.5s9 -1.5 13 -4.5s6 -7.16699 6 -12.5
c0 -31.333 -5.5 -64.333 -16.5 -99s-29.167 -62.667 -54.5 -84c-1.33301 -0.666992 -2.83301 -1.66699 -4.5 -3s-3.5 -2 -5.5 -2z" />
    <glyph glyph-name="parenleft" unicode="(" horiz-adv-x="329" 
d="M266 -43c-6.66699 0 -12.668 3.33691 -18.001 10.0039c-29.333 36 -50.5 76 -63.5 120s-19.5 89 -19.5 135c0 22.667 1.33301 45.334 4 68.001s7 44.667 13 66c3.33301 13.333 9.66602 31.166 18.999 53.499s20.333 46.166 33 71.499s26.167 50 40.5 74
s28.833 44.833 43.5 62.5s28.334 29.834 41.001 36.501c4 1.33301 7 2 9 2c6 0 9 -2.66699 9 -8c0 -2 -0.666992 -4.33301 -2 -7s-2.66602 -4.66699 -3.99902 -6c-22 -26 -41 -49.833 -57 -71.5s-29.833 -43.334 -41.5 -65.001s-22.167 -45.167 -31.5 -70.5
s-18.666 -54.666 -27.999 -87.999c-4.66699 -16 -7.83398 -32.333 -9.50098 -49s-2.5 -33.334 -2.5 -50.001c0 -28.667 2.33301 -57 7 -85s11.667 -55.667 21 -83c1.33301 -4.66699 5 -12.334 11 -23.001l19.5 -33.5l18 -30.5c5 -8.66699 7.5 -13.334 7.5 -14.001
c0 -4.66699 -2 -8.33398 -6 -11.001s-8.33301 -4 -13 -4z" />
    <glyph glyph-name="parenright" unicode=")" horiz-adv-x="413" 
d="M53 -40c-7.33301 0 -11 3.33105 -11 9.99805c0 4 1.66699 7.66699 5 11c22 26 41 49.833 57 71.5s29.833 43.334 41.5 65.001s22.334 45.167 32.001 70.5s19.167 54.666 28.5 87.999c4.66699 16 7.83398 32.167 9.50098 48.5s2.5 32.833 2.5 49.5
c0 58 -9.66699 114.333 -29 169c-2 5.33301 -6 13.333 -12 24l-19 33.5l-17.5 30l-7.5 12.5c0 5.33301 2.5 9.33301 7.5 12s9.5 4 13.5 4c7.33301 0 13.666 -3.33301 18.999 -10c29.333 -35.333 50 -76.5 62 -123.5s18 -93.167 18 -138.5
c0 -21.333 -1.16699 -42.666 -3.5 -63.999s-6.5 -42.333 -12.5 -63c-2.66699 -9.33301 -9 -25.5 -19 -48.5s-22 -48.833 -36 -77.5s-28.833 -56.167 -44.5 -82.5s-30.834 -48.166 -45.501 -65.499s-27.667 -26 -39 -26z" />
    <glyph glyph-name="asterisk" unicode="*" horiz-adv-x="559" 
d="M254 317c-8 0 -11.999 4.33105 -11.999 12.998l3 113c-2.66699 -2 -9 -6.33301 -19 -13l-33 -22c-12 -8 -22.667 -14.833 -32 -20.5s-14.666 -8.5 -15.999 -8.5c-2.66699 0 -5.5 0.833008 -8.5 2.5s-4.5 3.83398 -4.5 6.50098c0 3.33301 4.66699 9.16602 14 17.499
s20.333 17.333 33 27l35.5 27l21.5 16.5c-6 0.666992 -12 1 -18 1h-18c-16 0 -31.5 -1.33301 -46.5 -4s-30.167 -5 -45.5 -7h-5c-7.33301 0 -11 4.33301 -11 13c0 6.66699 6.33301 11.5 19 14.5s27.5 5.16699 44.5 6.5s32.5 2 46.5 2c7.33301 0 13.833 -0.166992 19.5 -0.5
s9.83398 -0.5 12.501 -0.5c-1.33301 2 -4.33301 7 -9 15l-15.5 27l-15 26.5l-6.5 11.5c0 3.33301 1.5 6.33301 4.5 9s6.16699 4 9.5 4c4 0 9.83301 -5.33301 17.5 -16l23.5 -34l16 -24c0.666992 8 1.16699 16 1.5 24s0.5 16 0.5 24c0 11.333 -0.166992 22.333 -0.5 33
s-0.5 21.334 -0.5 32.001c0 8 4 12 12 12c8.66699 0 13 -4 13 -12c0 -12.667 0.166992 -25.5 0.5 -38.5s0.5 -26.167 0.5 -39.5v-19.5c0 -6.33301 -0.333008 -12.833 -1 -19.5c2.66699 3.33301 8.16699 9.5 16.5 18.5l27 29.5c9.66699 10.667 18.5 19.834 26.5 27.501
s13 11.5 15 11.5c8 0 12 -4.33301 12 -13c0 -2 -3.5 -7.33301 -10.5 -16l-25 -30l-26.5 -31c-8 -9.33301 -13.333 -15.333 -16 -18c20 -2.66699 40.167 -5.5 60.5 -8.5s39.833 -7.16699 58.5 -12.5c7.33301 -2 11 -6.33301 11 -13c0 -2 -0.833008 -4.5 -2.5 -7.5
s-4.16699 -4.5 -7.5 -4.5c-16.667 0 -36.834 1.83301 -60.501 5.5l-61.5 9.5l16 -20l26 -33l24.5 -31c7 -8.66699 10.5 -13.667 10.5 -15c0 -3.33301 -1.33301 -6.5 -4 -9.5s-5.66699 -4.5 -9 -4.5c-2.66699 0 -8 4.33301 -16 13s-17 19 -27 31l-27.5 33.5l-17.5 21.5
c-0.666992 -5.33301 -1.83398 -11 -3.50098 -17s-2.83398 -11.667 -3.50098 -17c-2 -14 -2.83301 -28.333 -2.5 -43s-0.166992 -29 -1.5 -43c0 -8.66699 -4.33301 -13 -13 -13z" />
    <glyph glyph-name="plus" unicode="+" horiz-adv-x="513" 
d="M275 67c-10 0 -15 8.99902 -15 26.999c0 17.333 3.83301 39.5 11.5 66.5s15.834 53.5 24.501 79.5l-54 -9c-14.667 -2.66699 -29 -6 -43 -10s-27.667 -10 -41 -18c-2 -0.666992 -4 -1.5 -6 -2.5s-4 -1.5 -6 -1.5c-5.33301 0 -10.5 1.83301 -15.5 5.5s-7.5 8.5 -7.5 14.5
c0 6.66699 5.83301 12.834 17.5 18.501s26.834 10.667 45.501 15s38.667 8 60 11s42 5.5 62 7.5l14.5 36l9.5 23c9.33301 19.333 19.833 38.5 31.5 57.5s24.5 36.833 38.5 53.5l3 3c1.33301 1.33301 2.66602 2 3.99902 2c4.66699 0 5 -4.83301 1 -14.5
s-8.83301 -19.834 -14.5 -30.501s-9.5 -17.667 -11.5 -21c-16.667 -34.667 -31.334 -70 -44.001 -106c10.667 0.666992 19.834 1.16699 27.501 1.5s13.5 0.5 17.5 0.5c21.333 0 43.333 -1 66 -3s44.334 -5.66699 65.001 -11c1.33301 0 3 -0.5 5 -1.5s3 -2.16699 3 -3.5
c0 -2.66699 -2.83301 -4.5 -8.5 -5.5s-12.5 -1.5 -20.5 -1.5s-16 0.333008 -24 1s-13.667 1 -17 1c-20.667 0 -41.334 -0.666992 -62.001 -2s-41.667 -3.33301 -63 -6l-9.5 -31.5l-9.5 -31.5c-4 -14.667 -7.33301 -29.167 -10 -43.5s-3.33398 -29.166 -2.00098 -44.499v-3
c0 -5.33301 -2.33301 -10.5 -7 -15.5s-10 -7.5 -16 -7.5z" />
    <glyph glyph-name="comma" unicode="," horiz-adv-x="185" 
d="M32 -133c-4 0 -6 1.99902 -6 5.99902c0 3.33301 3.66699 9 11 17l23 24.5c8 8.33301 13.333 14.833 16 19.5c9.33301 16.667 16.333 34 21 52s7.66699 36.333 9 55c1.33301 12 7 18 17 18c13.333 0 20 -6.66699 20 -20c0 -11.333 -3.83301 -26.5 -11.5 -45.5
s-17.5 -38.167 -29.5 -57.5s-24.333 -35.666 -37 -48.999s-23.667 -20 -33 -20z" />
    <glyph glyph-name="hyphen" unicode="-" horiz-adv-x="397" 
d="M134 199c-4.66699 0 -8.83203 2.16797 -12.499 6.50098s-5.5 8.83301 -5.5 13.5c0 8 6 15.167 18 21.5s27.333 11.666 46 15.999s37.834 8 57.501 11s37.5 5.16699 53.5 6.5s27.333 2 34 2c17.333 0 35 -1 53 -3s35.333 -5.66699 52 -11
c1.33301 -0.666992 2.83301 -1.33398 4.5 -2.00098s2.5 -1.66699 2.5 -3c0 -2.66699 -2.33301 -4.5 -7 -5.5s-10.334 -1.5 -17.001 -1.5s-13.334 0.333008 -20.001 1s-11 1 -13 1c-28 0 -56.5 -2 -85.5 -6s-57.167 -9 -84.5 -15c-12 -2.66699 -23.667 -6.16699 -35 -10.5
s-22 -10.166 -32 -17.499c-4 -2.66699 -7 -4 -9 -4z" />
    <glyph glyph-name="period" unicode="." horiz-adv-x="166" 
d="M81 -36c-4 0 -8.66602 1.66504 -13.999 4.99805s-8 7.33301 -8 12c0 5.33301 2.16699 12.833 6.5 22.5s10 20 17 31s14 20.167 21 27.5s13.5 11 19.5 11c3.33301 0 5.5 -1.16699 6.5 -3.5s1.5 -4.83301 1.5 -7.5c0 -3.33301 -1.33301 -7.66602 -4 -12.999
c-6.66699 -12 -12.334 -23.667 -17.001 -35s-9 -23.666 -13 -36.999c-2 -8.66699 -7.33301 -13 -16 -13z" />
    <glyph glyph-name="slash" unicode="/" horiz-adv-x="336" 
d="M48 -58c-2.66699 1.33301 -4.83301 2.49902 -6.5 3.49902s-2.5 3.16699 -2.5 6.5c0 6 5.5 20.167 16.5 42.5s25.667 50 44 83l61.5 107l69.5 116l68.5 110.5l58 90c16.667 25.333 29 43 37 53c5.33301 6 14.833 12 28.5 18s24.5 9 32.5 9c4 0 6 -1 6 -3
c0 -0.666992 -0.5 -1.83398 -1.5 -3.50098s-1.83301 -2.83398 -2.5 -3.50098c-20 -25.333 -44.167 -57.666 -72.5 -96.999l-90 -127.5l-92 -137.5c-29.667 -46 -56 -89.167 -79 -129.5s-39.833 -74.5 -50.5 -102.5c-2 -5.33301 -4.83301 -12.166 -8.5 -20.499
s-9.16699 -13.166 -16.5 -14.499z" />
    <glyph glyph-name="zero" unicode="0" horiz-adv-x="559" 
d="M307 -1c-20.667 0 -39.6689 6.49902 -57.002 19.499s-31.666 29.167 -42.999 48.5s-18.333 38.333 -21 57c-34 11.333 -58.333 29.833 -73 55.5s-22 55.5 -22 89.5c0 40 8 80.5 24 121.5s38 78.833 66 113.5s60.667 62.667 98 84s77 32 119 32
c34.667 0 63.834 -10 87.501 -30s41.5 -45 53.5 -75s18 -60.333 18 -91c0 -26.667 -3.33301 -58.167 -10 -94.5s-16.667 -73.666 -30 -111.999s-30 -74 -50 -107s-43.333 -59.833 -70 -80.5s-56.667 -31 -90 -31zM305.998 21.999c28 0 53.6641 10.501 76.9971 31.501
s43.833 48 61.5 81s32.667 68.167 45 105.5s21.666 73.166 27.999 107.499s9.5 62.5 9.5 84.5c0 16 -2.16699 33.5 -6.5 52.5s-11 37 -20 54s-20.5 30.833 -34.5 41.5s-31 16 -51 16c-41.333 0 -79.666 -9.66699 -114.999 -29s-66.166 -44.833 -92.499 -76.5
s-46.833 -66.834 -61.5 -105.501s-22 -77.334 -22 -116.001c0 -24.667 4.5 -47.667 13.5 -69s24.833 -38 47.5 -50v11c-0.666992 35.333 4.66602 73.5 15.999 114.5s26.833 80.333 46.5 118s41.834 69.167 66.501 94.5c2.66699 3.33301 6.66699 5 12 5
c4.66699 0 8.83398 -1.33301 12.501 -4s5.83398 -6.66699 6.50098 -12l-3 -7c-5.33301 -8.66699 -11.666 -17.167 -18.999 -25.5s-14 -17.166 -20 -26.499c-24.667 -37.333 -45.667 -78.5 -63 -123.5s-25.333 -90.167 -24 -135.5v-18c2.66699 -0.666992 7 -1 13 -1
c12 0 24 2.16699 36 6.5s22.833 8.5 32.5 12.5s16.167 6 19.5 6c4.66699 0 7 -2.33301 7 -7c0 -5.33301 -4.5 -10.666 -13.5 -15.999s-19.833 -10 -32.5 -14s-24.667 -7 -36 -9s-19.333 -2.66699 -24 -2c2.66699 -13.333 8.16699 -27.333 16.5 -42
s18.666 -27.167 30.999 -37.5s25.833 -15.5 40.5 -15.5z" />
    <glyph glyph-name="one" unicode="1" horiz-adv-x="269" 
d="M200 -49c-21.333 0 -37.8291 6.49707 -49.4961 19.4971s-19.834 28.833 -24.501 47.5s-7 36.334 -7 53.001c0 60 6.83301 123 20.5 189s31.834 126.667 54.501 182c-2.66699 -2 -8.5 -5.66699 -17.5 -11s-17.833 -10.166 -26.5 -14.499s-14.667 -6.5 -18 -6.5
c-6 0 -11.167 1.66699 -15.5 5s-6.5 8.33301 -6.5 15c0 4 2 7.33301 6 10l60.5 34c21 11.333 38.833 26.333 53.5 45c8.66699 12 16.667 24.5 24 37.5s15.666 25.5 24.999 37.5c1.33301 3.33301 4.5 5.5 9.5 6.5s8.83301 1.5 11.5 1.5c4.66699 0 10 -1 16 -3s9 -6 9 -12
c-0.666992 -1.33301 -1 -2.66602 -1 -3.99902s-0.666992 -2.66602 -2 -3.99902c-8.66699 -14 -17.834 -27.333 -27.501 -40s-18.834 -26.334 -27.501 -41.001c-22.667 -39.333 -43.5 -83 -62.5 -131s-34 -97 -45 -147s-16.5 -98 -16.5 -144c0 -14 1 -28.333 3 -43
s6.66699 -27.667 14 -39s18.666 -19.333 33.999 -24c3.33301 -0.666992 7.33301 -2 12 -4s7.33398 -5.33301 8.00098 -10c-1.33301 -2.66699 -3.33301 -4.16699 -6 -4.5s-5.33398 -0.5 -8.00098 -0.5z" />
    <glyph glyph-name="two" unicode="2" horiz-adv-x="516" 
d="M451 -44c-8.66699 0 -13.001 4.32812 -13.001 12.9951c1.33301 6.66699 4.5 12.834 9.5 18.501s9.83301 12.334 14.5 20.001s7 17.5 7 29.5c0 17.333 -7 29.166 -21 35.499s-28.333 9.5 -43 9.5c-38 0 -79.167 -4.33301 -123.5 -13s-87.666 -20.667 -129.999 -36
s-79.833 -33 -112.5 -53l-8 -4c-2.66699 -1.33301 -5.66699 -2 -9 -2c-6.66699 0 -10 3.66699 -10 11c0 8.66699 3 16.334 9 23.001s12 12.334 18 17.001l72.5 61.5c29.667 25.667 61.667 54.834 96 87.501s68.333 66.834 102 102.501s64.5 71.167 92.5 106.5
s50.5 68.833 67.5 100.5s25.5 59.5 25.5 83.5c0 22.667 -5.5 40.667 -16.5 54s-28.167 20 -51.5 20s-49.5 -5.83301 -78.5 -17.5s-58.333 -26.5 -88 -44.5s-56.834 -37.167 -81.501 -57.5s-44.334 -39.5 -59.001 -57.5c-0.666992 -2 -2.66699 -3 -6 -3
c-4 0 -6.83301 2.66699 -8.5 8s-2.5 9.33301 -2.5 12l3 12c7.33301 15.333 20.5 31.333 39.5 48s41.5 32.834 67.5 48.501s53 30 81 43s54.833 23.333 80.5 31s47.167 11.5 64.5 11.5c33.333 0 57.833 -9.33301 73.5 -28s23.5 -44 23.5 -76c0 -26 -8 -55 -24 -87
s-37.167 -65.5 -63.5 -100.5s-55.666 -69.833 -87.999 -104.5s-65 -67.667 -98 -99s-64.167 -59.5 -93.5 -84.5s-54.333 -45.167 -75 -60.5c54 21.333 109.167 39.666 165.5 54.999s113.833 23 172.5 23c18.667 0 35.334 -4 50.001 -12s22 -22.667 22 -44
c0 -5.33301 -1.66699 -13.5 -5 -24.5s-7.5 -22.333 -12.5 -34s-10.667 -21.667 -17 -30s-12.5 -12.5 -18.5 -12.5z" />
    <glyph glyph-name="three" unicode="3" horiz-adv-x="575" 
d="M190 -23c-27.333 0 -54 3.82617 -80 11.4932s-47.333 20.667 -64 39s-25 43.5 -25 75.5c0 6 1 15.833 3 29.5s5.5 26.334 10.5 38.001s11.5 17.5 19.5 17.5c1.33301 0 3.16602 -0.5 5.49902 -1.5s3.5 -2.5 3.5 -4.5c0 -10.667 -2.33301 -22 -7 -34s-7 -24.333 -7 -37
c0 -27.333 7.5 -48.666 22.5 -63.999s33.833 -25.833 56.5 -31.5s45.667 -8.5 69 -8.5c33.333 0 68.5 4.5 105.5 13.5s72 22.833 105 41.5s59.833 42.334 80.5 71.001s31 62.667 31 102c0 35.333 -7.33301 62.5 -22 81.5s-34.334 32.167 -59.001 39.5s-52.334 11 -83.001 11
c-15.333 0 -31 -0.166992 -47 -0.5s-31.667 -1.5 -47 -3.5c-6.66699 -0.666992 -14.5 -2.33398 -23.5 -5.00098s-17.167 -4 -24.5 -4c-10.667 0 -16 6 -16 18c0 3.33301 1 7 3 11s5.33301 6 10 6c16.667 0 37.5 3.16699 62.5 9.5s51 15.333 78 27s52.333 25.334 76 41.001
s43 32.5 58 50.5s22.5 36.667 22.5 56c0 17.333 -4.83301 31.333 -14.5 42s-21.834 18.667 -36.501 24s-29.667 8 -45 8c-27.333 0 -53.333 -6 -78 -18s-46.834 -25.667 -66.501 -41s-36 -29 -49 -41s-21.833 -18 -26.5 -18c-5.33301 0 -8 3 -8 9
c0 12.667 6.33301 25.5 19 38.5s28.834 25.667 48.501 38s40.834 23.333 63.501 33s44 17.334 64 23.001s36.333 8.5 49 8.5c19.333 0 37.833 -3.5 55.5 -10.5s32.167 -17.667 43.5 -32s17 -32.166 17 -53.499c0 -26 -7.33301 -49 -22 -69s-33.167 -37.667 -55.5 -53
s-45.666 -28.666 -69.999 -39.999s-46.166 -21 -65.499 -29h15c26.667 0 53 -1.83301 79 -5.5s49.667 -10.667 71 -21s38.333 -25.5 51 -45.5s19 -46.333 19 -79c0 -34.667 -8.16699 -66 -24.5 -94s-38.166 -52.667 -65.499 -74s-57.5 -39.166 -90.5 -53.499
s-66.333 -25 -100 -32s-65.167 -10.5 -94.5 -10.5z" />
    <glyph glyph-name="four" unicode="4" horiz-adv-x="664" 
d="M480 -24c-21.333 0 -37.8359 6.50195 -49.5029 19.502s-19.834 28.833 -24.501 47.5s-7 36.334 -7 53.001c0 35.333 3.33301 70.833 10 106.5s14 70.5 22 104.5c-28.667 8.66699 -57 18.334 -85 29.001s-56.667 20.667 -86 30
c-28.667 -20.667 -59.5 -37.834 -92.5 -51.501s-67.167 -23.167 -102.5 -28.5c-6.66699 2 -13.5 5.16699 -20.5 9.5s-10.5 10.833 -10.5 19.5c0 12.667 5.33301 24.334 16 35.001s23.834 19.834 39.501 27.501s31.5 13.667 47.5 18s29.333 6.5 40 6.5
c12.667 0 27 -0.833008 43 -2.5s30.333 -4.5 43 -8.5c34 24 63.667 51.5 89 82.5s49 63.5 71 97.5s45.333 67 70 99c2.66699 4 6 6 10 6c3.33301 0 6.33301 -1.33301 9 -4s4 -5.66699 4 -9l-3 -7c-10.667 -20 -25.167 -42.667 -43.5 -68s-38.5 -51 -60.5 -77
s-44 -50.167 -66 -72.5s-41.667 -40.5 -59 -54.5l76.5 -27.5c25.667 -9 51.5 -17.5 77.5 -25.5c7.33301 29.333 16.833 61.833 28.5 97.5s25.334 70.5 41.001 104.5s32.834 62.667 51.501 86c1.33301 3.33301 4 5.5 8 6.5s7.66699 1.5 11 1.5c4.66699 0 10.334 -1 17.001 -3
s10.334 -6 11.001 -12c-1.33301 -4 -2.66602 -6.66699 -3.99902 -8c-6 -10.667 -13 -20.834 -21 -30.501s-15.333 -19.834 -22 -30.501c-20.667 -34 -39.167 -69.333 -55.5 -106s-30.5 -74.334 -42.5 -113.001c18.667 -4.66699 38 -8 58 -10s39.333 -3 58 -3
c9.33301 0 22 0.666992 38 2s30.333 5.16602 43 11.499s19 16.166 19 29.499c0 8.66699 -1.83301 15.667 -5.5 21s-5.5 10.666 -5.5 15.999c0 3.33301 1 6.33301 3 9s4.66699 4 8 4c9.33301 -2 17.166 -8.66699 23.499 -20s9.5 -21.666 9.5 -30.999
c0 -17.333 -6.83301 -31.5 -20.5 -42.5s-29.667 -19 -48 -24s-34.5 -7.5 -48.5 -7.5c-23.333 0 -46.666 2 -69.999 6s-46.333 9.33301 -69 16c-8.66699 -32.667 -14.834 -65.5 -18.501 -98.5s-5.5 -66.167 -5.5 -99.5c0 -22.667 3.66699 -43.667 11 -63
s22.666 -32.666 45.999 -39.999c3.33301 -0.666992 6.5 -1.83398 9.5 -3.50098s4.5 -4.5 4.5 -8.5c0 -6 -2.5 -9.5 -7.5 -10.5s-9.5 -1.5 -13.5 -1.5zM80.9971 319.002c18.667 7.33301 35.833 12.833 51.5 16.5s31.667 8.16699 48 13.5s33.833 13.333 52.5 24
c-12 2 -24.333 3 -37 3c-19.333 0 -35.5 -1.33301 -48.5 -4s-24.5 -8 -34.5 -16s-20.667 -20.333 -32 -37z" />
    <glyph glyph-name="five" unicode="5" horiz-adv-x="578" 
d="M144 10c-4.66699 0 -12.6641 0.665039 -23.9971 1.99805s-23.166 3.5 -35.499 6.5s-22.833 6.66699 -31.5 11s-13 9.83301 -13 16.5c0 3.33301 1.16699 6.33301 3.5 9s5.16602 4 8.49902 4c2 0 7.66699 -2 17 -6s20.666 -8 33.999 -12s26.666 -6 39.999 -6
c24 0 52.333 5.66699 85 17s66.167 26.833 100.5 46.5s66.5 41.834 96.5 66.501s54.167 50.5 72.5 77.5s27.5 53.833 27.5 80.5c0 22 -6 38.833 -18 50.5s-27 19.5 -45 23.5s-36 6 -54 6c-34 0 -65.667 -4.83301 -95 -14.5s-57.833 -21.667 -85.5 -36l-84.5 -44.5
c-4.66699 -5.33301 -9.33398 -11.5 -14.001 -18.5s-10.667 -10.5 -18 -10.5c-0.666992 0 -3.33398 0.5 -8.00098 1.5s-7 2.83301 -7 5.5c0 3.33301 0.333008 6 1 8c7.33301 19.333 18.5 39.166 33.5 59.499l39.5 55.5c21.333 31.333 41.333 62.5 60 93.5
s36.667 62.833 54 95.5l1 2c-8 -2 -16.667 -6.16699 -26 -12.5s-17.5 -12.333 -24.5 -18s-11.167 -8.5 -12.5 -8.5c-8.66699 0 -13 4.33301 -13 13c2 10 8 18.833 18 26.5s22 14.167 36 19.5s27.667 9.5 41 12.5s24 4.5 32 4.5c31.333 0 61.5 -4.5 90.5 -13.5l87.5 -27
c29.333 -9 60.333 -13.5 93 -13.5c20.667 0 37.667 2.33301 51 7s23.333 17.334 30 38.001c2.66699 6.66699 6.66699 10 12 10c8.66699 0 13 -5.33301 13 -16c0 -16.667 -6.83301 -29.667 -20.5 -39s-29.167 -15.833 -46.5 -19.5s-32.333 -5.5 -45 -5.5
c-30.667 0 -61 3.5 -91 10.5l-89 20.5c-29.333 6.66699 -58.333 10 -87 10c-5.33301 0 -9.83301 -1.66699 -13.5 -5s-6.83398 -7.33301 -9.50098 -12l-65 -116.5c-22 -37.667 -45.667 -75.167 -71 -112.5c38 20.667 76.833 39.167 116.5 55.5s81.834 24.5 126.501 24.5
c23.333 0 46.5 -3.16699 69.5 -9.5s42.167 -17.333 57.5 -33s23 -37.167 23 -64.5c0 -29.333 -10.333 -59 -31 -89s-47.5 -58.5 -80.5 -85.5s-68.667 -51.167 -107 -72.5s-75.666 -38.166 -111.999 -50.499s-67.5 -18.5 -93.5 -18.5z" />
    <glyph glyph-name="six" unicode="6" horiz-adv-x="579" 
d="M207 -7c-28 0 -53.8311 4.16406 -77.498 12.4971s-42.834 21.833 -57.501 40.5s-22 43.667 -22 75c0 44 10.833 88.167 32.5 132.5s50.167 87.333 85.5 129s74.5 80.334 117.5 116.001s86.5 67 130.5 94s84.333 48.167 121 63.5c2 1.33301 4.33301 2 7 2
c2 0 3.5 -1.16699 4.5 -3.5s1.5 -4.16602 1.5 -5.49902c0 -3.33301 -1 -6.33301 -3 -9s-4.33301 -5 -7 -7l-110.5 -71c-40.333 -26.667 -80.333 -56.167 -120 -88.5s-76 -67.166 -109 -104.499s-59.5 -76.5 -79.5 -117.5s-30 -83.833 -30 -128.5
c0 -34 9.66699 -59.5 29 -76.5s45 -26.5 77 -28.5c2 36 11.5 71.833 28.5 107.5s39 68 66 97s57.667 52.333 92 70s70.166 26.5 107.499 26.5c22 0 42 -5 60 -15s27 -27.667 27 -53c0 -29.333 -8.66699 -57 -26 -83s-40.333 -49.667 -69 -71s-59.5 -39.833 -92.5 -55.5
s-65.667 -27.667 -98 -36s-60.833 -12.5 -85.5 -12.5zM229.002 18.9971c19.333 1.33301 42.1699 5.33105 68.5029 11.998s53.5 15.834 81.5 27.501s54 25.667 78 42s43.333 34.833 58 55.5s22 43.334 22 68.001c0 16 -4.83301 30.667 -14.5 44s-23.167 20 -40.5 20
c-34 0 -65.833 -8 -95.5 -24s-55.834 -37 -78.501 -63s-40.834 -54.833 -54.501 -86.5s-21.834 -63.5 -24.501 -95.5z" />
    <glyph glyph-name="seven" unicode="7" horiz-adv-x="431" 
d="M139 -18c-8.66699 0 -15.6719 4.83398 -21.0049 14.501s-9 20.5 -11 32.5s-3 21 -3 27c0 51.333 9.66699 102.5 29 153.5s44.333 96.833 75 137.5c-14.667 -1.33301 -30 -3.33301 -46 -6s-31.667 -4 -47 -4c-5.33301 0 -8.83301 2.66699 -10.5 8s-2.5 10 -2.5 14
c0 4.66699 0.666992 9 2 13s4.33301 6.66699 9 8c3.33301 1.33301 10.666 2.33301 21.999 3s24.5 1.33398 39.5 2.00098s28.833 1.33398 41.5 2.00098s21.334 1 26.001 1c35.333 40.667 74 78 116 112s85.333 66 130 96c-18 -4 -37 -6 -57 -6c-28.667 0 -57 3.16699 -85 9.5
l-84 19c-28 6.33301 -56.333 9.5 -85 9.5c-20.667 0 -36.5 -5.66699 -47.5 -17s-19.333 -24.666 -25 -39.999l-14.5 -40c-4 -11.333 -9 -17 -15 -17c-1.33301 0 -3.66602 0.666992 -6.99902 2s-5 3.33301 -5 6c0 1.33301 -0.166992 2.66602 -0.5 3.99902
s-0.166016 3 0.500977 5c3.33301 19.333 9.66602 39.5 18.999 60.5s22 38.667 38 53s35 21.5 57 21.5c30.667 0 61 -3.83301 91 -11.5l90 -23.5c30 -8 60.667 -12 92 -12c22 0 43.333 3.66699 64 11s37.834 14.833 51.501 22.5l20.5 11.5c3.33301 0 5 -2.66699 5 -8
c0 -6 -4.16699 -12.167 -12.5 -18.5s-17.333 -12 -27 -17l-22.5 -11.5c2.66699 -0.666992 6.33398 -2.33398 11.001 -5.00098s7 -5.66699 7 -9c0 -0.666992 -0.333008 -1.33398 -1 -2.00098s-1.33398 -1.66699 -2.00098 -3c-11.333 -11.333 -25 -22.333 -41 -33
s-30.667 -21 -44 -31c-28 -20.667 -55.667 -42.167 -83 -64.5s-53.666 -45.833 -78.999 -70.5c23.333 1.33301 47 3.16602 71 5.49902s47.333 3.5 70 3.5c9.33301 0 14 -4 14 -12c0 -6.66699 -4 -10.667 -12 -12c-28 -6.66699 -57.5 -11.167 -88.5 -13.5
s-61.167 -5.16602 -90.5 -8.49902c-24 -26 -46 -55.167 -66 -87.5s-36 -66.333 -48 -102s-18 -71.834 -18 -108.501c0 -16.667 1.83301 -28.5 5.5 -35.5s7.33398 -12 11.001 -15s5.5 -6.5 5.5 -10.5c0 -2.66699 -1.16699 -5.5 -3.5 -8.5s-5.16602 -4.5 -8.49902 -4.5z" />
    <glyph glyph-name="eight" unicode="8" horiz-adv-x="582" 
d="M233 -26c-16 0 -32.6641 2.50195 -49.9971 7.50195s-32.166 13.167 -44.499 24.5s-18.5 26.666 -18.5 45.999c0 13.333 5.16699 28.5 15.5 45.5s23.666 34.333 39.999 52s33.666 35 51.999 52s35.5 32.167 51.5 45.5l39 32c-10.667 8 -25.334 17.167 -44.001 27.5l-60 34
c-21.333 12.333 -41.833 25.333 -61.5 39s-35.667 27.5 -48 41.5s-18.5 28 -18.5 42c0 25.333 8.5 48 25.5 68s39.167 37.5 66.5 52.5s56.5 27.5 87.5 37.5s60.667 17.5 89 22.5s52.166 7.5 71.499 7.5c4.66699 0 13.167 -0.666992 25.5 -2s25.5 -3.33301 39.5 -6
s26 -6.5 36 -11.5s15 -11.167 15 -18.5c0 -2.66699 -1.33301 -5.5 -4 -8.5s-5.66699 -4.5 -9 -4.5c-1.33301 0 -7.16602 2.33301 -17.499 7s-23 9.16699 -38 13.5s-30.833 6.5 -47.5 6.5c-16 0 -36.167 -2.16699 -60.5 -6.5s-49.833 -10.666 -76.5 -18.999
s-51.667 -18.833 -75 -31.5s-42.333 -27.334 -57 -44.001s-22 -35.667 -22 -57c0 -8.66699 6 -19 18 -31s27.333 -24.5 46 -37.5l58 -38.5l55 -34.5c16.667 -10.333 28.667 -18.5 36 -24.5l124 96.5c42.667 32.333 84.167 66 124.5 101s76.166 72.833 107.499 113.5
c2.66699 4 6 6 10 6c3.33301 0 6.33301 -1.33301 9 -4s4 -5.66699 4 -9c0 -6.66699 -7.66699 -18.334 -23 -35.001s-35.333 -36 -60 -58l-79.5 -69.5l-83.5 -69.5l-71.5 -57l-41.5 -33c23.333 -22 42.5 -46.667 57.5 -74s22.5 -57.333 22.5 -90
c0 -28 -6.83301 -51.5 -20.5 -70.5s-31.167 -34 -52.5 -45s-44.5 -19 -69.5 -24s-49.167 -7.5 -72.5 -7.5zM233.003 -0.998047c19.333 0 39.333 1.66699 60 5s40 9.33301 58 18s32.5 20.667 43.5 36s16.5 35 16.5 59c0 29.333 -6.5 56 -19.5 80s-30.167 45.333 -51.5 64
l-35 -29l-50.5 -43.5c-18.333 -16.333 -35.833 -33 -52.5 -50s-30.334 -33 -41.001 -48s-16 -27.833 -16 -38.5c0 -14.667 5.16699 -25.667 15.5 -33s22.333 -12.5 36 -15.5s25.834 -4.5 36.501 -4.5z" />
    <glyph glyph-name="nine" unicode="9" horiz-adv-x="539" 
d="M324 -111c-11.333 0 -20.666 5.49707 -27.999 16.4971s-12.833 23.5 -16.5 37.5s-5.5 25 -5.5 33c0 26.667 5.33301 56.5 16 89.5s24.667 67.5 42 103.5s36.166 71.5 56.499 106.5s40.333 67.667 60 98l51.5 78.5c-18 -16 -41 -34.5 -69 -55.5s-58.333 -41.667 -91 -62
s-64.667 -37.166 -96 -50.499s-59.333 -20 -84 -20c-20 0 -34.5 5.5 -43.5 16.5s-13.5 26.167 -13.5 45.5c0 38.667 9.66699 74.667 29 108s45 63.333 77 90s67.5 49.334 106.5 68.001s78.333 33 118 43s76.167 15 109.5 15h10c8.66699 0 13 -2.66699 13 -8
c0 -12.667 -4.33301 -21 -13 -25s-17.667 -6 -27 -6c-30.667 0 -63.334 -4.33301 -98.001 -13s-69 -21.334 -103 -38.001s-65 -36.834 -93 -60.501s-50.333 -50.334 -67 -80.001s-25 -62.167 -25 -97.5c0 -22.667 11.667 -34 35 -34c20.667 0 45.167 6.33301 73.5 19
s58 29.167 89 49.5s61 42.5 90 66.5s54.833 47.5 77.5 70.5s40 43.167 52 60.5c5.33301 7.33301 11 9.33301 17 6l15 24c6.66699 10.667 13.834 20.5 21.501 29.5s14.5 13.5 20.5 13.5c7.33301 0 13.166 -1.16699 17.499 -3.5s6.5 -7.16602 6.5 -14.499
c0 -2 -6.5 -11.833 -19.5 -29.5l-51 -71l-69.5 -99.5l-76 -115c-25.333 -40 -48.5 -79.667 -69.5 -119s-38 -76.166 -51 -110.499s-19.5 -64.166 -19.5 -89.499c0 -19.333 3.16699 -33.166 9.5 -41.499s12.5 -14.333 18.5 -18s9 -8.16699 9 -13.5
c0 -2.66699 -1.16699 -5.5 -3.5 -8.5s-5.16602 -4.5 -8.49902 -4.5z" />
    <glyph glyph-name="colon" unicode=":" horiz-adv-x="166" 
d="M136 202c-4.66699 0 -9.33105 1.66699 -13.998 5s-7 7.66602 -7 12.999s2.16699 12.833 6.5 22.5s9.83301 19.834 16.5 30.501s13.667 19.667 21 27s13.666 11 18.999 11c3.33301 0 5.66602 -1.33301 6.99902 -4s2 -5.33398 2 -8.00098c0 -4 -1.33301 -8 -4 -12
c-6.66699 -12 -12.5 -23.667 -17.5 -35s-9.5 -23.666 -13.5 -36.999c-2.66699 -8.66699 -8 -13 -16 -13zM81.0029 -36c-4 0 -8.66602 1.66504 -13.999 4.99805s-8 7.33301 -8 12c0 5.33301 2.16699 12.833 6.5 22.5s10 20 17 31s14 20.167 21 27.5s13.5 11 19.5 11
c3.33301 0 5.5 -1.16699 6.5 -3.5s1.5 -4.83301 1.5 -7.5c0 -3.33301 -1.33301 -7.66602 -4 -12.999c-6.66699 -12 -12.334 -23.667 -17.001 -35s-9 -23.666 -13 -36.999c-2 -8.66699 -7.33301 -13 -16 -13z" />
    <glyph glyph-name="semicolon" unicode=";" horiz-adv-x="121" 
d="M124 197c-4.66699 0 -9.33105 1.66602 -13.998 4.99902s-7 7.66602 -7 12.999s2.16699 12.833 6.5 22.5s9.83301 19.834 16.5 30.501s13.667 19.667 21 27s13.666 11 18.999 11c3.33301 0 5.5 -1.16699 6.5 -3.5s1.5 -4.83301 1.5 -7.5
c0 -3.33301 -1.33301 -7.66602 -4 -12.999c-6.66699 -11.333 -12.334 -22.833 -17.001 -34.5s-9 -24.167 -13 -37.5c-2.66699 -8.66699 -8 -13 -16 -13zM-14.9971 -134.001c-3.33301 0 -5 1.66699 -5 5c0 4 3.66699 9.83301 11 17.5l23 24c8 8.33301 13.333 14.833 16 19.5
c9.33301 16.667 16.333 34 21 52s7.66699 36.333 9 55c1.33301 12 7 18 17 18c13.333 0 20 -6.66699 20 -20c0 -12 -3.83301 -27.333 -11.5 -46s-17.5 -37.667 -29.5 -57s-24.333 -35.5 -37 -48.5s-24 -19.5 -34 -19.5z" />
    <glyph glyph-name="less" unicode="&#x3c;" horiz-adv-x="363" 
d="M265 84c-5.33301 0 -11.335 3.33691 -18.002 10.0039l-17.5 17.5l-40 42c-15.667 17 -31.167 35 -46.5 54s-28.166 37.167 -38.499 54.5s-15.5 31.333 -15.5 42c0 8.66699 4.83301 19.167 14.5 31.5s21.834 25.166 36.501 38.499s29.667 26.166 45 38.499l41.5 32.5
c12.333 9.33301 20.833 16.333 25.5 21c8.66699 7.33301 16.167 12.666 22.5 15.999s11.5 5 15.5 5c9.33301 0 14 -4.66699 14 -14c0 -6.66699 -3.33301 -13.334 -10 -20.001l-41.5 -35l-54 -47c-18.333 -16.667 -33.833 -32.5 -46.5 -47.5s-19 -26.833 -19 -35.5
c0 -4.66699 4.5 -13.5 13.5 -26.5s20 -28 33 -45l39.5 -50l34 -41.5c9.33301 -11.333 14.333 -17.666 15 -18.999c3.33301 -6.66699 5 -11.334 5 -14.001c0 -5.33301 -2.66699 -8 -8 -8z" />
    <glyph glyph-name="equal" unicode="=" horiz-adv-x="397" 
d="M134 199c-4.66699 0 -8.83203 2.16797 -12.499 6.50098s-5.5 8.83301 -5.5 13.5c0 8 6 15.167 18 21.5s27.333 11.666 46 15.999s37.834 8 57.501 11s37.5 5.16699 53.5 6.5s27.333 2 34 2c17.333 0 35 -1 53 -3s35.333 -5.66699 52 -11
c1.33301 -0.666992 2.83301 -1.33398 4.5 -2.00098s2.5 -1.66699 2.5 -3c0 -2.66699 -2.33301 -4.5 -7 -5.5s-10.334 -1.5 -17.001 -1.5s-13.334 0.333008 -20.001 1s-11 1 -13 1c-28 0 -56.5 -2 -85.5 -6s-57.167 -9 -84.5 -15c-12 -2.66699 -23.667 -6.16699 -35 -10.5
s-22 -10.166 -32 -17.499c-4 -2.66699 -7 -4 -9 -4zM134.002 63.001c-4.66699 0 -8.83203 2.16699 -12.499 6.5s-5.5 8.83301 -5.5 13.5c0 8 6 15.167 18 21.5s27.333 11.666 46 15.999s37.834 8 57.501 11s37.5 5.16699 53.5 6.5s27.333 2 34 2c17.333 0 35 -1 53 -3
s35.333 -5.66699 52 -11c1.33301 0 2.83301 -0.5 4.5 -1.5s2.5 -2.16699 2.5 -3.5c0 -2.66699 -2.33301 -4.5 -7 -5.5s-10.334 -1.5 -17.001 -1.5s-13.334 0.333008 -20.001 1s-11 1 -13 1c-28 0 -56.5 -2 -85.5 -6s-57.167 -9 -84.5 -15
c-12 -2.66699 -23.667 -6.16699 -35 -10.5s-22 -10.166 -32 -17.499c-4 -2.66699 -7 -4 -9 -4z" />
    <glyph glyph-name="greater" unicode="&#x3e;" horiz-adv-x="392" 
d="M110 30c-9.33301 0 -13.998 4.66113 -13.998 13.9941c0 6.66699 3.33301 13.334 10 20.001l41.5 35.5l54 47.5c18.333 16.667 33.833 32.334 46.5 47.001s19 26.334 19 35.001c0 4.66699 -4.5 13.5 -13.5 26.5s-20 28 -33 45l-39.5 50l-34 41.5
c-9.33301 11.333 -14.333 17.666 -15 18.999c-3.33301 6.66699 -5 11.334 -5 14.001c0 5.33301 2.66699 8 8 8s11.333 -3.33301 18 -10l17.5 -17.5l40 -42c15.667 -17 31.167 -35 46.5 -54s28.166 -37 38.499 -54s15.5 -31.167 15.5 -42.5
c0 -8.66699 -4.83301 -19.167 -14.5 -31.5s-21.834 -25.166 -36.501 -38.499s-29.667 -26.166 -45 -38.499l-41.5 -32.5c-12.333 -9.33301 -20.833 -16.333 -25.5 -21c-8.66699 -7.33301 -16.167 -12.666 -22.5 -15.999s-11.5 -5 -15.5 -5z" />
    <glyph glyph-name="question" unicode="?" horiz-adv-x="609" 
d="M250 161c-2.66699 0 -4.50195 1.16895 -5.50195 3.50195s-1.5 4.83301 -1.5 7.5c0 33.333 8.16699 63 24.5 89s37.166 49.667 62.499 71s52.333 41.5 81 60.5l81 55.5c25.333 18 46.166 36.5 62.499 55.5s24.5 39.833 24.5 62.5c0 20.667 -7 37 -21 49
s-30.667 20.833 -50 26.5s-37.333 8.5 -54 8.5c-26.667 0 -55.5 -5 -86.5 -15s-61.167 -23.833 -90.5 -41.5s-55.333 -37.834 -78 -60.501s-39 -46.667 -49 -72c-2 -4.66699 -3 -10.334 -3 -17.001c0 -13.333 4.66699 -24 14 -32s20.333 -12 33 -12
c5.33301 0 10.666 0.666992 15.999 2s10.333 2 15 2c2 0 4.66699 -0.333008 8 -1s5 -2.66699 5 -6c-1.33301 -4 -5.66602 -7 -12.999 -9s-14.833 -3.33301 -22.5 -4s-13.5 -1 -17.5 -1c-18.667 0 -34.667 4.83301 -48 14.5s-20 24.5 -20 44.5c0 10.667 2 20.334 6 29.001
c16.667 44 42.834 81.833 78.501 113.5s76.334 56 122.001 73s90.834 25.5 135.501 25.5c22.667 0 46 -4.16699 70 -12.5s44.333 -21.166 61 -38.499s25 -39.333 25 -66c0 -10 -1.33301 -19 -4 -27c-6.66699 -23.333 -18.667 -44 -36 -62s-37.833 -34.833 -61.5 -50.5
l-73.5 -47c-25.333 -15.667 -49.833 -32.834 -73.5 -51.501s-44.167 -39.834 -61.5 -63.501s-29.666 -51.5 -36.999 -83.5c-0.666992 -4.66699 -2.5 -9.16699 -5.5 -13.5s-7.16699 -6.5 -12.5 -6.5zM195.998 -27.998c-4.66699 0 -9.5 1.66602 -14.5 4.99902
s-7.5 7.33301 -7.5 12c0 5.33301 2.16699 12.833 6.5 22.5s10 19.834 17 30.501s14 19.667 21 27s13.5 11 19.5 11c5.33301 0 8 -3.33301 8 -10c0 -4.66699 -1.33301 -9 -4 -13c-6.66699 -12 -12.5 -23.833 -17.5 -35.5s-9.5 -24.167 -13.5 -37.5c-2 -8 -7 -12 -15 -12z" />
    <glyph glyph-name="at" unicode="@" horiz-adv-x="819" 
d="M485 -113c-48 0 -94.332 5.33203 -138.999 15.999s-84.667 27.5 -120 50.5s-63.5 53.333 -84.5 91s-31.5 83.834 -31.5 138.501c0 38 7.16699 76.167 21.5 114.5s34.166 74.333 59.499 108s54.5 63.834 87.5 90.501s68.333 47.5 106 62.5s75.834 22.5 114.501 22.5
c27.333 0 54.666 -5.16699 81.999 -15.5s52.166 -24.666 74.499 -42.999s40.333 -39.833 54 -64.5s20.5 -51.667 20.5 -81c0 -34.667 -3.66699 -65.167 -11 -91.5s-18.166 -51.333 -32.499 -75s-31.833 -48.834 -52.5 -75.501c-4.66699 -6 -13.167 -14.833 -25.5 -26.5
s-26 -23.334 -41 -35.001s-29.333 -21.667 -43 -30s-24.167 -12.5 -31.5 -12.5c-12.667 0 -22.834 5.5 -30.501 16.5s-13.5 25.167 -17.5 42.5s-6.83301 35.333 -8.5 54s-2.66699 36 -3 52s-0.166016 28 0.500977 36l-17 -41.5c-7.33301 -18.333 -15.833 -38.333 -25.5 -60
s-20 -42.334 -31 -62.001s-22.167 -35.834 -33.5 -48.501s-22.333 -19 -33 -19c-11.333 0 -19.666 5.5 -24.999 16.5s-8.66602 23.5 -9.99902 37.5s-2 24.667 -2 32c0 25.333 2.33301 52.166 7 80.499s10.667 54.833 18 79.5c3.33301 11.333 9.33301 27.833 18 49.5
s19.167 43.834 31.5 66.501s25.666 41.834 39.999 57.501s28.833 23.5 43.5 23.5c11.333 0 23.666 -5 36.999 -15s20 -21 20 -33c0 -4.66699 -2 -8.66699 -6 -12h12c5.33301 0 8.83301 -2.33301 10.5 -7s2.5 -8.66699 2.5 -12c0 -10 -1.5 -20.833 -4.5 -32.5
s-5.16699 -22.167 -6.5 -31.5c-4.66699 -26 -8.66699 -52.167 -12 -78.5s-5 -52.833 -5 -79.5c0 -6 0.5 -15.5 1.5 -28.5s3.66699 -25 8 -36s11.166 -16.5 20.499 -16.5c6.66699 0 15.834 3.5 27.501 10.5s24 15.667 37 26s24.833 20.5 35.5 30.5s18 17.667 22 23
c19.333 25.333 35.666 48.833 48.999 70.5s23.5 44.667 30.5 69s10.5 52.833 10.5 85.5c0 25.333 -6.16699 48.833 -18.5 70.5s-28.666 40.667 -48.999 57s-42.5 29 -66.5 38s-48 13.5 -72 13.5c-33.333 0 -66.833 -7.5 -100.5 -22.5s-65.667 -35.5 -96 -61.5
s-57.5 -55.167 -81.5 -87.5s-42.833 -65.666 -56.5 -99.999s-20.5 -67.833 -20.5 -100.5c0 -50 9.33301 -92.5 28 -127.5s44 -63 76 -84s68.5 -36.333 109.5 -46s83.5 -14.5 127.5 -14.5c12.667 0 30.334 2.5 53.001 7.5s47.167 11.833 73.5 20.5s51.333 19 75 31
s43 25 58 39s22.5 28.667 22.5 44c0 9.33301 -3.16699 16.666 -9.5 21.999s-13.5 9.83301 -21.5 13.5s-15.167 7.16699 -21.5 10.5s-9.5 7.33301 -9.5 12c0 5.33301 1.66699 8.66602 5 9.99902s7.33301 2 12 2c8.66699 0 18.167 -3.83301 28.5 -11.5s19.333 -16.667 27 -27
s11.5 -20.166 11.5 -29.499c0 -19.333 -7.83301 -37.666 -23.5 -54.999s-35.834 -33 -60.501 -47s-51 -26 -79 -36s-54.5 -17.667 -79.5 -23s-45.5 -8 -61.5 -8zM302.001 42.999c8.66699 0 18.332 8.00098 28.999 24.001s21.834 36.5 33.501 61.5s22.834 51.833 33.501 80.5
l29.5 81.5l22.5 64c6 17 10 26.167 12 27.5l-6 -1c-4.66699 0 -8.33398 2.5 -11.001 7.5s-6 9.83301 -10 14.5s-10.667 7 -20 7c-12 0 -23.667 -7 -35 -21s-22.166 -30.833 -32.499 -50.5s-19 -38.834 -26 -57.501s-11.833 -32.667 -14.5 -42
c-13.333 -46 -20 -93.333 -20 -142c0 -2.66699 0.166992 -8.5 0.5 -17.5s1.66602 -17.333 3.99902 -25s5.83301 -11.5 10.5 -11.5z" />
    <glyph glyph-name="A" unicode="A" horiz-adv-x="932" 
d="M157 -147c-39.333 0 -71.333 8.1582 -96 24.4912s-42.5 38.833 -53.5 67.5s-16.5 61.334 -16.5 98.001c0 34 4.83301 72.333 14.5 115s24 85.834 43 129.501s42 83.834 69 120.501s57.833 66.334 92.5 89.001s72.667 34 114 34c24 0 42.833 -5.5 56.5 -16.5
s23.5 -25.5 29.5 -43.5s9 -37.333 9 -58c0 -20 -3 -43.5 -9 -70.5s-14.333 -53 -25 -78s-23.667 -44.833 -39 -59.5c-1.33301 -0.666992 -2.83301 -1.66699 -4.5 -3s-3.5 -2 -5.5 -2c-3.33301 0 -5 2 -5 6c0 5.33301 2.33301 10.333 7 15c19.333 24 33.333 50 42 78
s13 57.333 13 88c0 14 -1.66699 29.667 -5 47s-9.66602 32.333 -18.999 45s-23.333 19 -42 19c-38.667 0 -74.167 -11 -106.5 -33s-61.166 -51 -86.499 -87s-46.5 -75 -63.5 -117s-30 -83.333 -39 -124s-13.5 -76.667 -13.5 -108c0 -27.333 3.66699 -52.666 11 -75.999
s20 -42.166 38 -56.499s42.333 -21.5 73 -21.5c39.333 0 77.166 8.16699 113.499 24.5s70.666 38.166 102.999 65.499s62.5 57.666 90.5 90.999s53.5 67.166 76.5 101.499s43.167 66.833 60.5 97.5c-15.333 -2.66699 -30.666 -5.66699 -45.999 -9
s-30.666 -7.66602 -45.999 -12.999c-2.66699 -0.666992 -5.33398 -2 -8.00098 -4s-5.66699 -3 -9 -3c-6.66699 0 -10.667 1.83301 -12 5.5s-2 8.83398 -2 15.501c0 12.667 5.83301 22.334 17.5 29.001s25.667 11.334 42 14.001s32.666 4.33398 48.999 5.00098
s28.833 1.33398 37.5 2.00098l74 130c24.667 43.333 48 87.333 70 132c8.66699 17.333 16.5 35 23.5 53s14.5 35.667 22.5 53c1.33301 3.33301 3.33301 6.83301 6 10.5s6.33398 5.83398 11.001 6.50098c2.66699 -1.33301 4 -3 4 -5c0 -7.33301 -3.83301 -20.5 -11.5 -39.5
s-17.5 -41.333 -29.5 -67s-25.333 -52.5 -40 -80.5l-42.5 -81l-36.5 -68.5l-23 -42.5l82.5 4c27.667 1.33301 55.167 2.33301 82.5 3c5.33301 56.667 12.666 115.5 21.999 176.5s14 119.5 14 175.5c0 8.66699 -0.833008 17.167 -2.5 25.5s-2.5 16.5 -2.5 24.5
c0 9.33301 3.66699 16 11 20s14.666 6 21.999 6c20 0 30 -9 30 -27c0 -20.667 -2.66699 -42 -8 -64s-9.66602 -43.667 -12.999 -65l-22.5 -135c-7.66699 -45.333 -14.5 -90.666 -20.5 -135.999c14.667 1.33301 29.334 2.5 44.001 3.5s29 1.5 43 1.5
c2.66699 0 5.66699 -0.333008 9 -1s5 -2.66699 5 -6c0 -4 -4.5 -7.33301 -13.5 -10s-19.833 -4.5 -32.5 -5.5s-24.5 -1.83301 -35.5 -2.5s-18.5 -1 -22.5 -1c-3.33301 -30.667 -6.5 -61.667 -9.5 -93s-4.5 -62.666 -4.5 -93.999c0 -12.667 0.833008 -28 2.5 -46
s6.33398 -34 14.001 -48s20.5 -21 38.5 -21c13.333 0 25 5 35 15s18.333 19.833 25 29.5s11.334 14.5 14.001 14.5s4 -1.66699 4 -5c0 -8 -5.16699 -18.167 -15.5 -30.5s-22 -23.5 -35 -33.5s-23.833 -15 -32.5 -15c-18 0 -32 5 -42 15s-17.333 22.667 -22 38
s-7.66699 31.166 -9 47.499s-2 30.833 -2 43.5c0 30 1 60.167 3 90.5s4.33301 60.5 7 90.5c-30.667 -2.66699 -61.5 -6.16699 -92.5 -10.5l-93.5 -13.5l-29 -54c-14.667 -26.667 -33.334 -55.834 -56.001 -87.501s-48.334 -63 -77.001 -94s-59.334 -59.333 -92.001 -85
s-66 -46.334 -100 -62.001s-67.667 -23.5 -101 -23.5z" />
    <glyph glyph-name="B" unicode="B" horiz-adv-x="624" 
d="M268 -46c-10.667 0 -19.167 3.16602 -25.5 9.49902s-9.5 14.833 -9.5 25.5c0 16 6 32.333 18 49s27.333 32.5 46 47.5s38.667 28.333 60 40s41.833 21 61.5 28s35.834 10.5 48.501 10.5h3c2.66699 0 5.33398 -0.166992 8.00098 -0.5s4.33398 -1.83301 5.00098 -4.5
c-2 -2 -4.66699 -3.66699 -8 -5c-12 -4 -29 -11.333 -51 -22s-44.667 -23.167 -68 -37.5s-43 -29.666 -59 -45.999s-24 -32.5 -24 -48.5c0 -5.33301 2.16699 -8.83301 6.5 -10.5s8.83301 -2.5 13.5 -2.5c17.333 0 37.666 6.5 60.999 19.5s47.5 30.167 72.5 51.5
s48 44.333 69 69s38.167 49 51.5 73s20 44.667 20 62c0 20.667 -6.83301 38.167 -20.5 52.5s-29.5 24.833 -47.5 31.5l-47 -28c-20.667 -12 -42.834 -23.833 -66.501 -35.5s-46.167 -21.667 -67.5 -30s-38.333 -12.5 -51 -12.5c-9.33301 0 -18.833 3 -28.5 9
s-14.5 14.333 -14.5 25c0 18 7.66699 33.5 23 46.5s34 23.833 56 32.5s44.167 15 66.5 19s40.5 6 54.5 6c13.333 0 26.166 -0.833008 38.499 -2.5s24.833 -4.5 37.5 -8.5c22 12.667 43.667 31.5 65 56.5s39.166 52.167 53.499 81.5s21.5 57 21.5 83
c0 27.333 -6.5 48.833 -19.5 64.5s-30 26.834 -51 33.501s-43.5 10 -67.5 10c-67.333 0 -128.833 -8 -184.5 -24s-112.834 -40.333 -171.501 -73c-9.33301 -4.66699 -21.166 -12.334 -35.499 -23.001s-28.666 -22.667 -42.999 -36s-26.333 -26.666 -36 -39.999
s-14.5 -25.666 -14.5 -36.999c0 -5.33301 -1 -9.83301 -3 -13.5s-6.33301 -5.5 -13 -5.5c-4.66699 0 -8.5 1.66699 -11.5 5s-4.5 7.33301 -4.5 12c0 11.333 5.66699 25.166 17 41.499s25.166 33 41.499 50s32.5 32.167 48.5 45.5s29 22.666 39 27.999
c60 34 121.5 59 184.5 75s128.833 24 197.5 24c27.333 0 53.333 -3.83301 78 -11.5s44.667 -20.5 60 -38.5s23 -42.667 23 -74c0 -30 -7.66699 -60.833 -23 -92.5s-34.833 -60.834 -58.5 -87.501s-48.167 -47 -73.5 -61c20 -9.33301 37.167 -22.5 51.5 -39.5
s21.5 -37.167 21.5 -60.5c0 -20.667 -7.83301 -44.334 -23.5 -71.001s-36.167 -53.667 -61.5 -81s-52.666 -52.666 -81.999 -75.999s-57.833 -42.166 -85.5 -56.499s-51.5 -21.5 -71.5 -21.5zM230 26.999c-21.333 0 -37.998 5.33203 -49.998 15.999
s-20.167 24.334 -24.5 41.001s-6.5 34 -6.5 52c0 33.333 3.16699 71.833 9.5 115.5s15.833 88.334 28.5 134.001s28 88.334 46 128.001s38.333 72.167 61 97.5c5.33301 5.33301 11.666 8 18.999 8c4 0 8.66699 -1.16699 14 -3.5s8.33301 -6.16602 9 -11.499l-3 -7
c-6.66699 -12 -14.334 -23.5 -23.001 -34.5s-16.667 -22.833 -24 -35.5c-32.667 -56 -59.167 -117 -79.5 -183s-30.5 -131.667 -30.5 -197c0 -12.667 0.666992 -25.834 2 -39.501s5 -25.834 11 -36.501s16 -18.334 30 -23.001c3.33301 -0.666992 7 -2 11 -4
s6 -5.33301 6 -10s-2 -7 -6 -7zM277.002 260.998c11.333 0 26.167 3.5 44.5 10.5s37.833 15.5 58.5 25.5s39.834 20.167 57.501 30.5s31.167 18.5 40.5 24.5c-14.667 4 -30.334 6 -47.001 6c-9.33301 0 -23.333 -2.5 -42 -7.5s-38 -11.667 -58 -20s-37 -17.333 -51 -27
s-21 -19.5 -21 -29.5c0 -4.66699 2 -8 6 -10s8 -3 12 -3z" />
    <glyph glyph-name="C" unicode="C" horiz-adv-x="638" 
d="M286 -55c-50.667 0 -91.1689 11.3359 -121.502 34.0029s-52 53 -65 91s-19.5 79.667 -19.5 125c0 34.667 3.83301 69 11.5 103s18.5 67 32.5 99c10 24 24 50.333 42 79s38.667 57.167 62 85.5s48.5 54.166 75.5 77.499s55.167 42.166 84.5 56.499
s58.666 21.5 87.999 21.5c35.333 0 62.833 -11 82.5 -33s29.5 -50 29.5 -84c0 -26.667 -5.83301 -55 -17.5 -85s-27.5 -58.167 -47.5 -84.5s-43.167 -47.833 -69.5 -64.5s-54.166 -25 -83.499 -25c-18.667 0 -33 5.33301 -43 16s-15 25.334 -15 44.001
c0 4.66699 1 12.667 3 24s5 23.166 9 35.499s8.33301 23 13 32s9.33398 13.5 14.001 13.5c2.66699 0 4.33398 -1.16699 5.00098 -3.5s1 -4.5 1 -6.5c0 -14.667 -4 -29.334 -12 -44.001s-12 -30.667 -12 -48c0 -13.333 3.66699 -24.333 11 -33s18 -13 32 -13
c25.333 0 49.166 7.83301 71.499 23.5s42.166 35.834 59.499 60.501s31 50.5 41 77.5s15 51.833 15 74.5c0 26.667 -8.16699 48.834 -24.5 66.501s-38.166 26.5 -65.499 26.5c-26.667 0 -53.5 -6.83301 -80.5 -20.5s-53 -31.667 -78 -54s-48.333 -46.833 -70 -73.5
s-40.5 -53.5 -56.5 -80.5s-28.667 -51.833 -38 -74.5c-12.667 -30 -22.5 -60.833 -29.5 -92.5s-10.5 -63.834 -10.5 -96.501c0 -38.667 5.5 -74.834 16.5 -108.501s29.5 -60.667 55.5 -81s61 -30.5 105 -30.5h10c30.667 0 61.334 9.16699 92.001 27.5s60 41.833 88 70.5
s53.167 58.167 75.5 88.5s40.833 57.5 55.5 81.5c9.33301 15.333 17.5 30.833 24.5 46.5s14.5 31.167 22.5 46.5c1.33301 2 3 4.33301 5 7s4.33301 4 7 4c1.33301 -4 2 -7.33301 2 -10c0 -4 -0.666992 -7.33301 -2 -10c-8.66699 -26.667 -22.334 -56.667 -41.001 -90
s-41 -67 -67 -101s-54.167 -65.5 -84.5 -94.5s-61.666 -52.333 -93.999 -70s-63.833 -26.5 -94.5 -26.5z" />
    <glyph glyph-name="D" unicode="D" horiz-adv-x="626" 
d="M98 -35c-3.33301 0 -10 0.331055 -20 0.998047s-20.5 1.83398 -31.5 3.50098s-20.5 3.83398 -28.5 6.50098s-12 6.33398 -12 11.001c0 3.33301 1.83301 5.83301 5.5 7.5s6.83398 2.5 9.50098 2.5c13.333 0 26.666 -2 39.999 -6s27.333 -6 42 -6
c46 0 92.333 8.83301 139 26.5s90.834 42.167 132.501 73.5s78.667 67.166 111 107.499s57.833 83.333 76.5 129s28 91.834 28 138.501c0 51.333 -11.333 91.666 -34 120.999s-52.834 50.333 -90.501 63s-79.5 19 -125.5 19c-20 0 -44.167 -2 -72.5 -6
s-57.666 -10.333 -87.999 -19s-58.833 -20 -85.5 -34s-48.167 -30.833 -64.5 -50.5s-24.5 -42.834 -24.5 -69.501c0 -15.333 4.16699 -26.666 12.5 -33.999s19.166 -12.666 32.499 -15.999c1.33301 -0.666992 3.66602 -1.16699 6.99902 -1.5s5 -1.83301 5 -4.5
c-4 -5.33301 -10.667 -8 -20 -8c-20.667 0 -36.167 6.16699 -46.5 18.5s-15.5 28.5 -15.5 48.5c0 30.667 8.83301 57.667 26.5 81s40.667 42.833 69 58.5s59 28.5 92 38.5s65.5 17.167 97.5 21.5s59.667 6.5 83 6.5c54 0 102.167 -6.5 144.5 -19.5
s75.833 -35.833 100.5 -68.5s37 -79.334 37 -140.001c0 -50.667 -10.333 -100.5 -31 -149.5s-49 -94.5 -85 -136.5s-76.833 -79.167 -122.5 -111.5s-93.667 -57.5 -144 -75.5s-100.166 -27 -149.499 -27zM219 59.998c-20.667 0 -36.502 5 -47.502 15s-18.667 23 -23 39
s-6.5 32.333 -6.5 49c0 31.333 3 67.833 9 109.5s15 84.334 27 128.001s26.5 84.5 43.5 122.5s36.5 69 58.5 93c4.66699 4.66699 10.334 7 17.001 7c4.66699 0 9.5 -1 14.5 -3s7.83301 -5.66699 8.5 -11l-3 -6c-6 -12 -13.333 -23.167 -22 -33.5
s-16.334 -21.5 -23.001 -33.5c-31.333 -53.333 -56.666 -111.5 -75.999 -174.5s-29 -125.5 -29 -187.5c0 -18.667 1.83301 -37.334 5.5 -56.001s15.834 -31.667 36.501 -39c3.33301 -0.666992 6.83301 -2 10.5 -4s5.5 -5 5.5 -9s-2 -6 -6 -6z" />
    <glyph glyph-name="E" unicode="E" horiz-adv-x="666" 
d="M282 -56c-34 0 -64.499 9.33496 -91.499 28.002s-48.167 42.667 -63.5 72s-23 60.333 -23 93c0 37.333 3 74.333 9 111c-4 -4.66699 -9.16699 -12.667 -15.5 -24s-12.833 -17 -19.5 -17c-4.66699 0 -8.83398 1.5 -12.501 4.5s-5.5 6.83301 -5.5 11.5
c0 7.33301 4.33301 16.333 13 27s18.167 21 28.5 31s18.166 17 23.499 21c13.333 51.333 34 101 62 149s62 90.833 102 128.5s84.833 67.5 134.5 89.5s102.5 33 158.5 33c14.667 0 30.667 -2.66699 48 -8s32.166 -13.666 44.499 -24.999s18.5 -26 18.5 -44
c0 -4 -0.833008 -11.667 -2.5 -23s-4 -23.666 -7 -36.999s-6.83301 -24.666 -11.5 -33.999s-10.334 -14 -17.001 -14c-2.66699 0 -4.5 1.83301 -5.5 5.5s-1.5 6.5 -1.5 8.5c0 7.33301 4.16699 18.5 12.5 33.5s12.5 36.5 12.5 64.5c0 12.667 -5.66699 22 -17 28
s-24.166 10 -38.499 12s-26.166 3 -35.499 3c-48 0 -93.5 -9.33301 -136.5 -28s-82 -44 -117 -76s-65.667 -68 -92 -108s-47.166 -81.333 -62.499 -124c36.667 21.333 77.334 40.666 122.001 57.999s90.167 31 136.5 41s90.833 15 133.5 15c3.33301 0 10.833 -0.5 22.5 -1.5
s24.334 -2.5 38.001 -4.5s25.5 -4.66699 35.5 -8s15 -7.66602 15 -12.999c0 -2.66699 -1.5 -4.5 -4.5 -5.5s-5.16699 -1.5 -6.5 -1.5c-9.33301 0 -20.5 2.66699 -33.5 8s-26.833 8 -41.5 8c-28.667 0 -62.667 -4.16699 -102 -12.5s-79.833 -19.333 -121.5 -33
s-80.834 -28.834 -117.501 -45.501s-66.667 -33.667 -90 -51c-6.66699 -24.667 -11.667 -49.834 -15 -75.501s-5 -51.5 -5 -77.5c0 -26.667 5.83301 -52.5 17.5 -77.5s28.167 -45.5 49.5 -61.5s46.333 -24 75 -24c31.333 0 64.166 5.16699 98.499 15.5s68.333 24.333 102 42
s64.667 37.667 93 60s51.833 45.833 70.5 70.5c1.33301 1.33301 2.83301 3 4.5 5s3.5 3 5.5 3c3.33301 0 5 -2 5 -6c0 -2.66699 -0.5 -5.33398 -1.5 -8.00098s-2.16699 -4.66699 -3.5 -6c-16 -25.333 -38.667 -50.333 -68 -75s-62 -46.834 -98 -66.501
s-72.167 -35.334 -108.5 -47.001s-69.5 -17.5 -99.5 -17.5z" />
    <glyph glyph-name="F" unicode="F" horiz-adv-x="512" 
d="M138 371c-26 0 -49.9961 6.99805 -71.9961 20.998s-39.667 32.5 -53 55.5s-20 47.167 -20 72.5c0 33.333 8.16699 63 24.5 89s37.666 48 63.999 66s55.166 31.667 86.499 41s61.666 14 90.999 14c34.667 0 68 -4.66699 100 -14s63 -21 93 -35s58.667 -28.167 86 -42.5
s53.333 -26.166 78 -35.499s47.667 -14 69 -14c28 0 47.667 8 59 24s17 36 17 60v3c0 3.33301 0.5 6.83301 1.5 10.5s3.5 5.5 7.5 5.5c6.66699 0 10.5 -4.33301 11.5 -13s1.5 -15.334 1.5 -20.001c0 -20 -5.33301 -36.5 -16 -49.5s-24.334 -22.667 -41.001 -29
s-34 -9.5 -52 -9.5c-26.667 0 -52.5 4.33301 -77.5 13s-50 19.334 -75 32.001l-76.5 37.5c-26 12.333 -53.667 22.833 -83 31.5s-61 13 -95 13c-24.667 0 -50.667 -4 -78 -12s-53 -19.667 -77 -35s-43.333 -34.166 -58 -56.499s-22 -47.833 -22 -76.5
c0 -20 5.33301 -39.667 16 -59s25 -35.333 43 -48s37.333 -19 58 -19c12.667 0 23.5 2.33301 32.5 7s16.333 9.16699 22 13.5s10.167 6.5 13.5 6.5c4 0 6 -2 6 -6c0 -8 -5.83301 -15.167 -17.5 -21.5s-24.167 -11.333 -37.5 -15s-23.333 -5.5 -30 -5.5zM347.004 -14.002
c-22 0 -39.167 5.66602 -51.5 16.999s-20.833 25.833 -25.5 43.5s-7 35.5 -7 53.5c0 43.333 3.33301 86.666 10 129.999s16 86 28 128l-28.5 -18c-13.667 -8.66699 -27.334 -16.667 -41.001 -24s-23.167 -11 -28.5 -11c-2.66699 0 -4.16699 2 -4.5 6s-0.5 6.33301 -0.5 7
c0 15.333 7.16699 28 21.5 38s30.666 18.5 48.999 25.5l45.5 17.5l13 35c6 16 13.5 33.833 22.5 53.5s18.333 38.667 28 57s19.334 33.5 29.001 45.5s18.5 18 26.5 18c5.33301 0 11 -1.33301 17 -4s9 -6.66699 9 -12l-3 -8c-4 -6.66699 -9 -13.667 -15 -21
s-11.667 -14.666 -17 -21.999c-12.667 -20 -24.667 -40.5 -36 -61.5s-21.666 -42.167 -30.999 -63.5c52 16 106 24 162 24c4 0 11.667 -0.666992 23 -2s22 -3.33301 32 -6s15 -6.66699 15 -12c0 -4.66699 -2.16699 -7.5 -6.5 -8.5s-8.16602 -1.5 -11.499 -1.5
c-12.667 0 -25.334 1.33301 -38.001 4s-25.667 4 -39 4c-52.667 0 -103 -11.667 -151 -35c-16.667 -42.667 -29.667 -86.834 -39 -132.501s-14 -91.834 -14 -138.501c0 -13.333 0.666992 -27.166 2 -41.499s5.33301 -27.166 12 -38.499s17.334 -19.666 32.001 -24.999
c3.33301 -0.666992 7.16602 -2 11.499 -4s6.5 -5.66699 6.5 -11c0 -4 -2.33301 -6 -7 -6z" />
    <glyph glyph-name="G" unicode="G" horiz-adv-x="607" 
d="M277 -240c-16 0 -26.1621 5.66895 -30.4951 17.002s-6.5 23.666 -6.5 36.999c0 30.667 5.66699 63.5 17 98.5s26.5 70.5 45.5 106.5s40 71.167 63 105.5s46.5 66 70.5 95s46.667 53.833 68 74.5c3.33301 19.333 5.83301 38.666 7.5 57.999s2.5 38.666 2.5 57.999v14
c0 4.66699 -0.333008 9.33398 -1 14.001l-45.5 -72c-19 -30 -40.5 -62 -64.5 -96s-49 -66 -75 -96s-51.833 -54.667 -77.5 -74s-49.5 -29 -71.5 -29c-24 0 -42.167 7.66699 -54.5 23s-20.5 34 -24.5 56s-6 42.333 -6 61c0 45.333 7.16699 91 21.5 137
s34.166 90.5 59.499 133.5s54.5 82.333 87.5 118s68.5 65.5 106.5 89.5c19.333 12 40.166 22.667 62.499 32s44.833 14 67.5 14c35.333 0 62.833 -11 82.5 -33s29.5 -50 29.5 -84c0 -4.66699 -0.666992 -12.667 -2 -24s-5 -17 -11 -17c-6.66699 0 -10.334 4.5 -11.001 13.5
s-1 15.833 -1 20.5c0 26.667 -8.16699 49 -24.5 67s-38.166 27 -65.499 27c-26.667 0 -53.334 -6.83301 -80.001 -20.5s-52.334 -31.834 -77.001 -54.501s-47.5 -47.334 -68.5 -74.001s-39.5 -53.5 -55.5 -80.5s-28.667 -51.5 -38 -73.5
c-12.667 -30.667 -23.167 -61.5 -31.5 -92.5s-12.5 -63.167 -12.5 -96.5v-23c0 -13.333 0.833008 -26.666 2.5 -39.999s6.16699 -24.5 13.5 -33.5s19.333 -13.5 36 -13.5c21.333 0 43.666 9 66.999 27s46.666 41.333 69.999 70s45.833 59 67.5 91l60 91
c18.333 28.667 33.833 52 46.5 70s21.334 27 26.001 27c8 0 13.667 -3.83301 17 -11.5s5.5 -16.5 6.5 -26.5s1.5 -19 1.5 -27c0 -14.667 -0.333008 -29.334 -1 -44.001s-1.66699 -29 -3 -43c3.33301 2.66699 9.83301 7.33398 19.5 14.001s19.334 12.834 29.001 18.501
s16.5 8.5 20.5 8.5c3.33301 0 5 -1.33301 5 -4c0 -2 -3.5 -6.33301 -10.5 -13s-15.167 -14 -24.5 -22l-26.5 -22c-8.33301 -6.66699 -13.5 -11 -15.5 -13c-6 -52 -15.5 -104.833 -28.5 -158.5s-30 -105.834 -51 -156.501s-46.833 -97.667 -77.5 -141
c-6.66699 -9.33301 -16 -20.166 -28 -32.499s-24.833 -23 -38.5 -32s-26.834 -13.5 -39.501 -13.5zM274.005 -207.998c20.667 0 40.166 8.99805 58.499 26.998s35.5 41.5 51.5 70.5s30.333 61 43 96s23.834 69.833 33.501 104.5s17.5 66.167 23.5 94.5
s10.333 50.166 13 65.499c-26 -28 -48.333 -54 -67 -78s-35.5 -47.833 -50.5 -71.5s-29 -49.167 -42 -76.5s-26.5 -58.666 -40.5 -93.999l-14 -36.5c-5.33301 -14.333 -10 -28.666 -14 -42.999s-6 -27.166 -6 -38.499c0 -2.66699 0.666992 -6.66699 2 -12s4.33301 -8 9 -8z
" />
    <glyph glyph-name="H" unicode="H" horiz-adv-x="917" 
d="M224 -123c-2.66699 0 -5.50391 0.830078 -8.50391 2.49707s-4.5 3.83398 -4.5 6.50098c0 4 1.5 7 4.5 9s5.83301 3.33301 8.5 4c48 18.667 88.333 42.667 121 72s61.167 63 85.5 101s46.833 79 67.5 123c-2.66699 -1.33301 -9 -4.16602 -19 -8.49902l-32.5 -14.5
l-30.5 -14c-8.66699 -4 -13.667 -6 -15 -6c-4.66699 0 -8.33398 2.33301 -11.001 7s-4 9.33398 -4 14.001c0 6 5.5 12.333 16.5 19s24.333 13 40 19s30.334 11.333 44.001 16l29.5 10c40 100 60 204.667 60 314c0 27.333 -6.5 49.666 -19.5 66.999s-34.167 26 -63.5 26
c-30.667 0 -63.5 -7 -98.5 -21s-69.667 -33 -104 -57s-65.666 -51.333 -93.999 -82s-51 -62.5 -68 -95.5s-25.5 -65.167 -25.5 -96.5c0 -24.667 7.16699 -42.667 21.5 -54s33.166 -17 56.499 -17c29.333 0 57 3.83301 83 11.5s49.5 16.334 70.5 26.001
s38.167 18.334 51.5 26.001s22 11.5 26 11.5s6 -1.33301 6 -4c-0.666992 -1.33301 -1.5 -2.5 -2.5 -3.5l-3.5 -3.5c-30.667 -24.667 -66 -45.667 -106 -63s-80 -26 -120 -26c-21.333 0 -41.333 3 -60 9s-33.667 16 -45 30s-17 33 -17 57c0 34 9.66699 68.833 29 104.5
s45.166 70.167 77.499 103.5s67.666 63.333 105.999 90s77.166 47.834 116.499 63.501s75.333 23.5 108 23.5c39.333 0 67.166 -12 83.499 -36s24.5 -54 24.5 -90c0 -52 -5.16699 -103.5 -15.5 -154.5s-25.166 -100.5 -44.499 -148.5
c90.667 24.667 183.334 41.667 278.001 51c2.66699 9.33301 7.66699 25.666 15 48.999s16.333 49.333 27 78s22.334 56.5 35.001 83.5s25.5 49.167 38.5 66.5s25.167 26 36.5 26c4.66699 0 9.83398 -1 15.501 -3s8.83398 -6 9.50098 -12l-3 -8c-6 -10 -12.833 -20 -20.5 -30
s-14.834 -20 -21.501 -30c-20.667 -34 -39.334 -69.333 -56.001 -106s-31 -74 -43 -112h19c6 0 11.667 -0.333008 17 -1s8.33301 -2.33398 9 -5.00098c-3.33301 -4.66699 -11.166 -7.66699 -23.499 -9l-27.5 -3c-10 -33.333 -17.833 -67.333 -23.5 -102
s-8.5 -69.667 -8.5 -105c0 -14 1 -28.333 3 -43s6.66699 -27.5 14 -38.5s18.666 -19.167 33.999 -24.5c3.33301 -0.666992 7.33301 -2 12 -4s7.33398 -5.33301 8.00098 -10c-1.33301 -2.66699 -3.33301 -4.16699 -6 -4.5s-5.33398 -0.5 -8.00098 -0.5
c-21.333 0 -38 6.5 -50 19.5s-20.167 28.833 -24.5 47.5s-6.5 36.334 -6.5 53.001c0 35.333 2.33301 70.333 7 105s10.334 69.334 17.001 104.001c-49.333 -4.66699 -98.166 -13.167 -146.499 -25.5s-95.833 -27.5 -142.5 -45.5c-20.667 -45.333 -44.667 -90.333 -72 -135
s-59.666 -84.334 -96.999 -119.001s-81.666 -60.334 -132.999 -77.001c-1.33301 -0.666992 -3.66602 -1 -6.99902 -1z" />
    <glyph glyph-name="I" unicode="I" horiz-adv-x="499" 
d="M101 -95c-14.667 0 -25.9951 5.17383 -33.9951 15.5068s-12 22.5 -12 36.5c0 4.66699 1.5 12.5 4.5 23.5s7.83301 16.5 14.5 16.5c4 0 6.66699 -1.66699 8 -5s2 -7 2 -11c0 -4.66699 -0.333008 -9.33398 -1 -14.001s-1 -8.33398 -1 -11.001
c0 -6.66699 1.33301 -13.167 4 -19.5s8.33398 -9.5 17.001 -9.5c6.66699 0 12.334 1 17.001 3c46 14 87.667 38.667 125 74s70.166 77.166 98.499 125.499s52 99.333 71 153s33.333 106.667 43 159s14.5 99.5 14.5 141.5c0 23.333 -5.5 43.666 -16.5 60.999
s-29.167 26 -54.5 26c-26.667 0 -53.334 -7.16699 -80.001 -21.5s-52.167 -33.333 -76.5 -57s-46 -49.834 -65 -78.501s-34 -57.5 -45 -86.5s-16.5 -56.167 -16.5 -81.5c0 -14.667 3.33301 -28.167 10 -40.5s18.667 -18.5 36 -18.5c23.333 0 45.5 3 66.5 9s40 13 57 21
s31 15 42 21s17.833 9 20.5 9s4 -1 4 -3c-0.666992 -1.33301 -2.33398 -3.33301 -5.00098 -6c-24.667 -20 -52.834 -37 -84.501 -51s-63.834 -21 -96.501 -21c-26.667 0 -48.667 6.5 -66 19.5s-26 33.833 -26 62.5c0 27.333 7 57.166 21 89.499s32.833 64.5 56.5 96.5
s50.167 61.333 79.5 88s59.333 48 90 64s60 24 88 24c21.333 0 39 -6.66699 53 -20s24.5 -29.666 31.5 -48.999s10.5 -38.333 10.5 -57c0 -44.667 -5.5 -93.834 -16.5 -147.501s-27.167 -108.334 -48.5 -164.001s-47.333 -108.167 -78 -157.5s-65.834 -92 -105.501 -128
s-83.167 -61.333 -130.5 -76c-8.66699 -3.33301 -17.334 -5 -26.001 -5z" />
    <glyph glyph-name="J" unicode="J" horiz-adv-x="489" 
d="M84 -266c-16.667 0 -26.832 5.66992 -30.499 17.0029s-5.5 23.666 -5.5 36.999c0 30.667 8.16699 64 24.5 100s38 72.667 65 110s56.667 73 89 107s64.666 64.167 96.999 90.5s61.5 46.5 87.5 60.5c8.66699 35.333 15.334 70.666 20.001 105.999s7 70.666 7 105.999
c0 15.333 -0.5 35 -1.5 59s-4 47.833 -9 71.5s-13.167 43.5 -24.5 59.5s-27 24 -47 24h-9c-15.333 0 -31.5 -5 -48.5 -15s-33.667 -22.5 -50 -37.5s-31 -30.5 -44 -46.5s-23.167 -30 -30.5 -42c-16.667 -28.667 -30.834 -60.834 -42.501 -96.501s-17.5 -70.167 -17.5 -103.5
c0 -10.667 1.16699 -22.334 3.5 -35.001s7.16602 -23.667 14.499 -33s17.666 -14 30.999 -14c20.667 0 41.167 4.66699 61.5 14s39 20 56 32s31.5 22.667 43.5 32s19.667 14 23 14c1.33301 0 2 -1 2 -3c0 -0.666992 -0.666992 -2.33398 -2 -5.00098
c-12 -17.333 -29.333 -34 -52 -50s-46.667 -29.167 -72 -39.5s-48.666 -15.5 -69.999 -15.5c-28.667 0 -49.167 9.33301 -61.5 28s-18.5 41.334 -18.5 68.001c0 24.667 5.16699 53.667 15.5 87s24.833 67.333 43.5 102s39.834 67 63.501 97s49 54.167 76 72.5
s54.167 27.5 81.5 27.5s48.833 -8.33301 64.5 -25s27 -37.5 34 -62.5s11.5 -50.667 13.5 -77s3 -49.166 3 -68.499c0 -36.667 -2.16699 -73 -6.5 -109s-10.833 -71.667 -19.5 -107l12.5 6c5.66699 2.66699 9.83398 4 12.501 4s4 -1 4 -3
c0 -7.33301 -4.16699 -12.833 -12.5 -16.5s-15.166 -7.16699 -20.499 -10.5l-14 -51.5c-4.66699 -17.667 -10.334 -34.5 -17.001 -50.5c-7.33301 -17.333 -17.333 -39.5 -30 -66.5s-27.167 -56.167 -43.5 -87.5s-34.333 -62.333 -54 -93s-40.334 -58.667 -62.001 -84
s-43.667 -45.666 -66 -60.999s-44.833 -23 -67.5 -23zM97.002 -240.997c15.333 0 32.166 7.83105 50.499 23.498s37.5 36.334 57.5 62.001s39.5 53.834 58.5 84.501s36.833 61 53.5 91s30.667 57.167 42 81.5s19.333 43.166 24 56.499
c4.66699 12.667 8.83398 25.5 12.501 38.5l10.5 38.5c-21.333 -12.667 -46 -31.667 -74 -57s-56.667 -54.5 -86 -87.5s-56.5 -67.167 -81.5 -102.5s-45.167 -69.5 -60.5 -102.5s-23 -62.167 -23 -87.5c0 -5.33301 0.5 -13.166 1.5 -23.499s5.83301 -15.5 14.5 -15.5z" />
    <glyph glyph-name="K" unicode="K" horiz-adv-x="935" 
d="M243 -90c-38.667 0 -71.6689 7.8291 -99.002 23.4961s-49.5 36.667 -66.5 63s-29.5 55.666 -37.5 87.999s-12 65.5 -12 99.5c0 34.667 5.16699 71.334 15.5 110.001s25.666 74.834 45.999 108.501s46 61 77 82s66.833 31.5 107.5 31.5c41.333 0 70.833 -12.5 88.5 -37.5
s26.5 -56.5 26.5 -94.5c0 -4 -0.833008 -12.333 -2.5 -25s-4 -26.167 -7 -40.5s-6.83301 -26.666 -11.5 -36.999s-10.334 -15.5 -17.001 -15.5c-4 0 -6 2.66699 -6 8c0 2 2 7.16699 6 15.5s7.83301 18.666 11.5 30.999s5.5 24.833 5.5 37.5c0 17.333 -2.5 36.333 -7.5 57
s-13.667 38.334 -26 53.001s-29.5 22 -51.5 22c-36.667 0 -69.167 -10 -97.5 -30s-52.166 -45.833 -71.499 -77.5s-33.833 -65.5 -43.5 -101.5s-14.5 -69.667 -14.5 -101c0 -27.333 3 -55.833 9 -85.5s15.667 -57.334 29 -83.001s31.333 -46.5 54 -62.5s51 -24 85 -24
c40.667 0 77.334 10.667 110.001 32s61.667 48.833 87 82.5s47.5 69.167 66.5 106.5s34.833 72 47.5 104c-7.33301 5.33301 -14.666 12.833 -21.999 22.5s-11 19.167 -11 28.5c0 6.66699 2.33301 11.667 7 15s10 5 16 5c12 0 23 -4 33 -12l2 8
c8.66699 34.667 18.5 68.334 29.5 101.001s19.833 66.334 26.5 101.001c5.33301 23.333 9.5 48.333 12.5 75s8.16699 51 15.5 73c1.33301 4.66699 3.83301 7.83398 7.5 9.50098s7.5 2.5 11.5 2.5c9.33301 0 14.833 -2.66699 16.5 -8s2.5 -11.333 2.5 -18
c0 -26.667 -3.66699 -56 -11 -88s-16.666 -64.667 -27.999 -98l-34 -97.5c-11.333 -31.667 -21 -60.5 -29 -86.5l14 -22c8 -4 17 -6 27 -6c23.333 0 47.5 3.83301 72.5 11.5s48.833 18.167 71.5 31.5s42.334 28 59.001 44c44 42.667 77.5 87.167 100.5 133.5
s40.167 98.833 51.5 157.5c1.33301 6.66699 5 10 11 10c5.33301 0 10 -1.66699 14 -5s6 -7.66602 6 -12.999c0 -24.667 -5.16699 -51 -15.5 -79s-23.5 -56.167 -39.5 -84.5s-33.333 -54.5 -52 -78.5s-36.667 -44.333 -54 -61
c-30.667 -29.333 -66.834 -51.666 -108.501 -66.999s-83.5 -23 -125.5 -23c10 -18 23.333 -39 40 -63s35.5 -47.333 56.5 -70s43 -41.5 66 -56.5s45.833 -22.5 68.5 -22.5c18 0 32.833 3.16699 44.5 9.5s20.5 12.5 26.5 18.5s10 9 12 9c4.66699 0 7 -2.33301 7 -7
c0 -10.667 -6 -20.167 -18 -28.5s-25.5 -15 -40.5 -20s-27.167 -7.5 -36.5 -7.5c-26.667 0 -53.167 8.66699 -79.5 26s-51.333 39.166 -75 65.499s-45 53.166 -64 80.499l-48.5 71l-8 2c-14 -33.333 -31.167 -69 -51.5 -107s-44 -73.833 -71 -107.5
s-57.667 -61.167 -92 -82.5s-72.5 -32 -114.5 -32z" />
    <glyph glyph-name="L" unicode="L" horiz-adv-x="567" 
d="M22 -116c-20.667 0 -31 10.001 -31 30.001c0 6.66699 4 14.667 12 24s16.667 18.166 26 26.499s16.333 14.166 21 17.499c3.33301 8.66699 5.83301 16.667 7.5 24s3.16699 15.333 4.5 24c4.66699 29.333 13 59.166 25 89.499s24 58.833 36 85.5
c-16.667 8.66699 -30.167 20.167 -40.5 34.5s-15.5 31.166 -15.5 50.499c0 4.66699 1 12.5 3 23.5s5.33301 16.5 10 16.5c6 0 9 -5 9 -15v-21c0 -14 4.5 -26.667 13.5 -38s19.167 -20 30.5 -26c34.667 75.333 76.334 147.666 125.001 216.999s101.667 133.666 159 192.999
c22 23.333 45.333 42.666 70 57.999s53.334 23 86.001 23c23.333 0 41.833 -7.5 55.5 -22.5s20.5 -33.833 20.5 -56.5c0 -8.66699 -1 -17 -3 -25c-13.333 -55.333 -33.5 -106.833 -60.5 -154.5s-61.167 -91.167 -102.5 -130.5c-24 -22.667 -51.833 -45.167 -83.5 -67.5
s-65 -40.833 -100 -55.5s-69.833 -22 -104.5 -22c-7.33301 0 -14.666 0.5 -21.999 1.5s-14.333 2.83301 -21 5.5c-13.333 -31.333 -25.666 -62.666 -36.999 -93.999s-20.333 -64 -27 -98c51.333 31.333 107 54 167 68s120 21 180 21c16 0 34.333 -2.83301 55 -8.5
s38.5 -14.5 53.5 -26.5s22.5 -28.333 22.5 -49c0 -1.33301 -0.5 -5.66602 -1.5 -12.999s-2.5 -11.666 -4.5 -12.999c-5.33301 6.66699 -9 13 -11 19c-9.33301 24 -24 39.167 -44 45.5s-42 9.5 -66 9.5c-52.667 0 -107.834 -5.16699 -165.501 -15.5
s-109.834 -29.166 -156.501 -56.499c-4.66699 -2.66699 -9.5 -5.16699 -14.5 -7.5s-10.167 -4.5 -15.5 -6.5c-2 -11.333 -5.33301 -23.666 -10 -36.999s-11.334 -24.666 -20.001 -33.999s-20.334 -14 -35.001 -14zM193 213.001c31.333 0 63.5 7.83301 96.5 23.5
s64.5 34.5 94.5 56.5s55.667 43 77 63c39.333 37.333 71.666 78.333 96.999 123s44.333 93.334 57 146.001c0.666992 2 1 4 1 6v6c0 11.333 -2.5 23.833 -7.5 37.5s-14.833 20.5 -29.5 20.5c-22.667 0 -47.5 -9 -74.5 -27s-54.667 -41.833 -83 -71.5
s-56 -62.334 -83 -98.001s-52.167 -71.5 -75.5 -107.5s-43.666 -69.167 -60.999 -99.5s-30.333 -54.833 -39 -73.5c3.33301 -2 8.33301 -3.33301 15 -4s11.667 -1 15 -1z" />
    <glyph glyph-name="M" unicode="M" horiz-adv-x="1135" 
d="M1142 -49c-22 0 -39.8281 7.50098 -53.4951 22.501s-24.5 34.5 -32.5 58.5s-13.833 49.333 -17.5 76s-5.83398 52 -6.50098 76s-1 43.333 -1 58c0 42.667 1.5 85.5 4.5 128.5s8.16699 85.5 15.5 127.5c-14.667 -25.333 -27.667 -53.166 -39 -83.499
s-22.166 -61 -32.499 -92s-22.166 -60.167 -35.499 -87.5c-4 -8 -10.5 -20 -19.5 -36s-19.167 -32.5 -30.5 -49.5s-23 -31.333 -35 -43s-22.667 -17.5 -32 -17.5c-27.333 0 -49.333 9 -66 27s-29.334 40.667 -38.001 68s-14.5 55.166 -17.5 83.499s-4.5 52.5 -4.5 72.5
c0 29.333 1.5 58.666 4.5 87.999s4.5 58.333 4.5 87c0 14.667 -1.33301 29 -4 43s-4 27.667 -4 41c0 14 6.33301 21 19 21c12 0 20.167 -5.33301 24.5 -16s6.66602 -22.5 6.99902 -35.5s0.5 -23.833 0.5 -32.5c0 -34.667 -2.33301 -69.334 -7 -104.001s-7 -69.667 -7 -105
c0 -13.333 1 -31.5 3 -54.5s5.83301 -46.167 11.5 -69.5s14 -43.166 25 -59.499s25.5 -24.5 43.5 -24.5c8 0 17.333 5.33301 28 16s21.334 23.5 32.001 38.5s20.167 29.5 28.5 43.5s14.166 24.667 17.499 32c23.333 50 45.166 100.667 65.499 152s38.833 103.333 55.5 156
c6.66699 19.333 12.167 39.333 16.5 60s9.83301 40.334 16.5 59.001c3.33301 10.667 10 16 20 16c8.66699 0 15.5 -2.83301 20.5 -8.5s7.5 -12.5 7.5 -20.5c0 -10.667 -2.16699 -24.834 -6.5 -42.501l-13.5 -52.5c-4.66699 -17.333 -8.33398 -32 -11.001 -44
c-10.667 -49.333 -19.167 -99 -25.5 -149s-9.5 -100.333 -9.5 -151c0 -10.667 0.5 -25.667 1.5 -45s2.83301 -40.333 5.5 -63s7.16699 -44.334 13.5 -65.001s14.5 -37.5 24.5 -50.5s22.667 -19.5 38 -19.5c12 0 21.333 4.33301 28 13s12.167 17.334 16.5 26.001
s9.16602 13 14.499 13c4 0 6 -2.33301 6 -7c0 -10 -3.66699 -20.833 -11 -32.5s-16.333 -21.667 -27 -30s-21.334 -12.5 -32.001 -12.5zM253.005 -102.999c-42 0 -76.998 9.49902 -104.998 28.499s-50.333 43.833 -67 74.5s-28.667 64 -36 100s-11 71.333 -11 106
c0 27.333 3 57.5 9 90.5s15.167 65.833 27.5 98.5s28.166 62.667 47.499 90s42.166 49.166 68.499 65.499s56.5 24.5 90.5 24.5c24 0 44.167 -6.16699 60.5 -18.5s29.666 -28.166 39.999 -47.499s17.666 -40 21.999 -62s6.5 -42.667 6.5 -62c0 -6 -1 -16.5 -3 -31.5
s-5 -31 -9 -48s-9 -31.5 -15 -43.5s-13 -18 -21 -18c-2 0 -3.5 1 -4.5 3s-1.5 3.66699 -1.5 5c0 2 2.66699 8.66699 8 20s10.5 25.666 15.5 42.999s7.5 35.333 7.5 54c0 14 -1.5 30.667 -4.5 50s-8.16699 38.5 -15.5 57.5s-17.166 34.667 -29.499 47
s-27.833 18.5 -46.5 18.5c-30.667 0 -58.167 -7.66699 -82.5 -23s-45.5 -35.666 -63.5 -60.999s-32.833 -53 -44.5 -83s-20.5 -60.167 -26.5 -90.5s-9 -58.166 -9 -83.499c0 -27.333 2.66699 -57.333 8 -90s14.5 -63.667 27.5 -93s31.167 -53.333 54.5 -72
s52.666 -28 87.999 -28c32.667 0 63.667 7.33301 93 22s56.833 34.167 82.5 58.5s49 51.166 70 80.499s39.5 59.333 55.5 90s29 59.334 39 86.001l73 191l14 37c1.33301 3.33301 1.83301 6.66602 1.5 9.99902s0.833984 5 3.50098 5c4 0 7 -1.66699 9 -5
s3 -6.66602 3 -9.99902l-23 -65l-27.5 -84.5c-9 -28.333 -18.5 -56.5 -28.5 -84.5c-10 -27.333 -23.167 -56.833 -39.5 -88.5s-35.5 -63 -57.5 -94s-46.333 -59.333 -73 -85s-55.167 -46.167 -85.5 -61.5s-62.166 -23 -95.499 -23z" />
    <glyph glyph-name="N" unicode="N" horiz-adv-x="902" 
d="M835 -63c-20.667 0 -37.0029 6.00195 -49.0029 18.002s-21 27.167 -27 45.5s-9.83301 37.333 -11.5 57s-2.5 37.167 -2.5 52.5c0 63.333 6 125.666 18 186.999l37 184c1.33301 6.66699 2.5 13.167 3.5 19.5s1.5 12.833 1.5 19.5c0 8 -1.5 16 -4.5 24
s-9.83301 12 -20.5 12c-17.333 0 -36.833 -7.5 -58.5 -22.5s-44.167 -34.833 -67.5 -59.5s-46.333 -51.834 -69 -81.501s-44 -59.5 -64 -89.5s-37.5 -57.5 -52.5 -82.5s-26.167 -45.167 -33.5 -60.5c-14 -28.667 -25.5 -57.834 -34.5 -87.501l-26.5 -91.5
c-2 -6.66699 -4.66699 -14 -8 -22s-9.66602 -12 -18.999 -12c-8.66699 0 -14.167 3.83301 -16.5 11.5s-3.5 14.834 -3.5 21.501c0 16.667 2.66699 37.834 8 63.501s12.5 53.667 21.5 84l28 91.5l28 86c9 26.667 16.167 49.334 21.5 68.001l27 91
c10 33.333 18.833 66.833 26.5 100.5s11.5 64.167 11.5 91.5c0 17.333 -3.16699 34 -9.5 50s-20.166 24 -41.499 24c-31.333 0 -64.333 -8 -99 -24s-68.334 -37.667 -101.001 -65s-62.334 -57.5 -89.001 -90.5s-48 -66.833 -64 -101.5s-24 -67.667 -24 -99
c0 -45.333 11.333 -81.833 34 -109.5s57.667 -41.5 105 -41.5c19.333 0 37.333 4.83301 54 14.5s34 15.834 52 18.501l8 -7c-1.33301 -4.66699 -6.66602 -9.5 -15.999 -14.5s-20.166 -9.66699 -32.499 -14s-24 -8 -35 -11s-18.833 -4.5 -23.5 -4.5
c-58.667 0 -102.834 14.167 -132.501 42.5s-44.5 72.166 -44.5 131.499c0 36.667 8.33301 73.667 25 111s39.167 72.833 67.5 106.5s60.166 64 95.499 91s72.166 48.167 110.499 63.5s75.5 23 111.5 23c22 0 39 -5.16699 51 -15.5s20.333 -23.833 25 -40.5
s7 -34.334 7 -53.001c0 -32 -4.33301 -67 -13 -105s-19.667 -76.833 -33 -116.5l-40.5 -116c-13.667 -37.667 -25.5 -72.167 -35.5 -103.5c6.66699 16 18.334 36.667 35.001 62s36.834 53 60.501 83s49 60 76 90s54 57.5 81 82.5s52.5 45 76.5 60s44.667 22.5 62 22.5
c13.333 0 25.333 -4.16699 36 -12.5s16 -19.833 16 -34.5c0 -14 -2 -27.667 -6 -41s-7.66699 -26.666 -11 -39.999c-15.333 -61.333 -28.5 -124.166 -39.5 -188.499s-16.5 -128.5 -16.5 -192.5c0 -8.66699 0.333008 -19.834 1 -33.501s2.5 -27.5 5.5 -41.5s8 -25.667 15 -35
s16.833 -14 29.5 -14c15.333 0 29.333 4.5 42 13.5s24.167 18.333 34.5 28s18.833 15.167 25.5 16.5l5 -5c-0.666992 -6.66699 -5.16699 -14.834 -13.5 -24.501s-18.166 -18.834 -29.499 -27.501s-22.666 -16 -33.999 -22s-20.333 -9 -27 -9z" />
    <glyph glyph-name="O" unicode="O" horiz-adv-x="624" 
d="M321 -16c-26 0 -50.5 7.33008 -73.5 21.9971s-41.833 33.334 -56.5 56.001s-22 46 -22 70v1c-40.667 12.667 -69 34.667 -85 66s-24 67 -24 107c0 38 6.66699 76.833 20 116.5s32 77.334 56 113.001s51.833 67.834 83.5 96.501s66.334 51.167 104.001 67.5
s76.5 24.5 116.5 24.5c47.333 0 85.333 -9.66699 114 -29s49.5 -46 62.5 -80s19.5 -72.667 19.5 -116c0 -30.667 -3.33301 -64.5 -10 -101.5s-16.167 -74.5 -28.5 -112.5s-27 -73.833 -44 -107.5s-35.833 -62.167 -56.5 -85.5c-13.333 -15.333 -29.5 -31.5 -48.5 -48.5
s-39.333 -31.167 -61 -42.5s-43.834 -17 -66.501 -17zM318 14.9971c19.333 0 38.6641 4.99805 57.9971 14.998s37.333 22.5 54 37.5s30.667 29.167 42 42.5c20 23.333 38.333 50.833 55 82.5s31 65.167 43 100.5s21.333 70.5 28 105.5s10 67.833 10 98.5
c0 36 -5.16699 69.167 -15.5 99.5s-27.166 54.833 -50.499 73.5s-55.333 28 -96 28c-37.333 0 -73.666 -8 -108.999 -24s-68.166 -37.5 -98.499 -64.5s-56.833 -57.667 -79.5 -92s-40.334 -70.166 -53.001 -107.499s-19 -73.666 -19 -108.999c0 -30.667 6 -59 18 -85
s32.667 -45.667 62 -59c0 7.33301 -0.166992 14.666 -0.5 21.999s-0.5 14.333 -0.5 21c0 28 1.83301 59.667 5.5 95s9.5 71.166 17.5 107.499s19.167 70.333 33.5 102s31.833 57.834 52.5 78.501c3.33301 3.33301 7.33301 5 12 5c4 0 7.66699 -1.33301 11 -4
s5 -6.33398 5 -11.001l-3 -8c-19.333 -20.667 -35.5 -45.667 -48.5 -75s-23.333 -60.666 -31 -93.999s-13.167 -66.333 -16.5 -99s-5 -62.667 -5 -90c0 -9.33301 0.166992 -19 0.5 -29s0.833008 -19.667 1.5 -29l11 -1c15.333 -1.33301 31.833 0.5 49.5 5.5
s33.334 10.167 47.001 15.5s22.167 8 25.5 8c4 0 6 -1.66699 6 -5c-2 -6.66699 -9 -13 -21 -19s-25.667 -11.167 -41 -15.5s-30 -7.5 -44 -9.5s-24.333 -2.66699 -31 -2c3.33301 -17.333 10.5 -34.666 21.5 -51.999s24.667 -31.5 41 -42.5s33.833 -16.5 52.5 -16.5z" />
    <glyph glyph-name="P" unicode="P" horiz-adv-x="542" 
d="M164 249c-1.33301 0 -3.33105 0.168945 -5.99805 0.501953s-4 1.83301 -4 4.5c0 5.33301 3.16699 9.16602 9.5 11.499s11.166 3.83301 14.499 4.5c53.333 10 104 24.667 152 44s94.333 44.333 139 75c13.333 8.66699 27 19.667 41 33s25.833 28.166 35.5 44.499
s14.5 32.833 14.5 49.5c0 29.333 -9.16699 53.333 -27.5 72s-41.166 33 -68.499 43s-55.5 16.833 -84.5 20.5s-54.5 5.5 -76.5 5.5c-20.667 0 -46 -1.5 -76 -4.5s-60.833 -8.16699 -92.5 -15.5s-60.334 -17.5 -86.001 -30.5s-44.5 -29.167 -56.5 -48.5
c-0.666992 -2 -1.83398 -4.16699 -3.50098 -6.5s-4.16699 -3.5 -7.5 -3.5c-2 0 -3.5 1 -4.5 3s-1.5 3.66699 -1.5 5s0.333008 3 1 5s1.33398 3.66699 2.00098 5c11.333 23.333 29.833 42.833 55.5 58.5s54.667 28 87 37s64.166 15.5 95.499 19.5s58.333 6 81 6
c20.667 0 44 -1.66699 70 -5s52 -8.83301 78 -16.5s50 -18.167 72 -31.5s39.667 -29.833 53 -49.5s20 -43.167 20 -70.5c0 -29.333 -10.667 -57.333 -32 -84s-49 -51 -83 -73s-70.333 -41 -109 -57s-76 -28.5 -112 -37.5s-66 -13.5 -90 -13.5zM177.002 -10.998
c-26.667 0 -46.3359 7 -59.0029 21s-20.667 31.5 -24 52.5s-5 42.167 -5 63.5c0 72.667 13.167 141.667 39.5 207s56.833 128.666 91.5 189.999c1.33301 2.66699 2 5 2 7c0 3.33301 -0.166992 5.33301 -0.5 6s-0.833008 1 -1.5 1c-5.33301 0 -6.5 2.33301 -3.5 7
s7.83301 10.167 14.5 16.5s13.334 11.833 20.001 16.5s11.334 7 14.001 7c5.33301 0 10.666 -1.83301 15.999 -5.5s8 -8.5 8 -14.5c0 -2.66699 -5.66699 -13 -17 -31l-42.5 -71c-17 -29.333 -34 -62.5 -51 -99.5s-31.167 -76 -42.5 -117s-17 -81.833 -17 -122.5
c0 -10.667 1.16699 -24.667 3.5 -42s6.83301 -33.166 13.5 -47.499s17 -22.833 31 -25.5c3.33301 -0.666992 8.33301 -2 15 -4s10.334 -5.33301 11.001 -10c-1.33301 -2.66699 -3.66602 -4.16699 -6.99902 -4.5s-6.33301 -0.5 -9 -0.5z" />
    <glyph glyph-name="Q" unicode="Q" horiz-adv-x="599" 
d="M736 -161c-28.667 0 -58.667 5.83008 -90 17.4971s-62.666 26.5 -93.999 44.5l-91.5 54.5c-29.667 18.333 -57.5 33.833 -83.5 46.5c-19.333 -12 -39.666 -18 -60.999 -18c-20.667 0 -40 6 -58 18s-33.333 25.667 -46 41c-20 -2 -37.167 -7.33301 -51.5 -16
s-21.5 -24 -21.5 -46c0 -2.66699 -0.333008 -6.33398 -1 -11.001s-3.66699 -7 -9 -7c-4.66699 1.33301 -7.5 4.33301 -8.5 9s-1.5 9.33398 -1.5 14.001c0 21.333 7.33301 40 22 56s31.667 27.333 51 34c-8.66699 17.333 -14.167 33.333 -16.5 48s-3.5 31.334 -3.5 50.001
c0 32 3.83301 66 11.5 102s18.5 72 32.5 108s30.333 69.833 49 101.5s39.334 58.834 62.001 81.501c3.33301 3.33301 7.33301 5 12 5s9 -1.33301 13 -4s6.33301 -6.66699 7 -12l-3 -7c-6.66699 -10.667 -14.334 -21 -23.001 -31s-16.667 -20.667 -24 -32
c-30 -46 -55.167 -96.333 -75.5 -151s-30.5 -109.667 -30.5 -165c0 -16.667 1.16699 -31.5 3.5 -44.5s6.83301 -27.167 13.5 -42.5c3.33301 0.666992 6.83301 1 10.5 1h10.5c27.333 0 52.166 -4.16699 74.499 -12.5s44.833 -18.833 67.5 -31.5
c46 33.333 83.167 74 111.5 122s49.166 99.833 62.499 155.5s20 110.5 20 164.5c0 20.667 -1.83301 43.5 -5.5 68.5s-10.334 49 -20.001 72s-23 42 -40 57s-38.833 22.5 -65.5 22.5c-50 0 -96.5 -11.667 -139.5 -35s-80.333 -54.333 -112 -93s-56.5 -81.334 -74.5 -128.001
s-27 -93.667 -27 -141c0 -5.33301 0.166992 -11 0.5 -17s0.833008 -11.667 1.5 -17c2.66699 -22 6.5 -39.5 11.5 -52.5s19.167 -21.167 42.5 -24.5c3.33301 -0.666992 7.33301 -1.33398 12 -2.00098s7 -3.66699 7 -9s-2.83301 -8.66602 -8.5 -9.99902s-10.167 -2 -13.5 -2
c-23.333 0 -41.333 7.5 -54 22.5s-21.167 33 -25.5 54s-6.5 40.5 -6.5 58.5c0 38 6.16699 76.667 18.5 116s29.833 77 52.5 113s49.167 68.167 79.5 96.5s63.833 50.833 100.5 67.5s75 25 115 25c33.333 0 61.5 -7.5 84.5 -22.5s41.667 -34.833 56 -59.5
s24.833 -51.5 31.5 -80.5s10 -57.5 10 -85.5c0 -54.667 -7.16699 -110.167 -21.5 -166.5s-36 -109.166 -65 -158.499s-65.833 -91.666 -110.5 -126.999c23.333 -14 48.833 -30.167 76.5 -48.5s56.5 -36.5 86.5 -54.5s60 -32.833 90 -44.5s58.333 -17.5 85 -17.5
c19.333 0 34.833 3 46.5 9s21.167 13.167 28.5 21.5s13.333 15.5 18 21.5s9.33398 9 14.001 9s7 -2.66699 7 -8c0 -10 -4.66699 -19.333 -14 -28s-21 -16.5 -35 -23.5s-28 -12.333 -42 -16s-26 -5.5 -36 -5.5zM313 14.9971c4.66699 0 9.16699 0.5 13.5 1.5
s8.83301 1.83301 13.5 2.5c-13.333 6 -28 11.5 -44 16.5s-31.667 7.5 -47 7.5c8.66699 -8 18.5 -14.667 29.5 -20s22.5 -8 34.5 -8z" />
    <glyph glyph-name="R" unicode="R" horiz-adv-x="530" 
d="M518 -22c-22.667 0 -44.998 6.5 -66.998 19.5s-43.333 30 -64 51s-40.334 43.5 -59.001 67.5l-52.5 70c-16.333 22.667 -31.166 41.667 -44.499 57c-4.66699 2 -11 4.5 -19 7.5s-13.667 6.16699 -17 9.5c-6 4 -12.5 10.5 -19.5 19.5s-10.5 17.167 -10.5 24.5
s3.66699 12.166 11 14.499s13.666 3.5 18.999 3.5c12.667 0 24.167 -3.83301 34.5 -11.5s18.5 -16.167 24.5 -25.5c16 4 36 11.5 60 22.5s49.167 24.5 75.5 40.5s50.833 33.5 73.5 52.5s41.167 38.333 55.5 58s21.5 38.834 21.5 57.501c0 23.333 -6.5 43.333 -19.5 60
s-29.833 30.5 -50.5 41.5s-43.167 19.5 -67.5 25.5s-48.166 10.167 -71.499 12.5s-43.666 3.5 -60.999 3.5c-18 0 -41.5 -2.16699 -70.5 -6.5s-59.167 -10.666 -90.5 -18.999s-59.5 -18.833 -84.5 -31.5s-42.5 -27.334 -52.5 -44.001
c-0.666992 -2 -1.83398 -4.16699 -3.50098 -6.5s-4.16699 -3.5 -7.5 -3.5c-2 0 -3.5 1 -4.5 3s-1.5 3.66699 -1.5 5s0.333008 3 1 5s1.33398 3.66699 2.00098 5c7.33301 15.333 20.166 29.333 38.499 42s39.666 24 63.999 34s49.5 18.667 75.5 26s50.5 12.833 73.5 16.5
s42.167 5.5 57.5 5.5c20.667 0 44.167 -1.83301 70.5 -5.5s53.166 -9.5 80.499 -17.5s52.5 -18.833 75.5 -32.5s41.5 -30.334 55.5 -50.001s21 -43.167 21 -70.5c0 -24.667 -7.33301 -48.167 -22 -70.5s-33.667 -42.833 -57 -61.5s-48.833 -35.5 -76.5 -50.5
s-54.834 -27.5 -81.501 -37.5s-50.334 -17.333 -71.001 -22l35 -56.5c14 -22.333 29.333 -45.5 46 -69.5s34.5 -46.5 53.5 -67.5s38.5 -38 58.5 -51s40 -19.5 60 -19.5c18.667 0 33.834 3.33301 45.501 10s20.834 13.334 27.501 20.001s10.667 10 12 10
c5.33301 0 8 -2.66699 8 -8c0 -9.33301 -5.83301 -18.833 -17.5 -28.5s-24.5 -17.667 -38.5 -24s-25.333 -9.5 -34 -9.5zM157.002 -11c-26.667 0 -46.3359 7 -59.0029 21s-20.667 31.5 -24 52.5s-5 42.167 -5 63.5c0 72.667 13.167 141.667 39.5 207
s56.833 128.666 91.5 189.999c1.33301 2.66699 2 5 2 7c0 3.33301 -0.166992 5.33301 -0.5 6s-0.833008 1 -1.5 1c-5.33301 0 -6.5 2.33301 -3.5 7s7.83301 10.167 14.5 16.5s13.334 11.833 20.001 16.5s11.334 7 14.001 7c5.33301 0 10.666 -1.83301 15.999 -5.5
s8 -8.5 8 -14.5c0 -2.66699 -5.66699 -13 -17 -31l-42.5 -71c-17 -29.333 -34 -62.5 -51 -99.5s-31.167 -76 -42.5 -117s-17 -81.833 -17 -122.5c0 -10.667 1.16699 -24.667 3.5 -42s6.83301 -33.166 13.5 -47.499s17 -22.833 31 -25.5c3.33301 -0.666992 8.33301 -2 15 -4
s10.334 -5.33301 11.001 -10c-1.33301 -2.66699 -3.66602 -4.16699 -6.99902 -4.5s-6.33301 -0.5 -9 -0.5z" />
    <glyph glyph-name="S" unicode="S" horiz-adv-x="595" 
d="M153 -57c-20.667 0 -37.8379 5.8291 -51.5049 17.4961s-20.5 28.167 -20.5 49.5c0 5.33301 1.5 13.5 4.5 24.5s7 21.333 12 31s10.5 14.5 16.5 14.5c4 0 6 -2.66699 6 -8c0 -6 -3.33301 -13.5 -10 -22.5s-10 -20.5 -10 -34.5c0 -12.667 3.66699 -22.334 11 -29.001
s17 -10 29 -10c30.667 0 64.5 6.66699 101.5 20s73.5 31 109.5 53s68.167 46.5 96.5 73.5s48.833 54.5 61.5 82.5c4.66699 9.33301 7 18 7 26c0 14.667 -6.33301 23.834 -19 27.501s-24.334 5.5 -35.001 5.5c-40.667 0 -83.334 -2.33301 -128.001 -7s-89.334 -7 -134.001 -7
c-20.667 0 -40.5 3 -59.5 9s-34.667 16 -47 30s-18.5 33 -18.5 57c0 29.333 9.33301 58.666 28 87.999s42.167 57 70.5 83s58 48.833 89 68.5s58.5 34.5 82.5 44.5c23.333 9.33301 46.5 17 69.5 23s46.833 9 71.5 9h14c24.667 0 49 -3.66699 73 -11s44 -19.5 60 -36.5
s24 -39.833 24 -68.5c0 -5.33301 -0.833008 -14.166 -2.5 -26.499s-4.5 -23.666 -8.5 -33.999s-9.66699 -15.5 -17 -15.5c-3.33301 0 -5 2 -5 6c0 8.66699 1.66699 17.334 5 26.001s5 17.334 5 26.001c0 24 -7 43.667 -21 59s-31.333 26.666 -52 33.999s-41.667 11 -63 11
c-26.667 0 -56.667 -5 -90 -15s-66.666 -24 -99.999 -42s-64.166 -39.167 -92.499 -63.5s-51.166 -50.5 -68.499 -78.5s-26 -57 -26 -87c0 -14.667 4.5 -27.167 13.5 -37.5s20.333 -18.166 34 -23.499s26.834 -8 39.501 -8c44.667 0 88.834 3.5 132.501 10.5
s87.167 10.5 130.5 10.5c12.667 0 25.334 -1.5 38.001 -4.5s23.167 -8.66699 31.5 -17s12.5 -20.166 12.5 -35.499c0 -28 -9.66699 -56.167 -29 -84.5s-44.333 -55.333 -75 -81s-64.167 -48.5 -100.5 -68.5s-71.666 -35.667 -105.999 -47s-64.166 -17 -89.499 -17z" />
    <glyph glyph-name="T" unicode="T" horiz-adv-x="454" 
d="M138 371c-26 0 -49.9961 6.99805 -71.9961 20.998s-39.667 32.5 -53 55.5s-20 47.167 -20 72.5c0 33.333 8.16699 63 24.5 89s37.666 48 63.999 66s55.166 31.667 86.499 41s61.666 14 90.999 14c34.667 0 68 -4.66699 100 -14s63 -21 93 -35s58.667 -28.167 86 -42.5
s53.333 -26.166 78 -35.499s47.667 -14 69 -14c28 0 47.667 8 59 24s17 36 17 60v3c0 3.33301 0.5 6.83301 1.5 10.5s3.5 5.5 7.5 5.5c6.66699 0 10.5 -4.33301 11.5 -13s1.5 -15.334 1.5 -20.001c0 -20 -5.33301 -36.5 -16 -49.5s-24.334 -22.667 -41.001 -29
s-34 -9.5 -52 -9.5c-26.667 0 -52.5 4.33301 -77.5 13s-50 19.334 -75 32.001l-76.5 37.5c-26 12.333 -53.667 22.833 -83 31.5s-61 13 -95 13c-24.667 0 -50.667 -4 -78 -12s-53 -19.667 -77 -35s-43.333 -34.166 -58 -56.499s-22 -47.833 -22 -76.5
c0 -20 5.33301 -39.667 16 -59s25 -35.333 43 -48s37.333 -19 58 -19c12.667 0 23.5 2.33301 32.5 7s16.333 9.16699 22 13.5s10.167 6.5 13.5 6.5c4 0 6 -2 6 -6c0 -8 -5.83301 -15.167 -17.5 -21.5s-24.167 -11.333 -37.5 -15s-23.333 -5.5 -30 -5.5zM344.004 -11.002
c-22.667 0 -40.334 5.49707 -53.001 16.4971s-21.5 25.167 -26.5 42.5s-7.5 35.666 -7.5 54.999c0 35.333 3.5 75.833 10.5 121.5s17.333 92.167 31 139.5s30.334 91.833 50.001 133.5s41.834 75.5 66.501 101.5c4.66699 5.33301 11 8 19 8c4.66699 0 10 -1.16699 16 -3.5
s9.33301 -6.16602 10 -11.499l-3 -8c-8 -12.667 -16.667 -24.667 -26 -36s-18 -23.666 -26 -36.999c-34.667 -58 -63.167 -121.5 -85.5 -190.5s-33.5 -137.833 -33.5 -206.5c0 -13.333 0.666992 -27.166 2 -41.499s5.33301 -27.166 12 -38.499s17.667 -19.333 33 -24
c3.33301 -0.666992 7.16602 -2 11.499 -4s6.5 -5.33301 6.5 -10s-2.33301 -7 -7 -7z" />
    <glyph glyph-name="U" unicode="U" horiz-adv-x="750" 
d="M670 -70c-16.667 0 -30.1738 7 -40.5068 21s-18 31.167 -23 51.5s-8.33301 40.5 -10 60.5s-2.5 35.667 -2.5 47c0 35.333 1.66699 70.833 5 106.5s7.66602 70.834 12.999 105.501c-21.333 -43.333 -45.166 -85.333 -71.499 -126s-54.5 -80.334 -84.5 -119.001
c-5.33301 -6.66699 -13.833 -16 -25.5 -28s-24.5 -24 -38.5 -36s-27.667 -22.167 -41 -30.5s-24.666 -12.5 -33.999 -12.5c-27.333 0 -48.666 8.5 -63.999 25.5s-26 37.667 -32 62s-9 47.5 -9 69.5c0 36 4.5 71.167 13.5 105.5s20.167 68 33.5 101l40 99.5
c13.333 33.333 24.5 67 33.5 101s13.5 69 13.5 105c0 8.66699 -1.5 19 -4.5 31s-10.5 18 -22.5 18c-24.667 0 -50.667 -8 -78 -24s-54.166 -37.167 -80.499 -63.5s-50.166 -55 -71.499 -86s-38.333 -61.333 -51 -91s-19 -56.167 -19 -79.5
c0 -20.667 5.5 -37.834 16.5 -51.501s27.833 -20.5 50.5 -20.5c3.33301 0 7.83301 -0.666992 13.5 -2s8.83398 -4.33301 9.50098 -9c-2 -4 -5.66699 -6 -11 -6h-13c-26.667 0 -49.167 10 -67.5 30s-27.5 43 -27.5 69c0 24.667 7 53 21 85s32.667 64.5 56 97.5
s49.333 63.5 78 91.5s57.834 50.5 87.501 67.5s57.834 25.5 84.501 25.5c27.333 0 46.5 -8.5 57.5 -25.5s16.5 -37.833 16.5 -62.5c0 -32 -4.83301 -64.5 -14.5 -97.5s-21.667 -66.5 -36 -100.5l-43.5 -103c-14.667 -34.667 -26.834 -69.334 -36.501 -104.001
s-14.5 -69.667 -14.5 -105c0 -15.333 1.33301 -32.666 4 -51.999s8.83398 -36 18.501 -50s24.5 -21 44.5 -21c19.333 0 39.833 8.33301 61.5 25s43.167 38 64.5 64s41.5 53.833 60.5 83.5s35.833 57.667 50.5 84s25.667 47.5 33 63.5c6.66699 14.667 15 28.667 25 42
s17.667 27 23 41c4 10.667 7 22.667 9 36s4.33301 25.666 7 36.999c3.33301 13.333 8.16602 30.166 14.499 50.499s13.5 41.333 21.5 63s16.667 41.834 26 60.501s18.666 32.334 27.999 41.001c6.66699 6.66699 14.667 10 24 10s15.5 -2.16699 18.5 -6.5
s4.5 -11.166 4.5 -20.499c0 -22 -4.33301 -44.833 -13 -68.5s-19.167 -47.5 -31.5 -71.5l-37 -70c-12.333 -22.667 -22.166 -44 -29.499 -64c-2.66699 -8 -6 -21.667 -10 -41s-7.83301 -41.666 -11.5 -66.999l-10.5 -76c-3.33301 -25.333 -6 -48 -8 -68s-3 -34.667 -3 -44
c0 -6.66699 0.5 -17.834 1.5 -33.501s3 -32 6 -49s7.66699 -31.5 14 -43.5s14.5 -18 24.5 -18s19.333 3.83301 28 11.5s16.334 15.167 23.001 22.5s12.334 11 17.001 11s7 -2.66699 7 -8c0 -7.33301 -5.33301 -16.333 -16 -27s-22.334 -20 -35.001 -28s-22.667 -12 -30 -12z
" />
    <glyph glyph-name="V" unicode="V" horiz-adv-x="576" 
d="M391 -78c-8.66699 0 -14.1699 4 -16.5029 12s-3.5 15.333 -3.5 22c0 8.66699 1.66699 20.334 5 35.001s7.66602 30.334 12.999 47.001l15.5 47c5 14.667 9.16699 26.334 12.5 35.001c0 26.667 -0.333008 53 -1 79s-1 52.333 -1 79c0 16 -1.16699 37 -3.5 63
s-6.16602 54.167 -11.499 84.5s-12.333 60.5 -21 90.5s-19.334 57.5 -32.001 82.5s-27.667 45.167 -45 60.5s-37 23 -59 23c-26 0 -50.167 -7.16699 -72.5 -21.5s-42.166 -33.333 -59.499 -57s-32.166 -49.5 -44.499 -77.5s-21.666 -55.833 -27.999 -83.5
s-9.5 -52.5 -9.5 -74.5c0 -14.667 2.16699 -30 6.5 -46s11.666 -29.5 21.999 -40.5s24.5 -16.5 42.5 -16.5c16 0 30.833 4 44.5 12s26.167 17.167 37.5 27.5s21 19.5 29 27.5s13.667 12 17 12c0.666992 -0.666992 1 -2.33398 1 -5.00098c0 -8.66699 -5 -18.5 -15 -29.5
s-22.333 -21.667 -37 -32s-29 -18.666 -43 -24.999s-25.333 -9.5 -34 -9.5c-24 0 -43.333 6.16699 -58 18.5s-25.5 28.166 -32.5 47.499s-10.5 39.666 -10.5 60.999c0 25.333 3.83301 53 11.5 83s18.834 60.167 33.501 90.5s32 58 52 83s42.667 45.167 68 60.5
s52.666 23 81.999 23c32 0 59.333 -9.5 82 -28.5s41.334 -44.333 56.001 -76s26.167 -66.667 34.5 -105s14.5 -77 18.5 -116s6.5 -75.333 7.5 -109s1.5 -61.5 1.5 -83.5c10.667 24.667 24.334 53.5 41.001 86.5s35.667 67.833 57 104.5s44.666 72.5 69.999 107.5
s51.833 66.833 79.5 95.5s55.834 51.5 84.501 68.5s57.334 25.5 86.001 25.5c12 0 20.833 -3.83301 26.5 -11.5s8.5 -17.167 8.5 -28.5c0 -3.33301 -0.833008 -9.33301 -2.5 -18s-4 -16.5 -7 -23.5s-6.83301 -10.5 -11.5 -10.5c-2.66699 0 -4.66699 1.16699 -6 3.5
s-2 4.83301 -2 7.5c0 5.33301 1.33301 10.333 4 15s4 9.66699 4 15c0 4 -1.5 6.66699 -4.5 8s-6.16699 2 -9.5 2c-29.333 0 -58.666 -9.33301 -87.999 -28s-57.166 -42.167 -83.499 -70.5s-50.166 -57.5 -71.499 -87.5s-39 -56.667 -53 -80
c-9.33301 -14.667 -20.333 -33.834 -33 -57.501s-25.334 -48.667 -38.001 -75s-23.834 -51.833 -33.501 -76.5s-15.834 -45.667 -18.501 -63c-2.66699 -18 -4.16699 -36.333 -4.5 -55s-1.83301 -37 -4.5 -55c-0.666992 -6.66699 -2.83398 -15.5 -6.50098 -26.5
s-8.5 -20.833 -14.5 -29.5s-14 -13 -24 -13z" />
    <glyph glyph-name="W" unicode="W" horiz-adv-x="1005" 
d="M435 -98c-8.66699 0 -13.999 3.49902 -15.999 10.499s-3 13.5 -3 19.5c0 20 5 43.833 15 71.5s21.833 54.834 35.5 81.501l34.5 68c3.33301 30 5.83301 59.833 7.5 89.5s2.5 59.834 2.5 90.501c0 20 -0.5 45.667 -1.5 77s-3.5 64.666 -7.5 99.999s-10.5 68.5 -19.5 99.5
s-21.667 56.333 -38 76s-37.166 29.5 -62.499 29.5c-24 0 -46.667 -7.33301 -68 -22s-40.666 -29.667 -57.999 -45c-28.667 -26.667 -54.834 -57.667 -78.501 -93s-42.334 -72.833 -56.001 -112.5s-20.5 -79.5 -20.5 -119.5c0 -18.667 4 -35 12 -49s22.333 -21 43 -21
c24.667 0 48.667 6.16699 72 18.5s45.166 27.666 65.499 45.999s38.666 36.666 54.999 54.999l40.5 46.5c10.667 12.667 17.667 19.334 21 20.001l6 -8c-3.33301 -14.667 -12.5 -31.334 -27.5 -50.001s-33.5 -37.667 -55.5 -57s-45.167 -37.333 -69.5 -54
s-47.5 -30 -69.5 -40s-40.667 -15 -56 -15c-17.333 0 -31.166 4.66699 -41.499 14s-17.5 21 -21.5 35s-5.66699 28.333 -5 43l1 29c2.66699 66.667 19.667 127.334 51 182.001s71 103.667 119 147c14 12.667 29.5 25.5 46.5 38.5s35.167 23.833 54.5 32.5
s38.666 13 57.999 13c28 0 51 -9.83301 69 -29.5s31.833 -45.167 41.5 -76.5s16.667 -64.333 21 -99s7 -67.667 8 -99s1.5 -56.666 1.5 -75.999c0 -25.333 -0.333008 -50.666 -1 -75.999s-2 -50.666 -4 -75.999c5.33301 10.667 14.5 25.334 27.5 44.001
s28.167 38.834 45.5 60.501s35.333 42.167 54 61.5s36.334 35.166 53.001 47.499s31 18.5 43 18.5c5.33301 0 11.5 -1.33301 18.5 -4s10.5 -7.66699 10.5 -15c0 -2 -2 -9 -6 -21l-14.5 -41.5l-15.5 -43c-4.66699 -13 -8 -21.833 -10 -26.5
c-10.667 -32.667 -19.667 -65.667 -27 -99s-11 -67.333 -11 -102c0 -7.33301 0.666992 -18 2 -32s4.33301 -26.833 9 -38.5s12.334 -17.5 23.001 -17.5c13.333 0 27.666 6.5 42.999 19.5s30.833 29.667 46.5 50s30.334 41.666 44.001 63.999s25.834 43.333 36.501 63
s18.667 35.167 24 46.5c10.667 22.667 21.167 48.834 31.5 78.501s19 59.667 26 90s10.5 57.5 10.5 81.5s-4.5 43.5 -13.5 58.5s-27.167 22.5 -54.5 22.5c-6.66699 0 -13.5 -1.33301 -20.5 -4s-14.167 -4.66699 -21.5 -6l-6 4c4 5.33301 11.833 12 23.5 20
s20.834 12 27.501 12c35.333 0 59.666 -11.333 72.999 -34s20 -49.667 20 -81c0 -26 -3.16699 -53.833 -9.5 -83.5s-14.333 -59 -24 -88s-20.167 -55.5 -31.5 -79.5c-6 -13.333 -14.833 -30.833 -26.5 -52.5s-25.167 -44.334 -40.5 -68.001s-31.666 -46 -48.999 -67
s-34.833 -38.167 -52.5 -51.5s-34.834 -20 -51.501 -20c-17.333 0 -30.833 6.5 -40.5 19.5s-16.5 28.167 -20.5 45.5s-6 32.666 -6 45.999c0 38 3.66699 74.667 11 110s16.333 70.333 27 105s20.334 69.667 29.001 105l-3 4
c-10.667 -4.66699 -24.334 -14.834 -41.001 -30.501s-34 -34.5 -52 -56.5s-35.333 -44.667 -52 -68s-30.834 -45 -42.501 -65s-19.167 -36 -22.5 -48c-2.66699 -10.667 -5.33398 -26 -8.00098 -46s-5.83398 -41.667 -9.50098 -65s-8.5 -45.5 -14.5 -66.5
s-14.167 -38.167 -24.5 -51.5s-23.166 -20 -38.499 -20z" />
    <glyph glyph-name="X" unicode="X" horiz-adv-x="524" 
d="M68 -41c-8 0 -15.3301 3.49414 -21.9971 10.4941s-11.834 15.167 -15.501 24.5s-5.5 17.333 -5.5 24c0 27.333 6.16699 56.833 18.5 88.5s28 63.5 47 95.5s39 62.167 60 90.5s40.5 52.5 58.5 72.5c-18.667 42 -40.167 79 -64.5 111s-53.166 63.333 -86.499 94
c-6 4.66699 -9 10.334 -9 17.001c0 5.33301 1.66699 9.83301 5 13.5s7.66602 5.5 12.999 5.5c1.33301 0 3.16602 -0.333008 5.49902 -1s3.83301 -1.33398 4.5 -2.00098c40.667 -21.333 73.167 -50.833 97.5 -88.5s45.166 -76.834 62.499 -117.501
c7.33301 8.66699 19.5 22 36.5 40l58.5 59.5l66 62.5c22 20 42.333 36.5 61 49.5s33.334 19.5 44.001 19.5c6 0 10.333 -2.16699 13 -6.5s4 -9.16602 4 -14.499c0 -6 -1.16699 -12.167 -3.5 -18.5s-6.16602 -11.166 -11.499 -14.499c-48.667 -26.667 -94 -57.5 -136 -92.5
s-82 -72.167 -120 -111.5l24 -56l37 -84.5c14 -31 29 -60.667 45 -89s31.667 -51.666 47 -69.999s29.333 -27.5 42 -27.5s22.5 6.5 29.5 19.5s12.167 29 15.5 48s5.83301 38 7.5 57s3.5 35.167 5.5 48.5s5 20.333 9 21c2.66699 -1.33301 4.5 -3.66602 5.5 -6.99902
s1.5 -6.33301 1.5 -9c0 -10 -0.5 -24 -1.5 -42s-2.83301 -37.333 -5.5 -58s-6.83398 -40.167 -12.501 -58.5s-13.167 -33.5 -22.5 -45.5s-21 -18 -35 -18c-16 0 -33 9.33301 -51 28s-35.667 42.5 -53 71.5s-33.833 59.333 -49.5 91s-29.334 60.834 -41.001 87.501l-26.5 61
c-18 -20 -36.667 -43.167 -56 -69.5s-37.333 -54.166 -54 -83.499s-30.167 -59 -40.5 -89s-15.5 -58.667 -15.5 -86c0 -10.667 1.83301 -18 5.5 -22s7.16699 -7.16699 10.5 -9.5s5 -6.16602 5 -11.499s-2.33301 -8 -7 -8z" />
    <glyph glyph-name="Y" unicode="Y" horiz-adv-x="668" 
d="M272 -235c-14.667 0 -24.3271 6.00293 -28.9941 18.0029s-7 24.333 -7 37c0 32 6.33301 66 19 102s29.667 72.167 51 108.5s45.5 70.833 72.5 103.5s55 61.834 84 87.501s56.833 45.834 83.5 60.501c6.66699 36.667 12.667 73.667 18 111s8 74.333 8 111v25
c-12.667 -29.333 -26.5 -58.833 -41.5 -88.5s-31.833 -58.167 -50.5 -85.5l-34 -49c-14.667 -20.667 -31.334 -42.834 -50.001 -66.501s-37.834 -46 -57.501 -67s-38.834 -38.333 -57.501 -52s-35.334 -20.5 -50.001 -20.5c-16.667 0 -28.334 7.33301 -35.001 22
s-10 29 -10 43c0 29.333 6.83301 62 20.5 98s30.5 73.333 50.5 112l60 115.5c20 38.333 36.833 75 50.5 110s20.5 66.833 20.5 95.5c0 11.333 -2.5 19 -7.5 23s-12.5 6 -22.5 6c-25.333 0 -52.333 -6.66699 -81 -20s-57 -31.333 -85 -54s-53.167 -47.667 -75.5 -75
s-40.333 -55.5 -54 -84.5s-20.5 -56.167 -20.5 -81.5c0 -10.667 3.33301 -20.834 10 -30.501s16 -14.5 28 -14.5c16.667 0 32.834 4.33301 48.501 13s29.167 17.167 40.5 25.5s18 12.5 20 12.5c5.33301 0 8 -2.33301 8 -7c0 -6.66699 -4.66699 -14.334 -14 -23.001
s-20.833 -16.834 -34.5 -24.501s-26.834 -14 -39.501 -19s-22.334 -7.5 -29.001 -7.5c-20.667 0 -37.167 7.66699 -49.5 23s-18.5 32.666 -18.5 51.999c0 28 7.5 57.833 22.5 89.5s35 62.5 60 92.5s52.667 57.333 83 82s61.333 44.334 93 59.001s61.5 22 89.5 22
c23.333 0 40.333 -7.16699 51 -21.5s16 -32.166 16 -53.499c0 -28.667 -7.16699 -60.334 -21.5 -95.001s-31.833 -70.834 -52.5 -108.501l-62.5 -111.5c-21 -36.667 -38.667 -71.667 -53 -105s-21.5 -63 -21.5 -89c0 -7.33301 1.5 -16.833 4.5 -28.5s9.5 -17.5 19.5 -17.5
c10.667 0 23.834 6.83301 39.501 20.5s32.334 31.334 50.001 53.001s34.834 44 51.501 67l45 63.5l29 43c24.667 35.333 43.667 72.5 57 111.5l42 117.5c3.33301 7.33301 7 13.333 11 18s10.333 7 19 7c11.333 0 19.333 -4.33301 24 -13s7.5 -18.5 8.5 -29.5
s1.5 -20.5 1.5 -28.5c0 -41.333 -3.5 -83.833 -10.5 -127.5s-14.167 -86.167 -21.5 -127.5c14.667 5.33301 29.834 10.166 45.501 14.499s31.167 6.5 46.5 6.5c17.333 0 32.166 -4.66699 44.499 -14s18.5 -23.333 18.5 -42v-4c0 -2.66699 -0.333008 -5.33398 -1 -8.00098
s-2.33398 -4.33398 -5.00098 -5.00098c-4 2 -6.5 5.66699 -7.5 11s-2.5 11 -4.5 17s-6.16699 11.167 -12.5 15.5s-16.5 6.5 -30.5 6.5c-16.667 0 -33.834 -2.66699 -51.501 -8s-33.834 -11.666 -48.501 -18.999c-14 -70.667 -33 -139.667 -57 -207
s-58.667 -129.666 -104 -186.999l-28 -32c-11.333 -12.667 -23.833 -25 -37.5 -37s-27.5 -22.167 -41.5 -30.5s-27.333 -12.5 -40 -12.5zM286.007 -201.997c8.66699 0 18.333 3.66895 29 11.002s21.5 16.166 32.5 26.499s21 20.666 30 30.999s15.833 18.5 20.5 24.5
c42 51.333 73.167 108 93.5 170s36.5 125 48.5 189c-23.333 -14.667 -47.5 -34 -72.5 -58s-49.5 -51 -73.5 -81s-45.5 -61.5 -64.5 -94.5s-34.167 -65.667 -45.5 -98s-17 -62.5 -17 -90.5c0 -6 1.16699 -12.5 3.5 -19.5s7.5 -10.5 15.5 -10.5z" />
    <glyph glyph-name="Z" unicode="Z" horiz-adv-x="590" 
d="M158 -244c-11.333 0 -20.165 3.66406 -26.498 10.9971s-9.5 16.666 -9.5 27.999c0 16 5.33301 35.833 16 59.5s24 48.167 40 73.5s31.667 48.833 47 70.5s28 38.834 38 51.501c20 25.333 45.833 49.666 77.5 72.999s61.834 42.333 90.501 57
c0.666992 15.333 -1 31.5 -5 48.5s-11 31.833 -21 44.5s-24.333 19.334 -43 20.001c-6 -8 -16.333 -20.167 -31 -36.5s-30.834 -33.333 -48.501 -51s-34.667 -32.667 -51 -45s-29.833 -18.5 -40.5 -18.5c-5.33301 0 -9 1.83301 -11 5.5s-3 7.83398 -3 12.501
c0 16 6 32.5 18 49.5s27.167 33 45.5 48s37.166 27.667 56.499 38s36.333 16.5 51 18.5c16 18 33.5 40.167 52.5 66.5s37.167 54.833 54.5 85.5s31.5 60.834 42.5 90.501s16.5 56.834 16.5 81.501c0 44.667 -23.333 67 -70 67c-29.333 0 -61.5 -5.16699 -96.5 -15.5
s-69.833 -24.833 -104.5 -43.5s-66.334 -40.667 -95.001 -66s-51.667 -53 -69 -83s-26 -61.667 -26 -95c0 -14.667 3.66699 -26.167 11 -34.5s18.333 -12.5 33 -12.5c17.333 0 34.166 4.16699 50.499 12.5s31.333 18 45 29l35.5 29c10 8.33301 17 12.5 21 12.5
c6 0 9 -2 9 -6c0 -6.66699 -6.66699 -15.667 -20 -27s-29.5 -22.666 -48.5 -33.999s-38.167 -20.833 -57.5 -28.5s-35 -11.5 -47 -11.5c-20.667 0 -37.5 6.16699 -50.5 18.5s-19.5 28.833 -19.5 49.5c0 36.667 9.5 71.834 28.5 105.501s44.167 64.5 75.5 92.5
s66 52.5 104 73.5s76.167 37.167 114.5 48.5s73.833 17 106.5 17c66 0 99 -33 99 -99c0 -38 -8.66699 -76.5 -26 -115.5s-38.666 -76.167 -63.999 -111.5s-49.666 -67 -72.999 -95c32.667 -2.66699 56 -15.5 70 -38.5s20.667 -49.5 20 -79.5
c16.667 7.33301 33.667 13.166 51 17.499s35 6.5 53 6.5c14.667 0 27.167 -5.66699 37.5 -17s15.5 -24.333 15.5 -39c0 -2.66699 -0.833008 -6.5 -2.5 -11.5s-4.16699 -7.83301 -7.5 -8.5c-6.66699 6 -10.334 12.667 -11.001 20s-3 13.833 -7 19.5s-14 8.5 -30 8.5
c-17.333 0 -34.5 -2.5 -51.5 -7.5s-33.5 -11.167 -49.5 -18.5c-2.66699 -18.667 -9.16699 -41.667 -19.5 -69s-23.5 -56.333 -39.5 -87s-34 -61.167 -54 -91.5s-41.167 -57.833 -63.5 -82.5s-44.833 -44.334 -67.5 -59.001s-44.667 -22 -66 -22zM170.001 -219.003
c10.667 0 22.832 4.33789 36.499 13.0049s26.667 18.5 39 29.5s21.833 19.833 28.5 26.5c22.667 22.667 44.834 51.167 66.501 85.5s40.5 70.166 56.5 107.499s26.333 71.666 31 102.999c-24 -14.667 -48.333 -32.334 -73 -53.001s-45.667 -42 -63 -64
c-8 -10 -19.5 -25.167 -34.5 -45.5l-46.5 -66c-16 -23.667 -29.5 -46.334 -40.5 -68.001s-16.5 -38.834 -16.5 -51.501c0 -11.333 5.33301 -17 16 -17z" />
    <glyph glyph-name="bracketleft" unicode="[" horiz-adv-x="285" 
d="M138 -58c-16 0 -32.501 1.99902 -49.501 5.99902s-28.167 12 -33.5 24c0 0.666992 -0.166992 1.16699 -0.5 1.5s-0.5 0.833008 -0.5 1.5v27.5c0 18.333 0.166992 43.333 0.5 75s0.5 67.5 0.5 107.5v124c0 48 -0.166992 95 -0.5 141s-0.666016 87.667 -0.999023 125
s-0.833008 66.333 -1.5 87c5.33301 8 16.666 13.5 33.999 16.5s34.666 4.5 51.999 4.5c26 0 43.667 -1.33301 53 -4c8.66699 -1.33301 17 -3.66602 25 -6.99902s15 -8 21 -14c1.33301 -1.33301 2 -2.33301 2 -3c-2 -2 -4.66699 -3 -8 -3
c-4.66699 0 -9.16699 0.666992 -13.5 2s-7.16602 2.33301 -8.49902 3c-8 2 -16.333 3.33301 -25 4s-17.667 1 -27 1c-6.66699 0 -13.167 -0.166992 -19.5 -0.5s-12.833 -0.833008 -19.5 -1.5c-4.66699 -0.666992 -10.5 -1.33398 -17.5 -2.00098s-13.167 -1.66699 -18.5 -3
c0 -11.333 -0.166992 -32.166 -0.5 -62.499s-0.5 -66.166 -0.5 -107.499v-131.5c0 -46.333 -0.166992 -91.833 -0.5 -136.5s-0.5 -85.334 -0.5 -122.001v-87.5v-32.5c4.66699 -2 9.16699 -3.33301 13.5 -4s8.83301 -1.66699 13.5 -3c5.33301 -0.666992 11 -1 17 -1h17
c10 0 19.833 0.333008 29.5 1s18.834 2 27.501 4c1.33301 0.666992 5 1.66699 11 3s11.167 2 15.5 2s4.5 -2 0.5 -6c-5.33301 -6.66699 -12 -12 -20 -16s-16.333 -7 -25 -9c-2.66699 -0.666992 -8 -1.5 -16 -2.5s-16.667 -1.5 -26 -1.5z" />
    <glyph glyph-name="backslash" unicode="\" horiz-adv-x="342" 
d="M281 -89c-6.66699 3.33301 -10.501 9.50195 -11.501 18.502s-1.83301 16.167 -2.5 21.5c-2.66699 30 -9.5 67.5 -20.5 112.5s-24.5 93.833 -40.5 146.5s-32.833 105.167 -50.5 157.5l-51.5 147c-16.667 45.667 -31 83.5 -43 113.5c-1.33301 1.33301 -2 4 -2 8
c0.666992 2.66699 3 3 7 1c7.33301 -2 16.833 -7.83301 28.5 -17.5s19.167 -18.167 22.5 -25.5c4.66699 -12 11.334 -31.5 20.001 -58.5l29.5 -96.5l34.5 -119l34.5 -126c11 -42 20.833 -81.333 29.5 -118s15.667 -68.334 21 -95.001s8 -45.334 8 -56.001
c0 -6.66699 -1 -10.667 -3 -12s-5.33301 -2 -10 -2z" />
    <glyph glyph-name="bracketright" unicode="]" horiz-adv-x="290" 
d="M154 -58c-9.33301 0 -17.8301 0.501953 -25.4971 1.50195s-13.167 1.83301 -16.5 2.5c-8.66699 2 -17 5 -25 9s-14.667 9.33301 -20 16c-0.666992 1.33301 -1.16699 2.16602 -1.5 2.49902l-0.5 0.5c0 1.33301 1.66699 2 5 2c4 0 8.83301 -0.5 14.5 -1.5
s8.83398 -1.83301 9.50098 -2.5c9.33301 -2 18.666 -3.33301 27.999 -4s19 -1 29 -1h17c6 0 11.667 0.333008 17 1c4.66699 1.33301 9.16699 2.33301 13.5 3s8.83301 2 13.5 4v32.5v87.5c0 36.667 -0.166992 77.334 -0.5 122.001s-0.5 90.167 -0.5 136.5v131.5
c0 41.333 -0.166992 77.166 -0.5 107.499s-0.5 51.166 -0.5 62.499c-5.33301 1.33301 -11.5 2.33301 -18.5 3s-12.833 1.33398 -17.5 2.00098c-6.66699 0.666992 -13.167 1.16699 -19.5 1.5s-12.833 0.5 -19.5 0.5c-8.66699 0 -17.5 -0.333008 -26.5 -1s-17.5 -2 -25.5 -4
c-0.666992 -0.666992 -3.33398 -1.66699 -8.00098 -3s-9.33398 -2 -14.001 -2c-3.33301 0 -6 1 -8 3c0 0.666992 0.666992 1.66699 2 3c6 6 13 10.667 21 14s16.333 5.66602 25 6.99902c9.33301 2.66699 27 4 53 4c17.333 0 34.666 -1.5 51.999 -4.5
s28.666 -8.5 33.999 -16.5c-0.666992 -20.667 -1.16699 -49.667 -1.5 -87s-0.666016 -79 -0.999023 -125s-0.5 -93 -0.5 -141v-124c0 -40 0.166992 -75.833 0.5 -107.5s0.5 -56.667 0.5 -75v-27.5c0 -0.666992 -0.166992 -1.16699 -0.5 -1.5s-0.5 -0.833008 -0.5 -1.5
c-5.33301 -12 -16.5 -20 -33.5 -24s-33.5 -6 -49.5 -6z" />
    <glyph glyph-name="asciicircum" unicode="^" horiz-adv-x="319" 
d="M250 412c-14 0 -25.332 3.99707 -33.999 11.9971s-16 17.167 -22 27.5l-16.5 27.5c-5 8 -10.5 12 -16.5 12c-4 0 -12.333 -3.66699 -25 -11s-26.167 -15.666 -40.5 -24.999l-38.5 -25c-11.333 -7.33301 -17.666 -11 -18.999 -11c-0.666992 0 -2.33398 0.5 -5.00098 1.5
s-4 2.16699 -4 3.5s4.5 5.5 13.5 12.5l33.5 26l41 30.5c14 10 26.333 18.333 37 25s17.334 10 20.001 10c8 0 14.833 -4.66699 20.5 -14s11.5 -20.166 17.5 -32.499s13.667 -23.166 23 -32.499s21.666 -14 36.999 -14c7.33301 0 14.166 1.66699 20.499 5s12.833 5 19.5 5
c2 0 3 -2 3 -6l-2 -5c-8.66699 -6 -18.5 -11.167 -29.5 -15.5s-22.167 -6.5 -33.5 -6.5z" />
    <glyph glyph-name="underscore" unicode="_" horiz-adv-x="605" 
d="M0 -82v28h604v-28h-604z" />
    <glyph glyph-name="grave" unicode="`" horiz-adv-x="109" 
d="M112 449c-0.666992 0 -2.33398 0.667969 -5.00098 2.00098l-73.5 54c-21.667 15.333 -32.5 27.666 -32.5 36.999c0 4 2 7.33301 6 10c3.33301 2 6 3 8 3c5.33301 0 10.333 -2 15 -6s9.33398 -8.33301 14.001 -13c8.66699 -9.33301 18.167 -19 28.5 -29l28 -27
c8.33301 -8 13.5 -13.667 15.5 -17c2 -2.66699 3 -5.66699 3 -9c0 -0.666992 -0.833008 -1.66699 -2.5 -3s-3.16699 -2 -4.5 -2z" />
    <glyph glyph-name="a" unicode="a" horiz-adv-x="337" 
d="M70 -28c-11.333 0 -19.665 5.49805 -24.998 16.498s-8.66602 23.5 -9.99902 37.5s-2 24.667 -2 32c0 25.333 2.33301 52.166 7 80.499s10.667 54.833 18 79.5c3.33301 11.333 9.33301 27.833 18 49.5s19.167 43.834 31.5 66.501s25.666 41.834 39.999 57.501
s28.833 23.5 43.5 23.5c11.333 0 23.666 -5 36.999 -15s20 -21 20 -33c0 -4.66699 -1.66699 -8.66699 -5 -12c0.666992 0.666992 2.33398 1 5.00098 1c12.667 0 19 -6.66699 19 -20c0 -15.333 -2.16699 -33.666 -6.5 -54.999l-13.5 -67.5
c-4.66699 -23.667 -7 -46.5 -7 -68.5c0 -8 0.666992 -17.5 2 -28.5s4.5 -20.833 9.5 -29.5s13.167 -13 24.5 -13c10.667 0 22 5.66699 34 17s23.667 25.333 35 42s22 33.334 32 50.001l25.5 42c7 11.333 11.833 17 14.5 17c4.66699 0 7 -3 7 -9c0 -8 -3.5 -19.5 -10.5 -34.5
s-16.167 -31.333 -27.5 -49s-23.833 -34.667 -37.5 -51s-27.334 -29.666 -41.001 -39.999s-25.834 -15.5 -36.501 -15.5c-17.333 0 -30.5 7.16699 -39.5 21.5s-15 31.5 -18 51.5s-4.5 38.667 -4.5 56v17c0 5.33301 0.333008 10 1 14l-17 -41.5
c-7.33301 -18.333 -15.833 -38.333 -25.5 -60s-20 -42.334 -31 -62.001s-22.167 -35.834 -33.5 -48.501s-22.333 -19 -33 -19zM78.001 13.998c8.66699 0 18.332 8.00098 28.999 24.001s21.834 36.5 33.501 61.5s22.834 51.833 33.501 80.5l29.5 81.5l22.5 64
c6 17 10 26.167 12 27.5l-6 -1c-4.66699 0 -8.33398 2.5 -11.001 7.5s-6 9.83301 -10 14.5s-10.667 7 -20 7c-12 0 -23.667 -7 -35 -21s-22.166 -30.833 -32.499 -50.5s-19 -38.834 -26 -57.501s-11.833 -32.667 -14.5 -42c-13.333 -46 -20 -93.333 -20 -142
c0 -2.66699 0.166992 -8.5 0.5 -17.5s1.66602 -17.333 3.99902 -25s5.83301 -11.5 10.5 -11.5z" />
    <glyph glyph-name="b" unicode="b" horiz-adv-x="299" 
d="M85 -31c-8 0 -14.168 7.33105 -18.501 21.998s-7.66602 32.167 -9.99902 52.5s-3.66602 39.5 -3.99902 57.5s-0.5 30.333 -0.5 37c0 48.667 4.16699 100.834 12.5 156.501s20.5 110.5 36.5 164.5s35 102.667 57 146c4.66699 8.66699 11.5 20.667 20.5 36
s19.167 29.166 30.5 41.499s22.333 18.5 33 18.5c9.33301 0 16.166 -3.16699 20.499 -9.5s6.5 -13.833 6.5 -22.5c0 -12 -5.33301 -18 -16 -18c-4.66699 0 -9.66699 1 -15 3c-5.33301 -2.66699 -11.5 -8.5 -18.5 -17.5s-13.5 -18.167 -19.5 -27.5s-10.667 -17 -14 -23
c-33.333 -65.333 -59.333 -135.666 -78 -210.999s-28 -150 -28 -224v-24.5c0 -8.33301 0.333008 -16.833 1 -25.5c2.66699 12 8.16699 29.167 16.5 51.5s18.5 46.333 30.5 72s25.167 50.167 39.5 73.5s29 42.5 44 57.5s29.5 22.5 43.5 22.5
c11.333 0 19.5 -3.83301 24.5 -11.5s8.16699 -16.834 9.5 -27.501s2 -20 2 -28c0 -13.333 -2 -31.666 -6 -54.999s-9.83301 -48.166 -17.5 -74.499s-17.167 -51.333 -28.5 -75s-24.333 -43.167 -39 -58.5s-30.667 -23 -48 -23c-10.667 0 -19.5 3 -26.5 9
s-12.5 13.667 -16.5 23c-2.66699 -12.667 -4.5 -23.5 -5.5 -32.5s-1.5 -20.167 -1.5 -33.5c0 -4.66699 -1.33301 -9.5 -4 -14.5s-7 -7.5 -13 -7.5zM142.999 49.998c14 0 27.165 7.16602 39.498 21.499s23.333 32.5 33 54.5s17.834 45.167 24.501 69.5s11.834 47 15.501 68
s5.5 37.167 5.5 48.5v4c0 6 -0.666992 11.667 -2 17s-5.33301 8 -12 8c-8.66699 0 -18.334 -6.66699 -29.001 -20s-21.667 -30.166 -33 -50.499s-21.666 -41.333 -30.999 -63s-17 -41.667 -23 -60s-9 -31.5 -9 -39.5c0 -4.66699 0.166992 -11.667 0.5 -21s2 -17.833 5 -25.5
s8.16699 -11.5 15.5 -11.5z" />
    <glyph glyph-name="c" unicode="c" horiz-adv-x="249" 
d="M127 13c-20 0 -35.667 6.83691 -47 20.5039s-19.333 30 -24 49s-7 36.167 -7 51.5c0 11.333 1.66699 29.166 5 53.499s8.5 51.166 15.5 80.499s15.5 57.666 25.5 84.999s21.667 49.833 35 67.5s28 26.5 44 26.5c11.333 0 19.666 -4.33301 24.999 -13
s8.83301 -19.5 10.5 -32.5s2.5 -25.667 2.5 -38v-30.5c0 -3.33301 -2.16699 -6.83301 -6.5 -10.5s-8.16602 -5.5 -11.499 -5.5c-6.66699 0 -11 3 -13 9s-3 12.667 -3 20s0.333008 14.166 1 20.499s1 11.166 1 14.499s-0.666992 8.83301 -2 16.5s-4 11.5 -8 11.5
c-10.667 -4 -20.667 -14.5 -30 -31.5s-17.833 -37.167 -25.5 -60.5s-14 -47.333 -19 -72s-9 -47.167 -12 -67.5s-4.5 -35.5 -4.5 -45.5c0 -9.33301 1.16699 -21.166 3.5 -35.499s7 -27.166 14 -38.499s16.833 -17 29.5 -17c14 0 28 6.5 42 19.5s27.5 29.167 40.5 48.5
s24.833 38.833 35.5 58.5l26.5 49c7 13 11.833 19.5 14.5 19.5c3.33301 0 5.33301 -1.66699 6 -5s0.666992 -6 0 -8l-1 -4c-4 -14.667 -11.333 -33.334 -22 -56.001s-23.667 -45.5 -39 -68.5s-31.833 -42.333 -49.5 -58s-35.167 -23.5 -52.5 -23.5z" />
    <glyph glyph-name="d" unicode="d" horiz-adv-x="343" 
d="M296 3c-12.667 0 -23.1719 6.16699 -31.5049 18.5s-14.666 27.833 -18.999 46.5s-7.33301 38.167 -9 58.5s-2.5 38.5 -2.5 54.5v19.5c0 5.66699 0.333008 10.5 1 14.5l-24.5 -53c-10.333 -22.667 -22.166 -45.334 -35.499 -68.001s-27.666 -42 -42.999 -58
s-31 -24 -47 -24c-20.667 0 -34.5 8.16699 -41.5 24.5s-10.5 32.833 -10.5 49.5c0 22.667 3.5 48.667 10.5 78s15.833 54 26.5 74c4 8 10 18.667 18 32s17.167 26.833 27.5 40.5s21 25.167 32 34.5s21.5 14 31.5 14c14.667 0 24.834 -5.16699 30.501 -15.5
s8.5 -21.833 8.5 -34.5c0 -8.66699 -5 -13 -15 -13c-4.66699 0 -7.16699 2.83301 -7.5 8.5s-1.16602 11.167 -2.49902 16.5s-6 8 -14 8c-12 0 -23.667 -6.66699 -35 -20s-21.833 -30.5 -31.5 -51.5s-18.167 -42.833 -25.5 -65.5s-13 -43.667 -17 -63s-6 -34 -6 -44
c0 -7.33301 1.16699 -16.833 3.5 -28.5s8.83301 -17.5 19.5 -17.5c6 0 13.167 3.66699 21.5 11s16.666 16.5 24.999 27.5s15.833 21.5 22.5 31.5s11.334 17.333 14.001 22c18.667 36.667 33.334 70.5 44.001 101.5s19.334 61.167 26.001 90.5s13 60 19 92s13.333 67 22 105
c1.33301 6 4.16602 16 8.49902 30s10 26.833 17 38.5s14.833 17.5 23.5 17.5c6.66699 0 10.834 -3.33301 12.501 -10s2.5 -12.334 2.5 -17.001c0 -10.667 -2.16699 -26.167 -6.5 -46.5s-9.5 -42.166 -15.5 -65.499s-12.167 -45.166 -18.5 -65.499s-11.5 -35.833 -15.5 -46.5
l-9 -22c-3.33301 -8 -5.66602 -15.667 -6.99902 -23c-4.66699 -20.667 -7.5 -43.667 -8.5 -69s-1.5 -49 -1.5 -71c0 -5.33301 0.166992 -15.5 0.5 -30.5s1.66602 -31 3.99902 -48s5.66602 -31.5 9.99902 -43.5s10.5 -18 18.5 -18c9.33301 0 18.5 6.5 27.5 19.5
s17.667 28 26 45l22.5 45c6.66699 13 12 19.5 16 19.5c6.66699 0 10 -4 10 -12c0 -6 -3.83301 -16.833 -11.5 -32.5s-17.334 -32 -29.001 -49s-23 -31.667 -34 -44s-20.167 -18.5 -27.5 -18.5z" />
    <glyph glyph-name="e" unicode="e" horiz-adv-x="225" 
d="M116 0c-18 0 -31.834 8.00586 -41.501 24.0059s-16.167 35.5 -19.5 58.5s-5 44.5 -5 64.5c0 9.33301 0.166992 17.833 0.5 25.5s0.833008 14.167 1.5 19.5h-3c-8 0 -12 3 -12 9c1.33301 3.33301 3.83301 6.16602 7.5 8.49902s7.16699 3.83301 10.5 4.5
c3.33301 29.333 9.66602 59.333 18.999 90s22 58.334 38 83.001v6c0 6.66699 4 10.667 12 12c3.33301 3.33301 6.83301 7.16602 10.5 11.499s7.83398 6.5 12.501 6.5c5.33301 0 9.5 -2.16699 12.5 -6.5s3.16699 -8.83301 0.5 -13.5
c12.667 -2.66699 24.167 -7.83398 34.5 -15.501s15.5 -18.834 15.5 -33.501c0 -19.333 -7.16699 -39.166 -21.5 -59.499s-31.333 -38.666 -51 -54.999s-37.5 -28.5 -53.5 -36.5c-2 -16 -3.16699 -32.167 -3.5 -48.5s-0.5 -32.5 -0.5 -48.5c0 -8 0.5 -18 1.5 -30
s4 -22.667 9 -32s13.5 -14 25.5 -14c12.667 0 25.167 5.66699 37.5 17s24.333 25.833 36 43.5s22.5 36.167 32.5 55.5s18.667 37.666 26 54.999s12.666 30.666 15.999 39.999c1.33301 3.33301 3 6.5 5 9.5s5 4.5 9 4.5c5.33301 0 8 -3.33301 8 -10
c0 -10.667 -3.66699 -25.834 -11 -45.501s-17.166 -40.834 -29.499 -63.501s-26 -44.334 -41 -65.001s-30.167 -37.667 -45.5 -51s-29.666 -20 -42.999 -20zM88.999 234.006c12.667 8 25.332 18.001 37.999 30.001s23.334 25.667 32.001 41s13 30.666 13 45.999
c0 8 -4 13.833 -12 17.5s-15 5.83398 -21 6.50098c-12.667 -20.667 -23.167 -43.334 -31.5 -68.001s-14.5 -49 -18.5 -73z" />
    <glyph glyph-name="f" unicode="f" horiz-adv-x="237" 
d="M128 -341c-14 0 -25.832 7.33691 -35.499 22.0039s-17.5 34 -23.5 58s-10.833 49.833 -14.5 77.5s-6.16699 55 -7.5 82s-2.16602 51 -2.49902 72s-0.5 36.167 -0.5 45.5c-11.333 9.33301 -17 20.666 -17 33.999c0 5.33301 1.66699 10.166 5 14.499s8 6.5 14 6.5
c1.33301 26 3.66602 52 6.99902 78l10 77c1.33301 10.667 4.83301 29.834 10.5 57.501s13 60 22 97s19.167 75 30.5 114s23.166 75.333 35.499 109s24.833 61 37.5 82s24.667 31.5 36 31.5c12.667 0 22.334 -6 29.001 -18s11.334 -25.5 14.001 -40.5s4 -27.167 4 -36.5
c0 -8.66699 -0.5 -17.334 -1.5 -26.001s-2.16699 -17.334 -3.5 -26.001c-4 -20 -8.83301 -39.833 -14.5 -59.5s-12.167 -39.167 -19.5 -58.5c-2.66699 -7.33301 -7.66699 -19.333 -15 -36s-16.333 -35.167 -27 -55.5s-21.834 -40 -33.501 -59s-23.334 -34.667 -35.001 -47
s-22.167 -18.5 -31.5 -18.5c-4.66699 -30 -9.83398 -59.5 -15.501 -88.5s-8.5 -59.167 -8.5 -90.5c6.66699 -4.66699 12.834 -9.66699 18.501 -15s10.834 -11 15.501 -17c16.667 1.33301 33 7.16602 49 17.499s31 22.666 45 36.999s26.833 28.5 38.5 42.5l29 35.5
c7.66699 9.66699 12.834 14.5 15.501 14.5c1.33301 0 2.33301 -0.833008 3 -2.5s1 -3.16699 1 -4.5c0 -10.667 -6.5 -24.5 -19.5 -41.5s-28.833 -34.333 -47.5 -52s-36.834 -33.167 -54.501 -46.5s-31.167 -21.666 -40.5 -24.999c21.333 -29.333 36.166 -61 44.499 -95
s12.5 -69 12.5 -105c0 -10 -0.5 -22.667 -1.5 -38s-3.33301 -31 -7 -47s-9.5 -29.333 -17.5 -40s-19 -16 -33 -16zM108.001 278.004c10.667 3.33301 22.002 13.333 34.002 30s23.667 36.667 35 60s21.666 47.5 30.999 72.5s17.166 48 23.499 69s10.5 36.833 12.5 47.5
c2.66699 13.333 5 27 7 41s3 27.667 3 41c0 4 -0.5 10.5 -1.5 19.5s-5.16699 13.5 -12.5 13.5c-2 0 -4.5 -0.666992 -7.5 -2s-5.16699 -2.66602 -6.5 -3.99902c-14 -24 -27.5 -52.5 -40.5 -85.5s-24.833 -67.667 -35.5 -104s-19.667 -71.833 -27 -106.5
s-12.333 -65.334 -15 -92.001zM130.003 -314.996c8.66699 0 15.001 5.00098 19.001 15.001s6.5 21.333 7.5 34s1.5 23.334 1.5 32.001c0 26.667 -1.5 53.667 -4.5 81s-9 53.833 -18 79.5s-22.833 48.5 -41.5 68.5l-18 4c0 -6 0.166992 -17.833 0.5 -35.5
s1.16602 -38.334 2.49902 -62.001s3.33301 -48 6 -73s6 -48.333 10 -70s8.83301 -39.334 14.5 -53.001s12.5 -20.5 20.5 -20.5z" />
    <glyph glyph-name="g" unicode="g" horiz-adv-x="310" 
d="M75 -377c-14.667 0 -25.499 4.16602 -32.499 12.499s-11.667 18.5 -14 30.5s-3.5 23.667 -3.5 35c0 25.333 4 53.666 12 84.999s19.167 63.333 33.5 96s31 63.667 50 93s39.5 55.333 61.5 78s44.667 39.334 68 50.001l1 39c0 7.33301 -0.166992 19.833 -0.5 37.5
s-1.16602 36.834 -2.49902 57.501s-3 39 -5 55s-4 25.667 -6 29c-6 -9.33301 -13.333 -25.666 -22 -48.999l-29 -77.5c-10.667 -28.333 -21.834 -55.833 -33.501 -82.5s-23.667 -48.667 -36 -66s-24.5 -26 -36.5 -26c-14 0 -24.5 4.33301 -31.5 13s-11.667 19.167 -14 31.5
s-3.5 23.833 -3.5 34.5c0 12.667 3 31.667 9 57s14.167 52.833 24.5 82.5s22.333 58 36 85s28.167 49.167 43.5 66.5s31 26 47 26c9.33301 0 17.166 -3.33301 23.499 -10s11.166 -14 14.499 -22c1.33301 2 3.66602 3 6.99902 3c10 0 18 -8.66699 24 -26
s10.5 -38.833 13.5 -64.5s5.16699 -52.167 6.5 -79.5s2 -51 2 -71c0 -8 -0.166992 -15.167 -0.5 -21.5s-0.5 -11.166 -0.5 -14.499h3c4.66699 0 9.16699 -1.33301 13.5 -4s6.5 -6.66699 6.5 -12c0 -10 -5.33301 -15 -16 -15c-4 0 -7 0.333008 -9 1
c-6 -56.667 -15.167 -113.5 -27.5 -170.5s-31.166 -111.5 -56.499 -163.5c-4 -8.66699 -10.5 -19.834 -19.5 -33.501s-19.167 -27.334 -30.5 -41.001s-23.166 -25.167 -35.499 -34.5s-23.833 -14 -34.5 -14zM80.001 52.999c8.66699 0 18.166 8.16797 28.499 24.501
s20.833 36.833 31.5 61.5s20.667 50.5 30 77.5l24.5 73l14.5 45.5c-1.33301 2.66699 -2.16602 5 -2.49902 7s-0.5 4 -0.5 6v12.5c0 5.66699 -1 11 -3 16s-6 7.5 -12 7.5c-12 0 -24.167 -8.33301 -36.5 -25s-24 -37.667 -35 -63s-20.667 -51.833 -29 -79.5
s-15 -52.834 -20 -75.501s-7.5 -39 -7.5 -49c0 -6 0.666992 -14 2 -24s6.33301 -15 15 -15zM75 -347c8 0 16.833 4.16895 26.5 12.502s19 18.666 28 30.999s17 24.333 24 36s12.167 20.834 15.5 27.501c24.667 48 43 98.5 55 151.5s20.333 106.167 25 159.5
c-18.667 -10 -37.167 -25.833 -55.5 -47.5s-35.833 -46.5 -52.5 -74.5s-31.5 -57.167 -44.5 -87.5s-23.167 -59.333 -30.5 -87s-11 -51.834 -11 -72.501c0 -4 0.333008 -9.83301 1 -17.5s2.5 -14.834 5.5 -21.501s7.5 -10 13.5 -10z" />
    <glyph glyph-name="h" unicode="h" horiz-adv-x="337" 
d="M81 7c-8 0 -14 5.83301 -18 17.5s-7 25.667 -9 42s-3.16699 31.666 -3.5 45.999s-0.5 23.833 -0.5 28.5c0 40.667 1.83301 84.167 5.5 130.5s9.66699 93.333 18 141s19.5 93.334 33.5 137.001s31.333 83.167 52 118.5c4.66699 8 11.667 12 21 12
c4 0 7.66699 -1.16699 11 -3.5s5 -5.83301 5 -10.5c0 -4 -1.33301 -8.66699 -4 -14l-55 -130.5c-17.333 -42.333 -31.333 -87.5 -42 -135.5c-14 -64 -21 -129 -21 -195c0 -32 2 -63.667 6 -95c3.33301 10.667 10 27 20 49s21.833 46.333 35.5 73
s28.334 52.334 44.001 77.001s30.834 44.834 45.501 60.501s27.667 23.5 39 23.5c12 0 19.833 -5.83301 23.5 -17.5s5.5 -22.167 5.5 -31.5c0 -26.667 -2 -53.334 -6 -80.001s-6 -53.667 -6 -81c0 -2.66699 0.333008 -9.83398 1 -21.501s2.16699 -22.834 4.5 -33.501
s5.5 -16 9.5 -16c6 0 12 3.83301 18 11.5s11.5 16.334 16.5 26.001l13.5 26c4 7.66699 7 11.5 9 11.5s3.33301 -1.5 4 -4.5s1 -5.16699 1 -6.5c0 -8.66699 -3.16699 -20.5 -9.5 -35.5s-14.5 -28.667 -24.5 -41s-20 -18.5 -30 -18.5c-9.33301 0 -16.833 4 -22.5 12
s-9.83398 17.667 -12.501 29s-4.5 22.333 -5.5 33s-1.5 19 -1.5 25c0 24 1.16699 48 3.5 72s3.5 48 3.5 72v8c0 4 -0.333008 7.83301 -1 11.5s-2.33398 5.5 -5.00098 5.5c-4 0 -9.66699 -4.5 -17 -13.5l-15 -18.5c-18 -22.667 -35.167 -49.667 -51.5 -81
s-30.5 -63.5 -42.5 -96.5s-20.667 -63.833 -26 -92.5c-0.666992 -5.33301 -2.5 -11 -5.5 -17s-7.83301 -9 -14.5 -9z" />
    <glyph glyph-name="i" unicode="i" horiz-adv-x="187" 
d="M125 393c-4.66699 0 -8.99902 1.16602 -12.999 3.49902s-6 5.83301 -6 10.5c0 5.33301 2.33301 13.5 7 24.5s10.667 22.167 18 33.5s15.166 21 23.499 29s15.833 12 22.5 12c5.33301 0 8 -3.33301 8 -10c0 -8 -4.33301 -14.333 -13 -19
c-5.33301 -3.33301 -9.83301 -9.66602 -13.5 -18.999s-6.66699 -19 -9 -29s-4.5 -18 -6.5 -24c-2 -8 -8 -12 -18 -12zM105.001 9.99902c-15.333 0 -26.667 6.49609 -34 19.4961s-12 28 -14 45s-3 30.833 -3 41.5c0 6.66699 0.833008 19 2.5 37s4 38.167 7 60.5
s6.66699 44.166 11 65.499s9.5 39 15.5 53s12.333 21 19 21c5.33301 0 10 -1.66699 14 -5s6 -7.66602 6 -12.999c0 -8 -2.33301 -20.667 -7 -38l-16.5 -59c-6.33301 -22 -12 -44.167 -17 -66.5s-7.5 -42.5 -7.5 -60.5c0 -4.66699 0.5 -12.667 1.5 -24
s3.16699 -21.833 6.5 -31.5s8.66602 -14.5 15.999 -14.5c10 0 21 7.33301 33 22s24.167 32.834 36.5 54.501s23.833 43.334 34.5 65.001l27 54.5c7.33301 14.667 12.333 22 15 22c3.33301 0 5.5 -1.16699 6.5 -3.5s1.5 -4.83301 1.5 -7.5
c0 -8.66699 -3.66699 -22.5 -11 -41.5s-17 -39.667 -29 -62s-25 -43.666 -39 -63.999s-27.667 -37.166 -41 -50.499s-24.666 -20 -33.999 -20z" />
    <glyph glyph-name="j" unicode="j" horiz-adv-x="186" 
d="M136 451c-4.66699 0 -9 1.16602 -13 3.49902s-6 5.83301 -6 10.5c0 5.33301 2.5 13.333 7.5 24s11.167 21.667 18.5 33s15 21 23 29s15.333 12 22 12c5.33301 0 8 -3 8 -9c0 -4.66699 -1.33301 -8.5 -4 -11.5s-5.66699 -5.5 -9 -7.5
c-5.33301 -3.33301 -9.83301 -9.66602 -13.5 -18.999s-6.66699 -19 -9 -29s-4.5 -18 -6.5 -24c-2 -8 -8 -12 -18 -12zM-28 -385.001c-12.667 0 -22.002 6.00098 -28.002 18.001s-9.83301 25.5 -11.5 40.5s-2.5 26.833 -2.5 35.5c0 81.333 16.667 159.333 50 234
s76.666 141.667 129.999 201l3 4c-3.33301 42.667 -8.33301 84.334 -15 125.001c-2 9.33301 -5 20.5 -9 33.5s-6 24.167 -6 33.5c0 7.33301 2.66699 13.5 8 18.5s11.666 7.5 18.999 7.5c4.66699 0 8.83398 -6 12.501 -18s6.83398 -27 9.50098 -45
s4.83398 -36.333 6.50098 -55s3 -35.334 4 -50.001s1.5 -24.334 1.5 -29.001c9.33301 4.66699 18.833 9.16699 28.5 13.5s19.5 6.5 29.5 6.5c2 0 4.33301 -0.333008 7 -1s4 -2.66699 4 -6c0 -2 -4.33301 -5 -13 -9l-29 -13.5c-10.667 -5 -19.334 -10.167 -26.001 -15.5
l1 -51c0.666992 -21.333 0.333984 -42.833 -0.999023 -64.5s-3 -43.167 -5 -64.5c-1.33301 -14 -5.16602 -34.167 -11.499 -60.5s-14.5 -55 -24.5 -86s-21.5 -61 -34.5 -90s-27 -53.667 -42 -74s-30.5 -32.833 -46.5 -37.5c-2 -0.666992 -5 -1 -9 -1zM-26.002 -355
c4 0 9.33301 2.66797 16 8.00098s11.334 9.33301 14.001 12c15.333 17.333 29.166 38.5 41.499 63.5s22.833 51.667 31.5 80s15.834 56.5 21.501 84.5s9.5 53 11.5 75c2 18.667 3.66699 37.167 5 55.5s1.66602 36.5 0.999023 54.5l-1 39c-26 -24.667 -48.667 -54 -68 -88
s-35.5 -70.167 -48.5 -108.5s-22.667 -76.833 -29 -115.5s-9.5 -75.334 -9.5 -110.001c0 -4.66699 0.333008 -11 1 -19s2 -15.167 4 -21.5s5 -9.5 9 -9.5z" />
    <glyph glyph-name="k" unicode="k" horiz-adv-x="299" 
d="M84 -20c-6.66699 0 -11.999 5.16602 -15.999 15.499s-7 22.833 -9 37.5s-3.16699 29 -3.5 43s-0.5 24.667 -0.5 32c0 26.667 1.16699 57.667 3.5 93s5.66602 72.666 9.99902 111.999s9.83301 78.333 16.5 117s14.334 74.667 23.001 108s18.334 62 29.001 86
c4.66699 11.333 12.667 17 24 17c4.66699 0 8.66699 -1.33301 12 -4s5 -6.66699 5 -12c0 -1.33301 -0.333008 -3.16602 -1 -5.49902s-1.33398 -4.16602 -2.00098 -5.49902l-47 -134.5c-15.333 -45 -26 -91.167 -32 -138.5c-4 -31.333 -7.83301 -63.333 -11.5 -96
s-5.5 -65 -5.5 -97c0 -8.66699 0.333008 -17.167 1 -25.5s2 -16.833 4 -25.5c3.33301 26.667 9.16602 53 17.499 79s15.833 51.667 22.5 77c-6.66699 8.66699 -10 19.667 -10 33c0 6.66699 2 14.834 6 24.501s10.667 12.167 20 7.5l10.5 28
c5 13.333 11.167 28.166 18.5 44.499s15 32.166 23 47.499s16.167 28 24.5 38s15.833 15 22.5 15c11.333 0 19.333 -4 24 -12s7.66699 -17.5 9 -28.5s2 -20.5 2 -28.5c0 -12.667 -1.5 -30.167 -4.5 -52.5s-8 -45.333 -15 -69s-16.333 -43.667 -28 -60
s-26.5 -24.5 -44.5 -24.5c-4.66699 0 -8.33398 0.333008 -11.001 1c1.33301 -9.33301 2.83301 -23 4.5 -41s4.66699 -36.667 9 -56s10.5 -35.666 18.5 -48.999s18.333 -20 31 -20c12 0 22.5 4.5 31.5 13.5s16.667 20.167 23 33.5s12 26.666 17 39.999s9.5 24.5 13.5 33.5
s8 13.5 12 13.5c2.66699 0 4.33398 -1.5 5.00098 -4.5s1 -5.16699 1 -6.5c0 -10.667 -3 -24.5 -9 -41.5s-13.833 -34 -23.5 -51s-20.667 -31.333 -33 -43s-24.833 -17.5 -37.5 -17.5c-20 0 -35.833 7.33301 -47.5 22s-20.5 33 -26.5 55s-10.333 43.833 -13 65.5
s-5 39.5 -7 53.5l-3 -1l-26.5 -109.5c-9 -36.333 -13.5 -73.166 -13.5 -110.499c0 -4 -1 -7.66699 -3 -11s-5.33301 -5 -10 -5zM181.001 245.999c13.333 0 24.001 7 32.001 21s14 31.167 18 51.5s6.66699 39.833 8 58.5s2 33 2 43c0 2 -0.333008 7.83301 -1 17.5
s-2.66699 14.5 -6 14.5c-6 0 -13 -7 -21 -21s-15.833 -30.5 -23.5 -49.5s-14.5 -36.667 -20.5 -53l-12 -32.5c3.33301 -8 5.66602 -16.167 6.99902 -24.5l4 -24.5c2 -0.666992 4.16699 -1 6.5 -1h6.5z" />
    <glyph glyph-name="l" unicode="l" horiz-adv-x="212" 
d="M130 -13c-18 0 -32.333 7.16602 -43 21.499s-18.334 32 -23.001 53s-7.66699 41.833 -9 62.5s-2 37 -2 49c0 67.333 7.66699 135.333 23 204c7.33301 32 14.5 60 21.5 84s14.5 46.333 22.5 67s17.167 42 27.5 64l35.5 75h-3c-4 0 -7.16699 1.83301 -9.5 5.5
s-3.5 7.16699 -3.5 10.5c0 8 5 14.667 15 20s18.333 8 25 8c14 0 24.667 -6.16699 32 -18.5s12.333 -26.333 15 -42s4 -28.834 4 -39.501c0 -13.333 -1 -27 -3 -41c-4.66699 -33.333 -12.834 -69 -24.501 -107s-26.334 -74.167 -44.001 -108.5s-39.167 -63.833 -64.5 -88.5
l-17.5 -14.5c-7 -5.66699 -14.167 -8.5 -21.5 -8.5c-2 -22.667 -3 -46 -3 -70c0 -8.66699 0.5 -21.5 1.5 -38.5s3.33301 -34.667 7 -53s9.33398 -34 17.001 -47s17.834 -19.5 30.501 -19.5c14 0 27.5 7.5 40.5 22.5s25.167 33.667 36.5 56s21.666 44.666 30.999 66.999
l23.5 56c6.33301 15 10.833 22.833 13.5 23.5c2 -2.66699 3 -6.66699 3 -12c0 -11.333 -3 -26.666 -9 -45.999s-14.167 -40.166 -24.5 -62.499s-22.166 -43.666 -35.499 -63.999s-27.166 -36.833 -41.499 -49.5s-28.833 -19 -43.5 -19zM85 262.999
c15.333 4 30.167 16.667 44.5 38s27.5 47.333 39.5 78s22.5 62.167 31.5 94.5s16 62 21 89s7.5 47.167 7.5 60.5c0 6.66699 -0.666992 15.167 -2 25.5s-6.33301 16.833 -15 19.5c-0.666992 -2.66699 -2.16699 -4.66699 -4.5 -6s-4.16602 -2.66602 -5.49902 -3.99902
c-8 -8.66699 -17 -25.334 -27 -50.001s-19.833 -53.667 -29.5 -87s-18.834 -67 -27.501 -101s-16 -65.167 -22 -93.5s-9.66699 -49.5 -11 -63.5z" />
    <glyph glyph-name="m" unicode="m" horiz-adv-x="494" 
d="M61 -14c-6 0 -9.99805 1.99805 -11.998 5.99805s-3 8.33301 -3 13v2c0 36 2.66699 69.667 8 101l15.5 95.5c5 32.333 7.5 67.833 7.5 106.5c0 10.667 -0.5 23.167 -1.5 37.5s-3.33301 28.5 -7 42.5s-9.16699 25 -16.5 33c-2.66699 2.66699 -4 6 -4 10
c0 6 2.66699 11.333 8 16s11 7.33398 17 8.00098l9 -4c8 -7.33301 13.667 -20.166 17 -38.499s5.33301 -36.833 6 -55.5s1 -33.334 1 -44.001c0 -14.667 -0.333008 -29.334 -1 -44.001s-1.66699 -29.667 -3 -45c3.33301 8.66699 8 19.834 14 33.501
s13.167 27.334 21.5 41.001s17.333 25.167 27 34.5s20.167 14 31.5 14s20 -6.16699 26 -18.5s10.167 -27.5 12.5 -45.5s3.83301 -35.167 4.5 -51.5s1 -28.5 1 -36.5c4 10 10.5 24.333 19.5 43s19.667 39 32 61s25.5 43 39.5 63s27.667 36.5 41 49.5s25.666 19.5 36.999 19.5
c9.33301 0 15.166 -5 17.499 -15s3.5 -18.333 3.5 -25c0 -26.667 -2.5 -53.667 -7.5 -81l-15 -83c-5 -28 -7.5 -56.333 -7.5 -85c0 -3.33301 0.166992 -10.666 0.5 -21.999s1.66602 -21.833 3.99902 -31.5s6.5 -14.5 12.5 -14.5c10 0 20.333 5 31 15s20.5 21.5 29.5 34.5
s16.667 24.667 23 35s10.5 15.5 12.5 15.5c2.66699 -2.66699 4 -6 4 -10c0 -6.66699 -3.66699 -16.667 -11 -30s-16.5 -27 -27.5 -41s-22.167 -25.833 -33.5 -35.5s-20.666 -14.5 -27.999 -14.5c-12.667 0 -22.5 6.33301 -29.5 19s-11.667 27 -14 43s-3.5 28.333 -3.5 37
c0 26 1.66699 51.833 5 77.5s7.33301 51.167 12 76.5c2.66699 13.333 6.16699 27.333 10.5 42s6.5 28.667 6.5 42c0 4 -1.33301 8 -4 12l-2 1c-4 0 -9.33301 -3.83301 -16 -11.5s-12.834 -15.834 -18.501 -24.501s-9.83398 -14.667 -12.501 -18
c-25.333 -36 -45.666 -73.167 -60.999 -111.5s-32.666 -77.166 -51.999 -116.499c-1.33301 -2.66699 -3.16602 -5.33398 -5.49902 -8.00098s-5.16602 -4 -8.49902 -4c-6.66699 0 -11.167 6.5 -13.5 19.5s-3.5 27.833 -3.5 44.5c0 15.333 0.5 29.833 1.5 43.5
s1.5 23.167 1.5 28.5c0 2.66699 -0.166992 8.33398 -0.5 17.001s-1 18 -2 28s-2.33301 18.667 -4 26s-4.16699 11 -7.5 11c-6.66699 0 -11.834 -2.66699 -15.501 -8l-10.5 -16c-19.333 -32.667 -35 -66.334 -47 -101.001c-10.667 -32 -18.334 -64.833 -23.001 -98.5
s-12.667 -66.167 -24 -97.5c-2 -8 -7 -12 -15 -12z" />
    <glyph glyph-name="n" unicode="n" horiz-adv-x="286" 
d="M68 -4c-4.66699 0 -8.16699 1.83301 -10.5 5.5s-3.5 7.83398 -3.5 12.501c0 37.333 2.16699 74.833 6.5 112.5s6.5 75.167 6.5 112.5c0 4 -0.166992 11.833 -0.5 23.5s-1 24.334 -2 38.001s-2.33301 26 -4 37s-3.83398 17.833 -6.50098 20.5
c-2.66699 2 -5.16699 4.33301 -7.5 7s-3.5 6 -3.5 10s1.83301 7.16699 5.5 9.5s7.5 3.5 11.5 3.5c11.333 0 19.5 -5.16699 24.5 -15.5s8.33301 -22.833 10 -37.5s2.5 -28.667 2.5 -42c0 -62.667 -2 -125.667 -6 -189c2.66699 7.33301 8 20.333 16 39s17.667 39.667 29 63
s23.166 45.833 35.499 67.5s23.833 39.667 34.5 54s19.334 21.5 26.001 21.5c9.33301 0 16.166 -5.83301 20.499 -17.5s6.5 -21.167 6.5 -28.5c0 -30.667 -1.5 -61.334 -4.5 -92.001s-4.5 -61.667 -4.5 -93c0 -4 0.5 -11.5 1.5 -22.5s3 -21.333 6 -31
s7.83301 -14.5 14.5 -14.5c5.33301 0 12.333 6 21 18s17.667 26.167 27 42.5s17.666 31.833 24.999 46.5s12.333 25 15 31c0.666992 1.33301 1.33398 2.83301 2.00098 4.5s1.66699 2.5 3 2.5c3.33301 0 5.33301 -2.5 6 -7.5s1 -8.16699 1 -9.5
c0 -6.66699 -3.66699 -18.334 -11 -35.001s-16.5 -34.334 -27.5 -53.001s-22.333 -34.667 -34 -48s-22.167 -20 -31.5 -20c-13.333 0 -23.166 5.33301 -29.499 16s-10.5 22.834 -12.5 36.501s-3 25.167 -3 34.5c0 22 1.16699 44 3.5 66s3.5 44 3.5 66
c0 2 -0.166992 7 -0.5 15s-0.833008 15.667 -1.5 23s-2.33398 11 -5.00098 11c-6.66699 0 -15.167 -8.33301 -25.5 -25s-21.333 -37.667 -33 -63l-34.5 -78.5l-29.5 -72.5c-8.33301 -21.333 -14.166 -35.666 -17.499 -42.999
c-1.33301 -2.66699 -3.16602 -5.33398 -5.49902 -8.00098s-5.5 -4 -9.5 -4z" />
    <glyph glyph-name="o" unicode="o" horiz-adv-x="297" 
d="M121 -16c-12.667 0 -23.166 4.66895 -31.499 14.002s-14.833 20.833 -19.5 34.5s-7.83398 27.5 -9.50098 41.5s-2.5 25.667 -2.5 35c0 10 1.16699 26.167 3.5 48.5s6.16602 47.166 11.499 74.499s12 53.833 20 79.5s17.5 47.167 28.5 64.5s23.833 26.666 38.5 27.999
c2 6 5 11.167 9 15.5s9.33301 6.5 16 6.5c13.333 0 25 -5.66699 35 -17s18.333 -25.333 25 -42s11.834 -33 15.501 -49s5.5 -29 5.5 -39c0 -30.667 -3 -61 -9 -91l8 -1c19.333 0 34.333 3 45 9s19 11.833 25 17.5s11 8.5 15 8.5s6 -2.33301 6 -7
c0 -8 -4.16699 -15.167 -12.5 -21.5s-18.5 -12 -30.5 -17s-23.667 -8.5 -35 -10.5s-20 -2.33301 -26 -1c-3.33301 -14 -8.83301 -31.167 -16.5 -51.5s-17 -40.333 -28 -60s-23.833 -36.167 -38.5 -49.5s-30.667 -20 -48 -20zM230.001 208.002
c4 23.333 5.99902 46.999 5.99902 70.999c0 5.33301 -1.16699 14.5 -3.5 27.5s-5.66602 26.833 -9.99902 41.5s-9.5 27.334 -15.5 38.001s-12.333 16 -19 16c-3.33301 0 -5.83301 -2.5 -7.5 -7.5s-2.66699 -10.5 -3 -16.5s-0.5 -10 -0.5 -12
c0 -26.667 4.16699 -54.5 12.5 -83.5s21.833 -53.833 40.5 -74.5zM124 10.001c10 0 20.3301 6.83301 30.9971 20.5s20.834 30.334 30.501 50.001s17.834 38.5 24.501 56.5s11 31.333 13 40c-25.333 17.333 -44.166 40.666 -56.499 69.999s-18.5 59.333 -18.5 90
c0 13.333 1 26 3 38c-14 -24 -25.667 -52.333 -35 -85s-16.166 -66 -20.499 -100s-6.5 -65 -6.5 -93c0 -6.66699 0.833008 -17 2.5 -31s5.16699 -26.833 10.5 -38.5s12.666 -17.5 21.999 -17.5z" />
    <glyph glyph-name="p" unicode="p" horiz-adv-x="260" 
d="M98 -258c-12.667 0 -23.335 5.66602 -32.002 16.999s-15.334 25.833 -20.001 43.5s-8.16699 36 -10.5 55s-3.83301 36.667 -4.5 53s-1 28.833 -1 37.5c0 46 3.33301 93.333 10 142s15.334 97.167 26.001 145.5s22 94.166 34 137.499
c-5.33301 1.33301 -9.16602 5.16602 -11.499 11.499s-3.5 11.833 -3.5 16.5c0 12 4 18 12 18c4.66699 0 10 -1 16 -3l6.5 15.5c2.33301 5.66699 6.5 8.5 12.5 8.5c4 0 7.66699 -1.33301 11 -4s5 -6.33398 5 -11.001c0 -2.66699 -0.833008 -6.16699 -2.5 -10.5
s-3.16699 -7.83301 -4.5 -10.5c25.333 -14.667 48.833 -32.834 70.5 -54.501s34.167 -48.167 37.5 -79.5l16.5 12l25 17.5c8.33301 5.66699 13.5 8.5 15.5 8.5c3.33301 0 5 -1.66699 5 -5c0 -2.66699 -4.33301 -8.16699 -13 -16.5s-18 -16.5 -28 -24.5
s-16.667 -13.667 -20 -17c0 -18.667 -4.5 -40.5 -13.5 -65.5s-21.167 -49.167 -36.5 -72.5s-33 -42.666 -53 -57.999s-40.667 -23 -62 -23c-11.333 0 -17 5.33301 -17 16c0 13.333 5.83301 29.666 17.5 48.999s26 39.333 43 60s33.833 39.5 50.5 56.5
s30.334 29.833 41.001 38.5v7c1.33301 28.667 -7.66699 52 -27 70s-40.666 33 -63.999 45c-20.667 -68 -38 -139.167 -52 -213.5s-21 -147.166 -21 -218.499c0 -7.33301 0.333008 -20.166 1 -38.499s2.5 -37.666 5.5 -57.999s7.66699 -37.833 14 -52.5
s15.166 -22 26.499 -22c8.66699 0 16.334 4 23.001 12s12.667 16 18 24s9.66602 12 12.999 12c2.66699 0 4 -2.33301 4 -7c0 -7.33301 -3.66699 -16.166 -11 -26.499s-16 -19.166 -26 -26.499s-18.667 -11 -26 -11zM92.999 48.999c14 0 27.667 6.16895 41 18.502
s25.5 27.666 36.5 45.999s20.5 36.5 28.5 54.5s13.333 32.333 16 43c-4 -4 -10.833 -11.5 -20.5 -22.5l-32.5 -38l-34.5 -42c-11 -13.667 -20.167 -25.834 -27.5 -36.501s-11 -17.667 -11 -21c0 -1.33301 1.33301 -2 4 -2z" />
    <glyph glyph-name="q" unicode="q" horiz-adv-x="260" 
d="M206 -263c-16 0 -28.501 7.00684 -37.501 21.0068s-15.667 31.167 -20 51.5s-7 40.166 -8 59.499s-1.5 34.333 -1.5 45c0 29.333 1.66699 59 5 89s7.66602 59.333 12.999 88c-4.66699 -9.33301 -11.334 -20.833 -20.001 -34.5s-18.5 -25.667 -29.5 -36
s-22.833 -15.5 -35.5 -15.5c-16 0 -27.667 6.16699 -35 18.5s-12 26.666 -14 42.999s-3 30.166 -3 41.499c0 28 2.83301 57.833 8.5 89.5s12.834 60.834 21.501 87.501c4 10.667 10 24.167 18 40.5s17.5 32.666 28.5 48.999s22.833 30 35.5 41s25.667 16.5 39 16.5
c34.667 0 52 -17.333 52 -52c0 -4.66699 -1.83301 -9.16699 -5.5 -13.5s-8.16699 -6.5 -13.5 -6.5c-6 0 -9.5 1.66699 -10.5 5s-1.66699 7.16602 -2 11.499s-2 8.16602 -5 11.499s-9.16699 5 -18.5 5c-16 0 -30.333 -8 -43 -24s-23.834 -36.333 -33.501 -61
s-17.667 -50.5 -24 -77.5s-11.166 -52 -14.499 -75s-5 -40.5 -5 -52.5c0 -6 0.5 -14.333 1.5 -25s3.5 -20.334 7.5 -29.001s10.333 -13 19 -13c8 0 17.333 7 28 21s21.334 30.667 32.001 50s20 37.833 28 55.5s13.333 30.167 16 37.5s6.33398 20.666 11.001 39.999
s10.167 39.666 16.5 60.999s13.333 39.666 21 54.999s15.834 23 24.501 23c1.33301 0 3.33301 -0.666992 6 -2c2 -1.33301 3.16699 -3.33301 3.5 -6s0.5 -5.33398 0.5 -8.00098c0 -16.667 -3.66699 -35.5 -11 -56.5s-15.666 -41.5 -24.999 -61.5s-17 -38 -23 -54
c-8.66699 -24 -15.667 -52.833 -21 -86.5s-9.33301 -67.5 -12 -101.5s-4 -64 -4 -90c0 -6 0.166992 -16.833 0.5 -32.5s1.66602 -32.167 3.99902 -49.5s6.16602 -32.166 11.499 -44.499s13 -18.5 23 -18.5c10.667 0 20.667 5.83301 30 17.5s18 25.334 26 41.001
s14.667 29.334 20 41.001s9.33301 17.5 12 17.5s4.33398 -1.66699 5.00098 -5s1 -5.66602 1 -6.99902c0 -8 -3.16699 -19.333 -9.5 -34s-14.333 -29.834 -24 -45.501s-19.834 -29 -30.501 -40s-20.667 -16.5 -30 -16.5z" />
    <glyph glyph-name="r" unicode="r" horiz-adv-x="250" 
d="M85 3c-4.66699 0 -8.33203 1.66992 -10.999 5.00293s-4 7.33301 -4 12c0 25.333 1.16699 50.833 3.5 76.5s3.5 51.167 3.5 76.5c0 16.667 -0.5 37.834 -1.5 63.501s-3.33301 51 -7 76s-9.83398 44.167 -18.501 57.5c-0.666992 1.33301 -1.33398 2.5 -2.00098 3.5
s-1 2.16699 -1 3.5c0 4 2 6.83301 6 8.5s7.33301 2.5 10 2.5c9.33301 0 16.666 -5.33301 21.999 -16s9.33301 -24.334 12 -41.001s4.5 -33.834 5.5 -51.501s1.5 -33.667 1.5 -48v-29.5c0 -6.66699 0.166992 -13 0.5 -19s0.5 -12.333 0.5 -19
c2.66699 9.33301 7.33398 23.666 14.001 42.999s14.667 40.833 24 64.5s19.5 46.334 30.5 68.001s22 39.5 33 53.5s21.5 21 31.5 21s17.333 -6.33301 22 -19s7.83398 -26.334 9.50098 -41.001s2.5 -25.667 2.5 -33c0 -4.66699 -0.333008 -12.5 -1 -23.5
s-2.16699 -21.167 -4.5 -30.5s-6.5 -14 -12.5 -14c-5.33301 0 -8 6 -8 18c0 5.33301 0.333008 10.333 1 15s1 8.33398 1 11.001c0 3.33301 -0.333008 11.166 -1 23.499s-2.16699 24.166 -4.5 35.499s-5.5 17 -9.5 17s-8.83301 -3.83301 -14.5 -11.5
s-11.334 -16.667 -17.001 -27s-10.667 -20.333 -15 -30s-7.16602 -16.5 -8.49902 -20.5c-10 -24.667 -20.5 -52.667 -31.5 -84s-20.333 -62.833 -28 -94.5s-11.5 -61.167 -11.5 -88.5c-4.66699 -9.33301 -12 -14 -22 -14z" />
    <glyph glyph-name="s" unicode="s" horiz-adv-x="246" 
d="M84 -3c-12 0 -17.9971 5.99707 -17.9971 17.9971c0 11.333 4.16699 24.166 12.5 38.499s18.5 29 30.5 44s24.167 28.833 36.5 41.5l30.5 31c-9.33301 4.66699 -20.833 8.83398 -34.5 12.501s-27.334 8 -41.001 13s-25 11.667 -34 20s-13.5 19.5 -13.5 33.5
c0 14.667 5.5 31.334 16.5 50.001s25.167 36.834 42.5 54.501s35 32.334 53 44.001s34 17.5 48 17.5c8.66699 0 17.167 -2.16699 25.5 -6.5s12.5 -11.5 12.5 -21.5c0 -2.66699 -0.666992 -6.33398 -2 -11.001s-3.66602 -7 -6.99902 -7c-4.66699 0 -8.5 2.5 -11.5 7.5
s-6.5 7.5 -10.5 7.5c-11.333 0 -24.833 -4.66699 -40.5 -14s-30.834 -21.166 -45.501 -35.499s-26.834 -29.166 -36.501 -44.499s-14.5 -29 -14.5 -41c0 -8 4.66699 -15 14 -21s20.5 -11 33.5 -15l38.5 -11.5c12.667 -3.66699 22 -7.5 28 -11.5
c3.33301 3.33301 9 8.66602 17 15.999l27 24c10 8.66699 19.167 16 27.5 22s14.166 9 17.499 9c2.66699 0 4 -1.33301 4 -4c0 -3.33301 -3.16699 -8.83301 -9.5 -16.5s-14 -15.834 -23 -24.501l-25.5 -24.5l-17 -16.5c6 -10 9 -20.667 9 -32s-5 -25.166 -15 -41.499
s-22.5 -32.5 -37.5 -48.5s-30.5 -29.333 -46.5 -40s-29.667 -16 -41 -16zM122.003 47.9971c6 0 13.167 3.33301 21.5 10s16.5 15 24.5 25s14.833 19.833 20.5 29.5s8.5 17.5 8.5 23.5c0 6.66699 -1.33301 11.667 -4 15l-18.5 -19c-8.33301 -8.66699 -17 -18.167 -26 -28.5
s-16.667 -20 -23 -29s-9.5 -15.833 -9.5 -20.5c0 -4 2 -6 6 -6z" />
    <glyph glyph-name="t" unicode="t" horiz-adv-x="237" 
d="M137 17c-14.667 0 -26.3359 5.16211 -35.0029 15.4951s-15.167 23.333 -19.5 39s-7.16602 31.334 -8.49902 47.001s-2 28.5 -2 38.5c0 36 1.5 72.333 4.5 109s6.16699 73 9.5 109c-11.333 -4.66699 -22.166 -10 -32.499 -16s-19.833 -13.667 -28.5 -23
c-1.33301 -1.33301 -2.83301 -2.66602 -4.5 -3.99902s-3.83398 -2 -6.50098 -2c-4.66699 0 -9.16699 2.33301 -13.5 7s-6.5 9.33398 -6.5 14.001c0 6 4 12.167 12 18.5s17.833 12.333 29.5 18s22.667 10.5 33 14.5s17.5 6.66699 21.5 8
c0.666992 5.33301 2.16699 15.5 4.5 30.5s5.16602 32 8.49902 51s7.16602 37.333 11.499 55s8.83301 32.334 13.5 44.001s9.33398 17.5 14.001 17.5s9.33398 -1.66699 14.001 -5s7 -7.33301 7 -12c0 -2 -1.66699 -10.333 -5 -25s-7.5 -31.834 -12.5 -51.501
s-9.33301 -38.167 -13 -55.5l-7.5 -36c29.333 8.66699 57.5 15.667 84.5 21s55.5 8 85.5 8h15c7.33301 0 14.5 -0.333008 21.5 -1s10.5 -2 10.5 -4c-6.66699 -2.66699 -13.834 -4.66699 -21.501 -6s-15.167 -2.33301 -22.5 -3c-32 -2.66699 -62.167 -8.66699 -90.5 -18
s-57.166 -19.666 -86.499 -30.999c-4.66699 -38 -8.66699 -76.5 -12 -115.5s-5 -77.5 -5 -115.5c0 -7.33301 0.333008 -17.166 1 -29.499s2 -24.666 4 -36.999s5.33301 -22.833 10 -31.5s11.334 -13 20.001 -13c11.333 0 23 6.5 35 19.5s24 29 36 48s23 38.167 33 57.5
s18.833 35.666 26.5 48.999s12.834 20.333 15.501 21v-3c0 -10 -3.33301 -24 -10 -42s-15.5 -37.167 -26.5 -57.5s-23 -39.833 -36 -58.5s-26 -34 -39 -46s-25.167 -18 -36.5 -18z" />
    <glyph glyph-name="u" unicode="u" horiz-adv-x="296" 
d="M69 23c-10.667 0 -19.1729 4.33008 -25.5059 12.9971s-11.166 19.5 -14.499 32.5s-5.5 25.667 -6.5 38s-1.5 22.166 -1.5 29.499c0 6.66699 0.166992 13.334 0.5 20.001s0.833008 13.334 1.5 20.001c2.66699 20.667 6.33398 41.167 11.001 61.5
s8.33398 40.833 11.001 61.5c1.33301 10.667 2.33301 21 3 31l2 31c0.666992 3.33301 1.66699 6.5 3 9.5s4 4.5 8 4.5c7.33301 0 11.833 -3.16699 13.5 -9.5s2.5 -12.166 2.5 -17.499c0 -24 -2.33301 -47.667 -7 -71l-14 -70c-4.66699 -23.333 -7 -47 -7 -71
c0 -2.66699 0.166992 -8.5 0.5 -17.5s1.16602 -18.667 2.49902 -29s3.5 -19.166 6.5 -26.499s6.83301 -11 11.5 -11c6 0 13.833 7 23.5 21s19.667 30.833 30 50.5l28 55c8.33301 17 13.833 28.5 16.5 34.5c9.33301 20.667 15.5 39.667 18.5 57s5.16699 33.5 6.5 48.5
s4.66602 29.833 9.99902 44.5c3.33301 8 8.33301 12 15 12c10 0 15 -6 15 -18c0 -20.667 -2.33301 -45.5 -7 -74.5s-7 -57.5 -7 -85.5v-22v-21.5c0 -9.66699 0.833008 -19.834 2.5 -30.501s4.33398 -19.667 8.00098 -27s9.16699 -11 16.5 -11c8.66699 0 17.334 5 26.001 15
s16.834 21.667 24.501 35l19.5 35c5.33301 10 9.33301 15 12 15c4 0 6 -2.66699 6 -8c0 -6 -3.16699 -15.5 -9.5 -28.5s-14.333 -26.5 -24 -40.5s-19.667 -26 -30 -36s-19.166 -15 -26.499 -15c-15.333 0 -26.833 6.33301 -34.5 19s-13 28.334 -16 47.001
s-4.5 36.834 -4.5 54.501v41.5c-2.66699 -8 -7 -19.833 -13 -35.5s-13 -32.667 -21 -51s-16.667 -35.833 -26 -52.5s-19.166 -30.334 -29.499 -41.001s-20.5 -16 -30.5 -16z" />
    <glyph glyph-name="v" unicode="v" horiz-adv-x="214" 
d="M102 13c-6 0 -9.83398 2.16797 -11.501 6.50098s-2.5 8.83301 -2.5 13.5c0 11.333 0.833008 22.833 2.5 34.5s2.5 23.167 2.5 34.5c0 7.33301 -1 19 -3 35s-4.83301 34.167 -8.5 54.5s-7.83398 40.333 -12.501 60s-9.83398 36.667 -15.501 51s-11.167 23.5 -16.5 27.5
c-2.66699 2 -5 4.16699 -7 6.5s-3 5.16602 -3 8.49902c0 6.66699 2.33301 10.667 7 12s9.33398 2 14.001 2c8.66699 0 16.667 -7 24 -21s14 -31.667 20 -53s11 -43.333 15 -66s7.33301 -42.834 10 -60.501s4.33398 -29.834 5.00098 -36.501l18 39.5l30.5 64.5
c11.667 24 23.5 47.167 35.5 69.5s22.833 40.833 32.5 55.5s16.834 22 21.501 22c6 0 9 -3.33301 9 -10l-65 -122c-16.667 -36 -32 -71.667 -46 -107s-27.667 -71.666 -41 -108.999c-1.33301 -3.33301 -3 -6.16602 -5 -8.49902s-5.33301 -3.5 -10 -3.5z" />
    <glyph glyph-name="w" unicode="w" horiz-adv-x="315" 
d="M196 18c-13.333 0 -24.3311 6.66699 -32.998 20s-15.334 28.333 -20.001 45s-8 30 -10 40l-11.5 -25.5c-5 -11 -10.833 -22.5 -17.5 -34.5s-13.667 -22 -21 -30s-14.666 -12 -21.999 -12c-10 0 -17.833 5 -23.5 15s-9.66699 21.167 -12 33.5s-3.5 22.166 -3.5 29.499
c0 5.33301 0.666992 16 2 32s3.33301 34.333 6 55s5.83398 40.834 9.50098 60.501s8 36 13 49s10.5 19.5 16.5 19.5s9 -3.33301 9 -10c0 -4 -0.333008 -6.66699 -1 -8c-7.33301 -32.667 -14 -64.834 -20 -96.501s-9 -64.5 -9 -98.5c0 -3.33301 0.166992 -8.33301 0.5 -15
s1.66602 -12.667 3.99902 -18s6.16602 -8 11.499 -8c4 0 9.33301 4.5 16 13.5s13.334 19.667 20.001 32s12.5 24.166 17.5 35.499s8.5 19 10.5 23c-0.666992 3.33301 -1 6.66602 -1 9.99902v10c0 6.66699 0.166992 17.334 0.5 32.001s1.66602 30.167 3.99902 46.5
s6.16602 30.333 11.499 42s12.666 17.5 21.999 17.5c8 0 13.333 -3.33301 16 -10s4 -13.334 4 -20.001c0 -10.667 -1.83301 -23.5 -5.5 -38.5s-8 -29.833 -13 -44.5s-9.5 -27 -13.5 -37c0 -5.33301 0.833008 -14.666 2.5 -27.999s4.16699 -27.5 7.5 -42.5
s7.66602 -27.833 12.999 -38.5s11.666 -16 18.999 -16c6 0 12.667 4 20 12s14.333 17 21 27s11.334 17.333 14.001 22c30 56.667 45 116.334 45 179.001c0 8.66699 -1.5 19.834 -4.5 33.501s-7.33301 26.667 -13 39s-13.167 20.166 -22.5 23.499l-9 4.5
c-3.33301 1.66699 -5 4.83398 -5 9.50098c0 1.33301 0.666992 3 2 5s3 3 5 3c11.333 0 21.5 -4.33301 30.5 -13s16.833 -19.667 23.5 -33s11.667 -26.5 15 -39.5s5 -24.167 5 -33.5c0 -34 -4.33301 -67.5 -13 -100.5s-21 -64.5 -37 -94.5
c-3.33301 -6 -9.66602 -15 -18.999 -27s-19.166 -22.833 -29.499 -32.5s-19.5 -14.5 -27.5 -14.5z" />
    <glyph glyph-name="x" unicode="x" horiz-adv-x="206" 
d="M43 -23c-6 0 -9.50293 3.50195 -10.5029 10.502s-1.5 12.833 -1.5 17.5c0 11.333 2.33301 26.666 7 45.999s10.834 40 18.501 62s15.667 42.167 24 60.5s16.166 31.5 23.499 39.5c-8.66699 17.333 -18.167 31.5 -28.5 42.5s-24.166 20.833 -41.499 29.5
c-6 3.33301 -9 7.66602 -9 12.999c0 4.66699 1.33301 9.16699 4 13.5s6.33398 6.5 11.001 6.5c10 0 20.333 -4.83301 31 -14.5s20.334 -20.5 29.001 -32.5s15 -21.667 19 -29c3.33301 6 9.33301 16.167 18 30.5s18.5 29.5 29.5 45.5s21.833 29.667 32.5 41s19.667 17 27 17
c4 0 7.5 -1.66699 10.5 -5s4.5 -7 4.5 -11l-9.5 -14l-24.5 -34.5l-30 -42l-26.5 -38c-7.66699 -11 -12.5 -18.167 -14.5 -21.5c3.33301 -6.66699 7.83301 -17 13.5 -31s11.334 -29 17.001 -45s10.5 -31 14.5 -45s6 -24.333 6 -31s-3.66699 -10 -11 -10
c-2.66699 0 -4.83398 1.16699 -6.50098 3.5s-3.16699 4.83301 -4.5 7.5l-22.5 59.5l-23.5 59.5c-14.667 -28 -29.167 -57.333 -43.5 -88s-21.5 -62.334 -21.5 -95.001c0 -3.33301 -0.5 -7.16602 -1.5 -11.499s-4.16699 -6.5 -9.5 -6.5z" />
    <glyph glyph-name="y" unicode="y" horiz-adv-x="283" 
d="M21 -365c-16 0 -27.6729 5.49902 -35.0059 16.499s-12.166 24.167 -14.499 39.5s-3.5 28.666 -3.5 39.999c0 27.333 3.5 58.5 10.5 93.5s17.833 69.333 32.5 103s33.334 63 56.001 88s49.334 41.167 80.001 48.5c2 0.666992 5 1 9 1c13.333 0 22.166 -5.66699 26.499 -17
s6.5 -22.333 6.5 -33c0 -4 -0.666992 -11.5 -2 -22.5s-3.83301 -21.167 -7.5 -30.5s-8.5 -14 -14.5 -14c-2.66699 0 -4.83398 1.16699 -6.50098 3.5s-2.5 4.83301 -2.5 7.5c0 9.33301 1.66699 18.666 5 27.999s5 18.666 5 27.999c0 7.33301 -0.833008 13 -2.5 17
s-6.5 6 -14.5 6c-5.33301 0 -13 -3.16699 -23 -9.5s-17 -11.166 -21 -14.499c-24 -20 -44.167 -44.833 -60.5 -74.5s-28.666 -61 -36.999 -94s-12.5 -65.167 -12.5 -96.5c0 -6 0.333008 -15.667 1 -29s2.83398 -25.833 6.50098 -37.5s9.83398 -17.5 18.501 -17.5
c12 0 25 6.66699 39 20s27.667 29.5 41 48.5s25 37.667 35 56s17 32.833 21 43.5c22 60.667 40 121 54 181s21 122.333 21 187c0 24.667 -1 49.334 -3 74.001c-4 -10.667 -10.167 -24.5 -18.5 -41.5s-18 -35.167 -29 -54.5s-22.667 -37.666 -35 -54.999s-25 -31.5 -38 -42.5
s-25.833 -16.5 -38.5 -16.5c-8 0 -13.833 3.16699 -17.5 9.5s-6 13.666 -7 21.999s-1.5 15.166 -1.5 20.499c0 7.33301 1 19.666 3 36.999s4.66699 37 8 59s7 44 11 66s7.83301 41.833 11.5 59.5s6.83398 30.167 9.50098 37.5c3.33301 8 8.33301 12 15 12
c4.66699 0 9 -1.66699 13 -5s6 -7.66602 6 -12.999c0 -22.667 -3.83301 -47.334 -11.5 -74.001l-22.5 -80.5c-7.33301 -27 -11 -53.5 -11 -79.5c0 -2 0.333008 -7.66699 1 -17s2.33398 -14 5.00098 -14c1.33301 0 2.33301 -0.166992 3 -0.5
s1.33398 -0.166016 2.00098 0.500977c18 6.66699 34.667 20.5 50 41.5s29.166 45.167 41.499 72.5s22.666 54.333 30.999 81s14.5 48.334 18.5 65.001c0.666992 2.66699 1.66699 5.33398 3 8.00098s3.66602 4 6.99902 4c6 0 10.833 -7.16699 14.5 -21.5
s6.33398 -31.333 8.00098 -51s2.83398 -37.667 3.50098 -54s1 -26.166 1 -29.499c0 -70.667 -8.16699 -140.667 -24.5 -210s-38.833 -136.333 -67.5 -201c-5.33301 -12 -13.5 -27.667 -24.5 -47s-23.667 -38.833 -38 -58.5s-29.333 -36.167 -45 -49.5s-30.5 -20 -44.5 -20z
" />
    <glyph glyph-name="z" unicode="z" horiz-adv-x="285" 
d="M68 6c-6 0 -10.8311 2.66406 -14.498 7.99707s-5.5 10.666 -5.5 15.999c0 10.667 5.83301 25.334 17.5 44.001s26.667 39.334 45 62.001l57 67.5l54.5 60l38 39.5h-12c-16.667 0 -32.834 -2.16699 -48.501 -6.5s-28.5 -8.66602 -38.5 -12.999s-15.333 -6.5 -16 -6.5
c-3.33301 0 -6.5 1.33301 -9.5 4s-4.5 5.66699 -4.5 9c0 7.33301 4.33301 13.833 13 19.5s19 10.167 31 13.5s23.5 5.83301 34.5 7.5s19.167 2.5 24.5 2.5c4.66699 0 12.5 -0.333008 23.5 -1s21.167 -2.5 30.5 -5.5s14 -8.16699 14 -15.5
c0 -5.33301 -2.66699 -10.666 -8 -15.999l-101.5 -109c-33.667 -36.667 -64.834 -75.667 -93.501 -117c20 12 37.667 21 53 27s35 9 59 9c3.33301 0 9.66602 -0.333008 18.999 -1s19.5 -1.83398 30.5 -3.50098s20.333 -4 28 -7s11.5 -6.83301 11.5 -11.5
c0 -3.33301 -2.33301 -6.66602 -7 -9.99902c-8.66699 4 -18.5 6.5 -29.5 7.5s-21.167 1.5 -30.5 1.5c-26.667 0 -54.167 -5.5 -82.5 -16.5s-50.833 -27.167 -67.5 -48.5c-2 -2.66699 -4.16699 -5 -6.5 -7s-5.16602 -3 -8.49902 -3z" />
    <glyph glyph-name="braceleft" unicode="{" horiz-adv-x="396" 
d="M282 -73c-32.667 0 -59.3291 7.49512 -79.9961 22.4951s-31 39.5 -31 73.5c0 23.333 3.5 46.333 10.5 69l21 67c7 22 10.5 43.667 10.5 65c0 17.333 -6.33301 35.333 -19 54s-27.334 31.334 -44.001 38.001c0.666992 2 5.5 6.33301 14.5 13l33 24.5
c13 9.66699 25.833 20.334 38.5 32.001s23 23.834 31 36.501c13.333 20 25.833 40 37.5 60l35.5 61c17.333 28.667 33.166 52.334 47.499 71.001s31.666 32.834 51.999 42.501s48.166 14.834 83.499 15.501c-4 -10 -11.833 -17.333 -23.5 -22s-22.167 -8 -31.5 -10
c-30 -6 -54 -20 -72 -42s-32.333 -47.167 -43 -75.5l-30 -81.5c-10 -28 -26.167 -50.833 -48.5 -68.5s-45.833 -33.5 -70.5 -47.5c11.333 -6.66699 22.833 -16.5 34.5 -29.5s17.5 -26.833 17.5 -41.5c0 -24.667 -4.5 -48.834 -13.5 -72.501l-27.5 -71
c-9.33301 -23.667 -14 -48.167 -14 -73.5c0 -20 4.66699 -35.667 14 -47s21.5 -20 36.5 -26s30.833 -11 47.5 -15c2 -0.666992 5.83301 -1.66699 11.5 -3s8.5 -4 8.5 -8c0 -3.33301 -2.66699 -5.83301 -8 -7.5s-11 -2.66699 -17 -3s-10 -0.5 -12 -0.5z" />
    <glyph glyph-name="bar" unicode="|" horiz-adv-x="146" 
d="M64 -10c-4.66699 0 -7.99902 3.33398 -9.99902 10.001v27.5c0 18.333 0.166992 43 0.5 74s0.5 65.833 0.5 104.5v121v121v130.5c0 38.333 -0.333008 64.833 -1 79.5c0 4 1.66699 7.16699 5 9.5s6.66602 3.5 9.99902 3.5c8.66699 0 13 -4.33301 13 -13
c0 -10.667 -0.166992 -30.334 -0.5 -59.001s-0.5 -63 -0.5 -103v-127.5c0 -45 -0.166992 -89.167 -0.5 -132.5s-0.5 -82.833 -0.5 -118.5v-85.5v-32c-6.66699 -6.66699 -12 -10 -16 -10z" />
    <glyph glyph-name="braceright" unicode="}" horiz-adv-x="418" 
d="M50 -109c2 10.667 8.32715 19.4961 18.9941 26.4961s20.334 12.167 29.001 15.5c21.333 8.66699 38.333 21.334 51 38.001s22.334 35.667 29.001 57s11.834 43.166 15.501 65.499s6.83398 43.166 9.50098 62.499c4 29.333 15.5 54.833 34.5 76.5
s38.833 41.834 59.5 60.501c-21.333 8 -37.833 18.833 -49.5 32.5s-17.5 32.167 -17.5 55.5c0 28 3 55.667 9 83s9 55 9 83c0 26.667 -4.66699 46.834 -14 60.501s-22.666 22.834 -39.999 27.501s-38 7.33398 -62 8.00098c-1.33301 0.666992 -5.16602 1.16699 -11.499 1.5
s-9.5 2.5 -9.5 6.5c0 5.33301 4.83301 9.5 14.5 12.5s20 5 31 6s18.5 1.5 22.5 1.5c26.667 0 47 -5.66699 61 -17s23.5 -26.5 28.5 -45.5s7.5 -40.167 7.5 -63.5c0 -22 -1.16699 -44.167 -3.5 -66.5s-3.5 -44.5 -3.5 -66.5c0 -22.667 7.5 -43.834 22.5 -63.501
s33.833 -31.834 56.5 -36.501c0 -2.66699 -3.83301 -8 -11.5 -16l-27.5 -30c-10.667 -12 -21.167 -25 -31.5 -39s-18.166 -28 -23.499 -42l-25 -66l-24 -66c-10.667 -31.333 -21.334 -57.666 -32.001 -78.999s-25.167 -38.666 -43.5 -51.999s-44.833 -23.666 -79.5 -30.999z
" />
    <glyph glyph-name="asciitilde" unicode="~" horiz-adv-x="271" 
d="M217 402c-16.667 0 -29.5029 4.16602 -38.5029 12.499s-16.167 18 -21.5 29s-11.333 20.667 -18 29s-16 12.5 -28 12.5c-15.333 0 -30.166 -4.5 -44.499 -13.5s-26.5 -18.167 -36.5 -27.5s-16.333 -14 -19 -14c-4.66699 0 -7 2.33301 -7 7
c0 7.33301 4.16699 15.5 12.5 24.5s18.666 17.667 30.999 26s24.333 15.166 36 20.499s20.834 8 27.501 8c12.667 0 23.667 -4.16699 33 -12.5s17.833 -18.166 25.5 -29.499s15.667 -21.166 24 -29.499s18.166 -12.5 29.499 -12.5c13.333 0 24.333 3.66699 33 11
s15.834 14.833 21.501 22.5s9.83398 11.5 12.501 11.5s4.33398 -1.33301 5.00098 -4s1 -4.66699 1 -6c0 -10.667 -4.5 -21 -13.5 -31s-19.667 -18.167 -32 -24.5s-23.5 -9.5 -33.5 -9.5z" />
    <glyph glyph-name="uni00A0" unicode="&#xa0;" horiz-adv-x="241" 
 />
    <glyph glyph-name="exclamdown" unicode="&#xa1;" horiz-adv-x="333" 
d="M219 225c-3.33301 0 -5.83301 1.5 -7.5 4.5s-2.5 5.83301 -2.5 8.5c0 1.33301 2 7.83301 6 19.5l12.5 37c4.33301 13 6.83301 21.5 7.5 25.5c2.66699 8.66699 7.33398 13 14.001 13c5.33301 0 10.666 -1.83301 15.999 -5.5s8 -8.5 8 -14.5
c0 -6.66699 -2.83301 -17 -8.5 -31s-12.667 -27 -21 -39s-16.5 -18 -24.5 -18zM122 -323c-4.66699 0 -10.001 0.832031 -16.001 2.49902s-9 5.83398 -9 12.501l24 75c14 43.333 27.167 86.833 39.5 130.5s23.5 87.834 33.5 132.501c4.66699 20.667 8.66699 41.667 12 63
s7.66602 42 12.999 62c1.33301 3.33301 3.5 5.5 6.5 6.5s5.83301 1.5 8.5 1.5c2 0 4.16699 -0.333008 6.5 -1s3.5 -2.33398 3.5 -5.00098c0 -10 -1.83301 -27.5 -5.5 -52.5s-8.5 -54.167 -14.5 -87.5s-12.667 -67.833 -20 -103.5s-14.833 -69.667 -22.5 -102
s-15.167 -59.833 -22.5 -82.5s-13.666 -37.667 -18.999 -45c-2 -2.66699 -4.66699 -4.5 -8 -5.5s-6.66602 -1.5 -9.99902 -1.5z" />
    <glyph glyph-name="cent" unicode="&#xa2;" horiz-adv-x="281" 
d="M79 90c4.66699 18 10.835 35.5029 18.502 52.5029s15.834 33.833 24.501 50.5c-20.667 5.33301 -34.5 16.5 -41.5 33.5s-10.5 34.833 -10.5 53.5c0 20 5 43.167 15 69.5s23.5 51.666 40.5 75.999s36.167 44.5 57.5 60.5s43.333 24 66 24h10
c3.33301 0 6.66602 -0.666992 9.99902 -2l25.5 52c9 18.667 20.167 35 33.5 49s30 22.333 50 25c-15.333 -20.667 -29.333 -42.834 -42 -66.501l-37 -70.5c10 -4.66699 19.833 -11.834 29.5 -21.501s14.5 -20.834 14.5 -33.501c0 -2.66699 -0.666992 -5.66699 -2 -9
s-4 -5 -8 -5c-2 0 -6.16699 3 -12.5 9l-19.5 19c-6.66699 6.66699 -12.334 11 -17.001 13l-41 -78l-40 -79c-5.33301 -11.333 -10.666 -23.5 -15.999 -36.5s-11.333 -25.167 -18 -36.5c-2.66699 -5.33301 -6.66699 -10.166 -12 -14.499s-10.666 -8.16602 -15.999 -11.499
c8 -2 15.667 -3 23 -3c19.333 0 39.5 5.16699 60.5 15.5s41 22.5 60 36.5l49.5 36.5c14 10.333 23.333 15.5 28 15.5c3.33301 0 5 -1.33301 5 -4c0 -4 -3.33301 -9.33301 -10 -16s-14.834 -13.667 -24.501 -21l-27.5 -20c-8.66699 -6 -14.667 -10.333 -18 -13
c-18 -12.667 -39.333 -23.834 -64 -33.501s-48.334 -15.167 -71.001 -16.5c-10.667 -20 -18.334 -40 -23.001 -60zM135.001 216.003l55.501 127.502c19 42.333 38.833 84.166 59.5 125.499c-18.667 -4.66699 -37.167 -13.834 -55.5 -27.501s-34.833 -30 -49.5 -49
s-26.334 -39 -35.001 -60s-13 -41.167 -13 -60.5c0 -28 12.667 -46.667 38 -56z" />
    <glyph glyph-name="sterling" unicode="&#xa3;" horiz-adv-x="553" 
d="M-8 -125c-16.667 0 -24.9961 8.00586 -24.9961 24.0059c0 9.33301 4.33301 20.666 13 33.999s24 28 46 44c3.33301 9.33301 5.66602 17.666 6.99902 24.999s3 15.666 5 24.999c4 27.333 10.667 55.666 20 84.999s20 57 32 83c-8.66699 -0.666992 -17 -1.5 -25 -2.5
s-15.667 -2.16699 -23 -3.5c-2 0 -5.16699 2.16699 -9.5 6.5s-7.66602 8.83301 -9.99902 13.5s-2.5 7 -0.5 7l42 4c13.333 1.33301 25.666 2 36.999 2l47 103c17.333 38 37 76.167 59 114.5s47 73.5 75 105.5s59.5 57.833 94.5 77.5s74.5 29.5 118.5 29.5
c27.333 0.666992 47.166 -8.33301 59.499 -27s18.5 -41.334 18.5 -68.001c0 -24.667 -4.5 -50.334 -13.5 -77.001s-21.833 -50 -38.5 -70c-4.66699 -5.33301 -9.16699 -9.16602 -13.5 -11.499s-7.83301 -3.5 -10.5 -3.5c-7.33301 0 -11 4.33301 -11 13c0 4 1 7.33301 3 10
c18.667 30 33 58.667 43 86s15 50.666 15 69.999c0 15.333 -3.5 27.666 -10.5 36.999s-18.167 14 -33.5 14c-29.333 0 -58.5 -9.16699 -87.5 -27.5s-57.167 -42.666 -84.5 -72.999s-52.833 -63.5 -76.5 -99.5s-45.167 -71.667 -64.5 -107s-35.666 -67.333 -48.999 -96
c41.333 -0.666992 71.333 -2 90 -4s32.334 -4.66699 41.001 -8c3.33301 -0.666992 4.66602 -2.33398 3.99902 -5.00098s-2.66699 -4 -6 -4c-14.667 0 -32.167 -0.166992 -52.5 -0.5s-49.5 -1.16602 -87.5 -2.49902c-12.667 -31.333 -25.167 -64.166 -37.5 -98.499
s-21.833 -67.833 -28.5 -100.5c52.667 32.667 109.667 56.167 171 70.5s122.333 21.5 183 21.5c17.333 0 36.5 -3 57.5 -9s39.167 -15.333 54.5 -28s23 -29.334 23 -50.001c0 -18 -1.66699 -27 -5 -27c-2.66699 0 -6.33398 7 -11.001 21c-10 24 -25.333 39.167 -46 45.5
s-43 9.5 -67 9.5c-42 0 -78 -2 -108 -6s-57.333 -9.83301 -82 -17.5s-50.5 -17 -77.5 -28l-94.5 -37.5c-4.66699 -31.333 -14.334 -54 -29.001 -68s-28.334 -21 -41.001 -21z" />
    <glyph glyph-name="currency" unicode="&#xa4;" horiz-adv-x="386" 
d="M317 331c-4 0 -7.33203 0.670898 -9.99902 2.00391c-5.33301 7.33301 -12.5 18.166 -21.5 32.499s-19.5 22.833 -31.5 25.5l-1 1c-10 -10 -19.333 -16.667 -28 -20c-10.667 -6 -21.167 -10.333 -31.5 -13s-19.833 -4 -28.5 -4c-27.333 0 -48 11.333 -62 34
c-10.667 -4.66699 -19.667 -12.667 -27 -24s-13.666 -20.666 -18.999 -27.999c-3.33301 -3.33301 -7.33301 -5 -12 -5c-3.33301 0 -5 1.33301 -5 4c0 3.33301 1.33301 6.66602 4 9.99902c4 7.33301 9.5 15.5 16.5 24.5l20.5 27.5c2 2.66699 3.83301 5.83398 5.5 9.50098
s2.83398 6.5 3.50098 8.5c-1.33301 5.33301 -2.33301 11.166 -3 17.499s-1 12.5 -1 18.5c0 20 3.33301 40 10 60c4 13.333 9.66699 24.666 17 33.999c-3.33301 5.33301 -6 10.666 -8 15.999l-20.5 28.5c-7 9.66699 -12.5 17.834 -16.5 24.501c-2.66699 4.66699 -4 8 -4 10
c0 3.33301 1.66699 5 5 5c4 0 7.33301 -1.33301 10 -4c5.33301 -7.33301 12.5 -17.833 21.5 -31.5s19.5 -22.167 31.5 -25.5c12.667 11.333 26.667 19.833 42 25.5s30.666 8.5 45.999 8.5c28 0 49.667 -10.333 65 -31c10 4 19.167 11.833 27.5 23.5
s15.166 20.834 20.499 27.501c3.33301 3.33301 7 5 11 5c1.33301 0 2 -0.666992 2 -2c0 -2.66699 -1.33301 -6.33398 -4 -11.001c-4 -6.66699 -9.33301 -14.834 -16 -24.501s-13.667 -19.167 -21 -28.5l-8 -15c3.33301 -10 5 -19 5 -27
c-0.666992 -40 -10.667 -74.667 -30 -104c1.33301 -2 2.66602 -4.83301 3.99902 -8.5s3.33301 -6.83398 6 -9.50098c6 -9.33301 12.5 -18.5 19.5 -27.5s12.833 -17.167 17.5 -24.5c2.66699 -4.66699 4 -8 4 -10c0 -3.33301 -2 -5 -6 -5zM178.001 385.004
c10 0 20.668 3.33398 32.001 10.001c14.667 7.33301 27.5 21.333 38.5 42s16.5 40.667 16.5 60c0 23.333 -5.33301 41 -16 53s-24.334 18 -41.001 18c-20 0 -36.833 -7 -50.5 -21s-22.5 -30.667 -26.5 -50c-3.33301 -14.667 -5 -27.334 -5 -38.001
c0 -20.667 4.66699 -38.167 14 -52.5s22 -21.5 38 -21.5z" />
    <glyph glyph-name="yen" unicode="&#xa5;" horiz-adv-x="421" 
d="M161 -126c-33.333 0 -50.002 23.001 -50.002 69.001c0 50.667 34.667 146.334 104 287.001c-2 -4.66699 -5.33301 -7.33398 -10 -8.00098l1 15c-10.667 -0.666992 -20.5 -1 -29.5 -1h-26.5c-40 0 -66 2 -78 6c0 21.333 13.667 32 41 32c13.333 0 27.5 -0.333008 42.5 -1
s31.167 -1.66699 48.5 -3c-2.66699 25.333 -7.66699 51.333 -15 78c-16 -0.666992 -30.5 -1.16699 -43.5 -1.5s-24.833 -0.5 -35.5 -0.5c-33.333 0 -52.666 1.33301 -57.999 4c0 21.333 9.33301 32 28 32c4.66699 0 11.167 -0.166992 19.5 -0.5
s18.166 -0.833008 29.499 -1.5s21.333 -1.16699 30 -1.5s15.334 -0.5 20.001 -0.5c-26 71.333 -61.667 124.666 -107 159.999c6.66699 -17.333 10 -32.666 10 -45.999c0 -25.333 -13 -38 -39 -38c-6.66699 0 -10 1.33301 -10 4s1.66699 4.66699 5 6
c15.333 1.33301 23 8.33301 23 21c0 12 -8.66699 30.333 -26 55c-17.333 25.333 -26 39.333 -26 42c0 17.333 8.66699 26 26 26c39.333 0 77 -29.667 113 -89c26 -42.667 46 -89.667 60 -141l84 -2c27.333 48.667 52.333 91 75 127s42.667 65.333 60 88l3 4h-1
c-2 0 -5.83301 -1.16699 -11.5 -3.5s-9.83398 -3.5 -12.501 -3.5c-8.66699 0 -13 2 -13 6c0 5.33301 5.33301 9.33301 16 12c30 8 52.333 22 67 42c8 10.667 18.667 16 32 16c8.66699 0 13 -2.66699 13 -8c0 -1.33301 -1.66699 -4.33301 -5 -9
c-34 -40 -67.333 -82.667 -100 -128s-64.667 -93.333 -96 -144l83 -3c6.66699 0.666992 16.334 0.666992 29.001 0c4 -0.666992 6 -2.33398 6 -5.00098c0 -4.66699 -5.66699 -8 -17 -10c-2.66699 -0.666992 -13.667 -1.33398 -33 -2.00098s-46.666 -1.66699 -81.999 -3
l-25 -43l-23 -42c44 -2 88 -3 132 -3c-0.666992 0 -1 -0.333008 -1 -1c0 -1.33301 0.333008 -2.33301 1 -3v-4c0 -8 -16.333 -12.333 -49 -13l-98 -4c-63.333 -121.333 -95 -212.333 -95 -273c0 -45.333 9.66699 -68 29 -68c8.66699 0 23.334 6 44.001 18
c21.333 12 33.333 18 36 18c1.33301 0 2 -0.666992 2 -2c0 -3.33301 -3.66699 -8.66602 -11 -15.999c-28.667 -28 -57.334 -42 -86.001 -42zM221.998 269.001l13.001 -0.00195312l44 82l-64 -2c1.33301 -9.33301 2.66602 -20.666 3.99902 -33.999s2.33301 -28.666 3 -45.999
z" />
    <glyph glyph-name="brokenbar" unicode="&#xa6;" horiz-adv-x="146" 
d="M81 388l-25.999 12v111.5v91c0 25.667 -0.333008 44.167 -1 55.5c0 4 1.66699 7.16699 5 9.5s6.66602 3.5 9.99902 3.5c8.66699 0 13 -4.33301 13 -13v-55c0 -26.667 -0.166992 -58.667 -0.5 -96s-0.5 -77 -0.5 -119zM64.001 -10c-4.66699 0 -8 3.33301 -10 10l0.5 37.5
c0.333008 25 0.5 58 0.5 99v132.5l26 2v-134c0 -41.333 -0.166992 -74.5 -0.5 -99.5l-0.5 -37.5c-6.66699 -6.66699 -12 -10 -16 -10z" />
    <glyph glyph-name="section" unicode="&#xa7;" horiz-adv-x="584" 
d="M89 -219c-24.667 -1.33301 -49.6729 1.16602 -75.0059 7.49902s-46.333 18.166 -63 35.499s-25 40.666 -25 69.999c0 7.33301 0.666992 16.5 2 27.5s3.83301 21.167 7.5 30.5s8.5 14.333 14.5 15c2.66699 0 4.33398 -1 5.00098 -3s1 -3.66699 1 -5
c0 -8.66699 -1.5 -17 -4.5 -25s-4.16699 -16.667 -3.5 -26c1.33301 -24 9.33301 -43.333 24 -58s32.667 -25 54 -31s42.333 -8.66699 63 -8c39.333 2 77.166 10.333 113.499 25s69.833 33.334 100.5 56.001s57.667 47.167 81 73.5s41.333 52.5 54 78.5s19 49.333 19 70
c0 19.333 -6.83301 35.333 -20.5 48s-35.167 19 -64.5 19c-30.667 0 -61.167 -2.5 -91.5 -7.5s-60.666 -10.333 -90.999 -16s-60.833 -9.5 -91.5 -11.5c-12 -0.666992 -24.5 0.166016 -37.5 2.49902s-23.833 7.5 -32.5 15.5s-13.334 19.667 -14.001 35
c-1.33301 24 4.5 48.5 17.5 73.5s30.5 49.167 52.5 72.5c-2 7.33301 -3 15.333 -3 24c0 29.333 9.33301 58.833 28 88.5s42.167 57.5 70.5 83.5s58 48.667 89 68s58.5 34 82.5 44c22.667 9.33301 45.667 16.833 69 22.5s47.333 8.83398 72 9.50098l14 1
c24.667 0.666992 49 -2.83301 73 -10.5s44 -20.167 60 -37.5s24 -40.333 24 -69c0 -4.66699 -0.833008 -13.167 -2.5 -25.5s-4.5 -23.833 -8.5 -34.5s-9.66699 -16 -17 -16c-4 0 -6 2 -6 6c0 8.66699 1.83301 17.334 5.5 26.001s5.5 17.667 5.5 27c0 24 -7 43.667 -21 59
s-31.333 26.666 -52 33.999s-41.667 11 -63 11c-26.667 0 -56.667 -5.16699 -90 -15.5s-66.666 -24.5 -99.999 -42.5s-64.166 -39 -92.499 -63s-51.166 -50.167 -68.499 -78.5s-26 -57.5 -26 -87.5c0 -14.667 4.5 -27.167 13.5 -37.5s20.333 -18.166 34 -23.499
s26.834 -8 39.501 -8c44.667 0 88.834 3.66699 132.501 11s87.167 11 130.5 11c12.667 0 25.334 -1.5 38.001 -4.5s23.167 -8.66699 31.5 -17s12.5 -20.166 12.5 -35.499c0 -22 -5.83301 -43.833 -17.5 -65.5s-27.167 -42.834 -46.5 -63.501
c0.666992 -2.66699 1.16699 -5.33398 1.5 -8.00098s0.5 -5.66699 0.5 -9c1.33301 -29.333 -6.5 -59.166 -23.5 -89.499s-39 -59.166 -66 -86.499s-55.333 -51.5 -85 -72.5s-56.5 -37.167 -80.5 -48.5c-22 -10.667 -44.5 -19.5 -67.5 -26.5s-46.833 -11.5 -71.5 -13.5z
M477.994 171.999c7.33301 9.33301 14.1689 18.8311 20.502 28.498s11.833 18.834 16.5 27.501c2 4.66699 3.66699 9.16699 5 13.5s2 8.83301 2 13.5c0 14 -6.33301 23 -19 27s-24.334 6 -35.001 6c-40.667 0 -83.334 -2.5 -128.001 -7.5s-89.334 -7.5 -134.001 -7.5
c-20 0 -39.333 2.83301 -58 8.5s-34 15.167 -46 28.5c-20.667 -24.667 -36 -49 -46 -73l-4 -12.5c-1.33301 -4.33301 -2 -8.83301 -2 -13.5c1.33301 -14.667 8.33301 -23.5 21 -26.5s24.334 -4.16699 35.001 -3.5c41.333 2 84 6.5 128 13.5s88.333 11.833 133 14.5
c21.333 1.33301 42 -0.666992 62 -6s36.333 -15.666 49 -30.999z" />
    <glyph glyph-name="dieresis" unicode="&#xa8;" horiz-adv-x="169" 
d="M130 450c-4.66699 -2 -9.83203 0.666016 -15.499 7.99902s-8.5 14.666 -8.5 21.999c0 6.66699 2.66699 12.334 8 17.001s8.66602 7.33398 9.99902 8.00098c3.33301 0.666992 6.5 1.16699 9.5 1.5s5.83301 0.5 8.5 0.5c11.333 0 17 -4.66699 17 -14
c0 -2 -0.666992 -5.66699 -2 -11c-1.33301 -6 -3.83301 -11.833 -7.5 -17.5s-10.167 -10.5 -19.5 -14.5zM24.002 449.999c-4.66699 -2 -9.83203 0.666016 -15.499 7.99902s-8.5 14.666 -8.5 21.999c0 6.66699 2.66699 12.334 8 17.001s8.66602 7.33398 9.99902 8.00098
c3.33301 0.666992 6.5 1.16699 9.5 1.5s5.83301 0.5 8.5 0.5c11.333 0 17 -4.66699 17 -14c0 -2 -0.666992 -5.66699 -2 -11c-1.33301 -6 -3.83301 -11.833 -7.5 -17.5s-10.167 -10.5 -19.5 -14.5z" />
    <glyph glyph-name="copyright" unicode="&#xa9;" horiz-adv-x="471" 
d="M215 280c-34 0 -64.6699 8.00098 -92.0029 24.001s-48.833 37.5 -64.5 64.5s-23.5 57.5 -23.5 91.5c0 40 10.333 76.667 31 110s47.834 60.166 81.501 80.499s69.834 30.5 108.501 30.5c34.667 0 65.5 -7.83301 92.5 -23.5s48.333 -37.167 64 -64.5s23.5 -58 23.5 -92
c0 -39.333 -10.333 -75.833 -31 -109.5s-47.667 -60.667 -81 -81s-69.666 -30.5 -108.999 -30.5zM218.997 301.001c33.333 0 64.5 9 93.5 27s52.5 42 70.5 72s27 62.667 27 98c0 30.667 -6.83301 58 -20.5 82s-32.167 43.167 -55.5 57.5s-50.333 21.5 -81 21.5
c-34 0 -65.5 -8.83301 -94.5 -26.5s-52.5 -41.334 -70.5 -71.001s-27 -62.5 -27 -98.5c0 -30.667 6.83301 -58.167 20.5 -82.5s32.5 -43.666 56.5 -57.999s51 -21.5 81 -21.5zM194.997 348.001c-32.667 0 -55.5049 9.66797 -68.5049 29.001s-19.5 40 -19.5 62
c0 24.667 6 47 18 67c7.33301 13.333 18.833 28.166 34.5 44.499s33.667 30.5 54 42.5s40.833 18 61.5 18c17.333 0 30.833 -3.5 40.5 -10.5s14.5 -17.167 14.5 -30.5c0 -14.667 -4.83301 -28.5 -14.5 -41.5s-22 -23.5 -37 -31.5s-31.167 -12 -48.5 -12
c-16.667 0 -25 7 -25 21c0 2 0.666992 6 2 12s3.33301 11.667 6 17s5.66699 8 9 8s5 -2 5 -6c0 -2.66699 -0.666992 -5.16699 -2 -7.5s-2.66602 -4.83301 -3.99902 -7.5c-0.666992 -2.66699 -1.66699 -5 -3 -7s-2 -4.33301 -2 -7c0 -8.66699 5.66699 -13 17 -13
c14 0 26.833 4.16699 38.5 12.5s21 18.5 28 30.5s10.5 22.667 10.5 32c0 8 -3.5 14.667 -10.5 20s-15.5 8 -25.5 8c-18.667 0 -36.5 -5.33301 -53.5 -16s-32 -23.334 -45 -38.001s-22.833 -28 -29.5 -40c-11.333 -20 -17 -40.333 -17 -61c0 -48.667 22 -73 66 -73h5
c16.667 0 33.334 5 50.001 15s31.834 21.667 45.501 35s24.5 25.333 32.5 36c4 5.33301 7.66699 10.5 11 15.5s6.33301 10.167 9 15.5l2 1c2.66699 2.66699 5.33398 3.66699 8.00098 3v-9c-4.66699 -10.667 -12.667 -23.667 -24 -39s-24.666 -30.166 -39.999 -44.499
s-31.5 -26.333 -48.5 -36s-33.833 -14.5 -50.5 -14.5z" />
    <glyph glyph-name="ordfeminine" unicode="&#xaa;" horiz-adv-x="236" 
d="M49 320c-10 0 -17.5 5.83008 -22.5 17.4971s-7.5 27.5 -7.5 47.5c0 17.333 1.66699 36 5 56s7.66602 39 12.999 57c2.66699 8 7 19.667 13 35s13.5 31 22.5 47s18.833 29.667 29.5 41s21.334 17 32.001 17c10 0 19.833 -4 29.5 -12s14.5 -16.333 14.5 -25
c0 -1.33301 -0.333008 -2.66602 -1 -3.99902c9.33301 -1.33301 14 -7.33301 14 -18c0 -7.33301 -0.833008 -15.833 -2.5 -25.5l-5.5 -30.5c-2.66699 -12.667 -5.16699 -25.667 -7.5 -39s-3.5 -26.333 -3.5 -39c0 -30 7 -45 21 -45c8 0 16.333 4.83301 25 14.5
s17.5 21.334 26.5 35.001s16.833 26.167 23.5 37.5l14.5 22c3.66699 5.33301 6.83398 8 9.50098 8c6 0 9 -3.33301 9 -10s-3.83301 -17.5 -11.5 -32.5s-17.334 -30.5 -29.001 -46.5s-23.834 -29.667 -36.501 -41s-24 -17 -34 -17c-13.333 0 -23.5 5.16699 -30.5 15.5
s-11.667 22.833 -14 37.5s-3.5 28.334 -3.5 41.001c-4.66699 -12.667 -10.667 -27 -18 -43s-15.166 -31.833 -23.499 -47.5s-17 -28.5 -26 -38.5s-17.5 -15 -25.5 -15zM55 357.997c8 0 19.3311 15.001 33.998 45.001s33.334 77.333 56.001 142
c3.33301 10.667 6.33301 19.334 9 26.001s4.33398 11.667 5.00098 15h4c-2.66699 0 -5 1 -7 3l-7 7c-1.33301 3.33301 -3.16602 6 -5.49902 8s-5.5 3 -9.5 3c-7.33301 0 -14.833 -4.66699 -22.5 -14s-14.834 -20.833 -21.501 -34.5s-12.5 -26.834 -17.5 -39.501
s-8.5 -22.334 -10.5 -29.001c-9.33301 -32 -14 -64.667 -14 -98c0 -22.667 2.33301 -34 7 -34z" />
    <glyph glyph-name="guillemotleft" unicode="&#xab;" horiz-adv-x="472" 
d="M402 14c-5.33301 0 -11.335 3.33691 -18.002 10.0039l-17.5 17.5l-40 42c-15.667 17 -31.167 35 -46.5 54s-28.166 37.167 -38.499 54.5s-15.5 31.333 -15.5 42c0 8.66699 4.83301 19.167 14.5 31.5s21.834 25.166 36.501 38.499s29.667 26.166 45 38.499l41.5 32.5
c12.333 9.33301 20.833 16.333 25.5 21c8.66699 7.33301 16.167 12.666 22.5 15.999s11.5 5 15.5 5c9.33301 0 14 -4.66699 14 -14c0 -6.66699 -3.33301 -13.334 -10 -20.001l-41.5 -35l-54 -47c-18.333 -16.667 -33.833 -32.5 -46.5 -47.5s-19 -26.833 -19 -35.5
c0 -4.66699 4.5 -13.5 13.5 -26.5s20 -28 33 -45l39.5 -50l34 -41.5c9.33301 -11.333 14.333 -17.666 15 -18.999c3.33301 -6.66699 5 -11.334 5 -14.001c0 -5.33301 -2.66699 -8 -8 -8zM264.998 14.0039c-5.33301 0 -11.335 3.33691 -18.002 10.0039l-17.5 17.5l-40 42
c-15.667 17 -31.167 35 -46.5 54s-28.166 37.167 -38.499 54.5s-15.5 31.333 -15.5 42c0 8.66699 4.83301 19.167 14.5 31.5s21.834 25.166 36.501 38.499s29.667 26.166 45 38.499l41.5 32.5c12.333 9.33301 20.833 16.333 25.5 21
c8.66699 7.33301 16.167 12.666 22.5 15.999s11.5 5 15.5 5c9.33301 0 14 -4.66699 14 -14c0 -6.66699 -3.33301 -13.334 -10 -20.001l-41.5 -35l-54 -47c-18.333 -16.667 -33.833 -32.5 -46.5 -47.5s-19 -26.833 -19 -35.5c0 -4.66699 4.5 -13.5 13.5 -26.5s20 -28 33 -45
l39.5 -50l34 -41.5c9.33301 -11.333 14.333 -17.666 15 -18.999c3.33301 -6.66699 5 -11.334 5 -14.001c0 -5.33301 -2.66699 -8 -8 -8z" />
    <glyph glyph-name="logicalnot" unicode="&#xac;" horiz-adv-x="432" 
d="M356 97v156h-322v42h364v-198h-42z" />
    <glyph glyph-name="uni00AD" unicode="&#xad;" 
 />
    <glyph glyph-name="registered" unicode="&#xae;" horiz-adv-x="753" 
d="M340 -28c-45.333 0 -87.334 8.00195 -126.001 24.002s-72.5 38.5 -101.5 67.5s-51.5 62.667 -67.5 101s-24 79.833 -24 124.5c0 52.667 10.5 102.667 31.5 150s49.667 89.166 86 125.499s78 65 125 86s96.5 31.5 148.5 31.5c45.333 0 87.5 -8.16699 126.5 -24.5
s73 -38.833 102 -67.5s51.5 -62.334 67.5 -101.001s24 -80.667 24 -126c0 -52.667 -10.5 -102.5 -31.5 -149.5s-49.667 -88.667 -86 -125s-78.166 -64.833 -125.499 -85.5s-97 -31 -149 -31zM342.999 1.00195c34.667 0 69.5029 5.66699 104.503 17s68.167 28 99.5 50
c-20 2 -39.5 10.333 -58.5 25s-37 32.334 -54 53.001s-32.5 41 -46.5 61c-6.66699 9.33301 -14.5 19.666 -23.5 30.999s-16.167 20 -21.5 26c-10.667 4 -20.167 8.33301 -28.5 13s-12.5 13.334 -12.5 26.001c0 10.667 8.33301 16 25 16c17.333 0 31.666 -8.33301 42.999 -25
c14.667 4 32.5 11.5 53.5 22.5s41.5 24 61.5 39s36.833 31 50.5 48s20.5 33.5 20.5 49.5c0 20 -5.66699 36.667 -17 50s-25.833 24.166 -43.5 32.499s-36.167 14.166 -55.5 17.499s-36.666 5 -51.999 5c-12.667 0 -29.667 -1.83301 -51 -5.5s-43.333 -9 -66 -16
s-43.167 -15.167 -61.5 -24.5s-30.833 -19.666 -37.5 -30.999c-2.66699 -6 -6.33398 -9 -11.001 -9c-6 0 -9 3.33301 -9 10c0 3.33301 1 6 3 8c13.333 28 40.166 50 80.499 66s87.833 24 142.5 24c22 0 45.833 -2.16699 71.5 -6.5s49.667 -11.333 72 -21
s40.666 -22.834 54.999 -39.501s21.5 -37.334 21.5 -62.001c0 -21.333 -8 -41.166 -24 -59.499s-36 -34.666 -60 -48.999s-48.667 -26.5 -74 -36.5s-47.333 -17.333 -66 -22c9.33301 -14 20.666 -32.167 33.999 -54.5s28 -44.833 44 -67.5s32.833 -41.834 50.5 -57.501
s34.834 -23.5 51.501 -23.5c10 0 19.167 4.16699 27.5 12.5s14.833 15.5 19.5 21.5c32 32.667 57 70.334 75 113.001s27 87 27 133c0 55.333 -12.833 105 -38.5 149s-60.5 78.833 -104.5 104.5s-94 38.5 -150 38.5c-48.667 0 -94.667 -9.66699 -138 -29
s-81.666 -45.833 -114.999 -79.5s-59.5 -72.167 -78.5 -115.5s-28.5 -89 -28.5 -137c0 -54.667 12.833 -104 38.5 -148s60.667 -78.833 105 -104.5s94.166 -38.5 149.499 -38.5zM300.002 75.002c-20 0 -34.833 5.33301 -44.5 16s-16 23.834 -19 39.501
s-4.5 30.834 -4.5 45.501c0 52 9.5 101.333 28.5 148s40.833 91.667 65.5 135c0.666992 1.33301 1 2.66602 1 3.99902v2c-1.33301 1.33301 -2 4 -2 8c0 3.33301 2.5 7.5 7.5 12.5s10.5 9.66699 16.5 14s10.333 6.5 13 6.5c5.33301 0 10.166 -2 14.499 -6
s6.5 -8.33301 6.5 -13c0 -2 -4.33301 -10 -13 -24l-30 -50.001s-24 -44 -36 -70s-22 -53.5 -30 -82.5s-12 -57.833 -12 -86.5c0 -7.33301 0.833008 -17.333 2.5 -30s5 -24.167 10 -34.5s12.5 -16.5 22.5 -18.5c12 -2.66699 18 -6 18 -10c-1.33301 -4 -5.66602 -6 -12.999 -6
h-2z" />
    <glyph glyph-name="macron" unicode="&#xaf;" horiz-adv-x="205" 
d="M16 461c-2.66699 0 -6 3.83203 -10 11.499s-6 12.834 -6 15.501c2 0.666992 9 1.33398 21 2.00098s27 1 45 1c20 0 38.5 -0.666992 55.5 -2s36.167 -4 57.5 -8c3.33301 -1.33301 5 -3 5 -5c0 -2.66699 -1.16699 -5.83398 -3.5 -9.50098s-3.83301 -5.5 -4.5 -5.5h-160z
" />
    <glyph glyph-name="degree" unicode="&#xb0;" horiz-adv-x="312" 
d="M168 368c-16.667 0 -31.334 6.33301 -44.001 19s-19 27.667 -19 45s6.33301 32.333 19 45s27.334 19 44.001 19c17.333 0 32.333 -6.33301 45 -19s19 -27.667 19 -45s-6.33301 -32.333 -19 -45s-27.667 -19 -45 -19zM167 385c13.333 0 24.5 4.66699 33.5 14
s13.5 20.333 13.5 33s-4.5 23.5 -13.5 32.5s-20.167 13.5 -33.5 13.5c-12.667 0 -23.5 -4.5 -32.5 -13.5s-13.5 -19.833 -13.5 -32.5s4.5 -23.667 13.5 -33s19.833 -14 32.5 -14z" />
    <glyph glyph-name="plusminus" unicode="&#xb1;" horiz-adv-x="438" 
d="M229 138c-0.666992 0 -1.5 1.16797 -2.5 3.50098s-1.5 3.83301 -1.5 4.5c-3.33301 10.667 -5.16602 25.834 -5.49902 45.501s-0.5 35.167 -0.5 46.5v52c-22.667 -0.666992 -45.667 -1.66699 -69 -3s-46.666 -2 -69.999 -2c-4 0 -8 2.5 -12 7.5s-6.33301 9.5 -7 13.5l5 5
c15.333 2 30.666 3.16699 45.999 3.5s30.666 0.5 45.999 0.5h61c-0.666992 23.333 -1.83398 46.5 -3.50098 69.5s-2.5 45.833 -2.5 68.5c0 4 2.66699 8 8 12s10 6 14 6l5 -5c2 -14 3.33301 -28.167 4 -42.5s1 -28.833 1 -43.5c0 -10.667 -0.166992 -21.334 -0.5 -32.001
s-0.5 -21.667 -0.5 -33c6 0 16.5 -0.166992 31.5 -0.5s31.5 -0.833008 49.5 -1.5s34 -1.33398 48 -2.00098s22.333 -1.66699 25 -3c4 -1.33301 6 -3.33301 6 -6v-4l-9 -6c-24.667 0 -49.667 -0.166992 -75 -0.5s-50.666 -0.5 -75.999 -0.5
c0 -5.33301 -0.166992 -15.333 -0.5 -30s-0.666016 -30.5 -0.999023 -47.5s-1 -32.167 -2 -45.5s-2.16699 -21.333 -3.5 -24c-2.66699 -4 -5.33398 -6 -8.00098 -6zM133 65.001c-3.33301 0 -7.5 3.16895 -12.5 9.50195s-7.83301 11.166 -8.5 14.499l2 1
c6 2 15.333 3.5 28 4.5s25.667 1.66699 39 2s23.333 0.5 30 0.5c7.33301 0 18.333 -0.333008 33 -1s29 -1.83398 43 -3.50098s24 -4.16699 30 -7.5c2 0 3 -1 3 -3c0 -3.33301 -2 -5 -6 -5c-30.667 0 -61 -2 -91 -6s-60 -6 -90 -6z" />
    <glyph glyph-name="uni00B2" unicode="&#xb2;" horiz-adv-x="406" 
d="M334 169c-5.33301 0 -7.99902 2.66797 -7.99902 8.00098c0.666992 3.33301 1.83398 6.5 3.50098 9.5s3.5 5.83301 5.5 8.5c3.33301 4 6.16602 8.33301 8.49902 13s3.5 10.334 3.5 17.001c0 10.667 -6.33301 18 -19 22s-23.667 6 -33 6c-26.667 0 -55.334 -3 -86.001 -9
s-60.667 -14.333 -90 -25s-55.666 -22.667 -78.999 -36c-4 -3.33301 -8.66699 -5 -14 -5c-6.66699 0 -10 4 -10 12c0 10.667 6.66699 20.667 20 30c15.333 12.667 36 31 62 55s53.667 51 83 81s57.166 60.667 83.499 92s47.833 61 64.5 89s25 52 25 72
c0 15.333 -3.83301 25.166 -11.5 29.499s-18.5 6.5 -32.5 6.5c-35.333 0 -66.666 -6.16699 -93.999 -18.5s-50.833 -27.333 -70.5 -45s-36.5 -34.5 -50.5 -50.5c-0.666992 -2.66699 -3 -4 -7 -4c-3.33301 0 -5.66602 0.5 -6.99902 1.5s-2 3.83301 -2 8.5l2 9
c6.66699 14 18.167 28.5 34.5 43.5s35.833 29 58.5 42s46.5 23.667 71.5 32s49.167 12.5 72.5 12.5c48 0 72 -25.333 72 -76c0 -20.667 -7.33301 -43.834 -22 -69.501s-33.834 -52.334 -57.501 -80.001s-49.167 -54.667 -76.5 -81s-54.333 -51 -81 -74l-69 -57.5
c35.333 12.667 73.166 23.334 113.499 32.001s78.833 13 115.5 13c17.333 0 30.833 -3.83301 40.5 -11.5s14.5 -18.167 14.5 -31.5c0 -5.33301 -1.5 -13.833 -4.5 -25.5s-7 -22.167 -12 -31.5s-10.833 -14 -17.5 -14z" />
    <glyph glyph-name="uni00B3" unicode="&#xb3;" horiz-adv-x="421" 
d="M138 190c-38.667 0 -68.668 8.00195 -90.001 24.002s-32 38.667 -32 68c0 4.66699 0.833008 12 2.5 22s4.5 19.5 8.5 28.5s9.33301 13.5 16 13.5c2.66699 0 5.16699 -0.833008 7.5 -2.5s3.5 -3.83398 3.5 -6.50098c0 -4 -0.5 -8 -1.5 -12s-2.16699 -8 -3.5 -12
c-3.33301 -10 -5 -18.333 -5 -25c0 -22.667 7.5 -41.5 22.5 -56.5s38.5 -22.5 70.5 -22.5c23.333 0 48 3.66699 74 11s50.833 18 74.5 32s42.834 31.167 57.501 51.5s22 43.833 22 70.5c0 31.333 -9.16699 54 -27.5 68s-46.166 21 -83.499 21
c-10.667 0 -21.5 -0.166992 -32.5 -0.5s-22.167 -1.16602 -33.5 -2.49902c-2 0 -4.16699 -0.333008 -6.5 -1s-4.83301 -1.33398 -7.5 -2.00098l-10 -2c-3.33301 -0.666992 -6.33301 -1 -9 -1c-10.667 0 -16 5.33301 -16 16s4.33301 16 13 16c14.667 0 33.667 3.33301 57 10
s46.833 16 70.5 28s43.5 25.5 59.5 40.5s24 30.5 24 46.5c0 14.667 -7 26.334 -21 35.001s-30.333 13 -49 13c-26.667 0 -49.667 -5.33301 -69 -16s-36 -22 -50 -34c-8 -6.66699 -15.167 -13.834 -21.5 -21.501s-10.833 -11.5 -13.5 -11.5c-6 0 -9 3.66699 -9 11
c0 8 4.66699 17.667 14 29s22.166 22.5 38.499 33.5s35 20.333 56 28s42.833 11.5 65.5 11.5c25.333 0 46 -6.5 62 -19.5s24 -30.167 24 -51.5c0 -22.667 -7.16699 -42.5 -21.5 -59.5s-32.666 -31.833 -54.999 -44.5s-45.166 -23 -68.499 -31
c26 -0.666992 51.167 -3.5 75.5 -8.5s44.5 -14.833 60.5 -29.5s24 -36.667 24 -66c0 -31.333 -8.83301 -58.833 -26.5 -82.5s-40.334 -43.334 -68.001 -59.001s-56.834 -27.5 -87.501 -35.5s-59 -12 -85 -12z" />
    <glyph glyph-name="acute" unicode="&#xb4;" horiz-adv-x="109" 
d="M8 449c-0.666992 0 -2 0.666016 -4 1.99902s-3 2.33301 -3 3c0 3.33301 1 6.33301 3 9c2.66699 3.33301 8.16699 9 16.5 17l28 27c10.333 10 19.5 19.667 27.5 29c4.66699 4.66699 9.5 9 14.5 13s9.83301 6 14.5 6c2.66699 0 5.33398 -1 8.00098 -3
c4 -2.66699 6 -6 6 -10c0 -9.33301 -10.833 -21.666 -32.5 -36.999l-73.5 -54c-2.66699 -1.33301 -4.33398 -2 -5.00098 -2z" />
    <glyph glyph-name="uni00B5" unicode="&#xb5;" horiz-adv-x="304" 
d="M121 -210c-25.333 0 -44.6748 9.99805 -58.0078 29.998s-22.666 42 -27.999 66c-6 28 -10.333 58.333 -13 91s-4 63.334 -4 92.001c0 27.333 1 51 3 71c0 6 0.166992 12 0.5 18s0.833008 12 1.5 18c2.66699 20.667 6.33398 41.167 11.001 61.5
s8.33398 40.833 11.001 61.5c1.33301 10.667 2.33301 21 3 31l2 31c0.666992 3.33301 1.66699 6.5 3 9.5s4 4.5 8 4.5c7.33301 0 11.833 -3.16699 13.5 -9.5s2.5 -12.166 2.5 -17.499c0 -24 -2.33301 -47.667 -7 -71l-14 -70c-4.66699 -23.333 -7 -47 -7 -71
c0 -2.66699 0.166992 -8.5 0.5 -17.5s1.16602 -18.667 2.49902 -29s3.5 -19.166 6.5 -26.499s6.83301 -11 11.5 -11c6 0 13.833 7 23.5 21s19.667 30.833 30 50.5l28 55c8.33301 17 13.833 28.5 16.5 34.5c9.33301 20.667 15.5 39.667 18.5 57s5.16699 33.5 6.5 48.5
s4.66602 29.833 9.99902 44.5c3.33301 8 8.33301 12 15 12c10 0 15 -6 15 -18c0 -20.667 -2.33301 -45.5 -7 -74.5s-7 -57.5 -7 -85.5v-22v-21.5c0 -9.66699 0.833008 -19.834 2.5 -30.501s4.33398 -19.667 8.00098 -27s9.16699 -11 16.5 -11c8.66699 0 17.334 5 26.001 15
s16.834 21.667 24.501 35l19.5 35c5.33301 10 9.33301 15 12 15c4 0 6 -2.66699 6 -8c0 -6 -3.16699 -15.5 -9.5 -28.5s-14.333 -26.5 -24 -40.5s-19.667 -26 -30 -36s-19.166 -15 -26.499 -15c-15.333 0 -26.833 6.33301 -34.5 19s-13 28.334 -16 47.001
s-4.5 36.834 -4.5 54.501v41.5c-2.66699 -8 -7 -19.833 -13 -35.5s-13 -32.667 -21 -51s-16.667 -35.833 -26 -52.5s-19.166 -30.334 -29.499 -41.001s-20.5 -16 -30.5 -16c-11.333 0 -20.333 5.33301 -27 16c0.666992 -22.667 2.5 -45.167 5.5 -67.5
s6.83301 -45.166 11.5 -68.499c3.33301 -13.333 7.16602 -26.833 11.499 -40.5s10.833 -25.334 19.5 -35.001s20.667 -15.5 36 -17.5c4 -0.666992 8.33301 -1.33398 13 -2.00098s7.33398 -3.66699 8.00098 -9v-1c0 -2.66699 -2 -4.66699 -6 -6
c-3.33301 -0.666992 -6.66602 -1.16699 -9.99902 -1.5s-6.66602 -0.5 -9.99902 -0.5z" />
    <glyph glyph-name="paragraph" unicode="&#xb6;" horiz-adv-x="645" 
d="M318 -197c-22.667 0 -40.999 8.17188 -54.999 24.5049s-24.167 38.333 -30.5 66s-9.5 58.167 -9.5 91.5c0 34.667 2.83301 70.834 8.5 108.501s13.834 74 24.501 109s22.667 66.5 36 94.5c-14.667 3.33301 -31.834 9.16602 -51.501 17.499s-38.834 19.166 -57.501 32.499
s-34.167 28.5 -46.5 45.5s-18.5 35.5 -18.5 55.5c0 8 1.66699 17.667 5 29c8.66699 27.333 23.5 50.333 44.5 69s45 34 72 46s53.667 21.167 80 27.5s49.5 10.166 69.5 11.499c4.66699 0.666992 9.66699 1 15 1h17c19.333 0 40.666 -1.16699 63.999 -3.5s46 -6.33301 68 -12
s40.5 -13.334 55.5 -23.001s23.833 -22.167 26.5 -37.5v-8c-2 -3.33301 -5 -5.66602 -9 -6.99902c-2.66699 0 -4.5 1 -5.5 3s-1.5 3.33301 -1.5 4c-2.66699 8 -7.5 15 -14.5 21s-15.833 11.333 -26.5 16l-36 -63.5c-18 -31.667 -38.5 -72 -61.5 -121
s-45.167 -105.833 -66.5 -170.5s-38.333 -135.667 -51 -213c-0.666992 -4.66699 -1.16699 -9.5 -1.5 -14.5s-0.5 -10.5 -0.5 -16.5c0 -18.667 1.83301 -39.167 5.5 -61.5s9.5 -42 17.5 -59s18 -27.5 30 -31.5c8 -0.666992 14.5 -3.33398 19.5 -8.00098s7.5 -9 7.5 -13
c0 -6.66699 -5.66699 -10 -17 -10c-34.667 0 -59.5 14.333 -74.5 43s-22.5 66 -22.5 112c0 40.667 4.83301 85.834 14.5 135.501s22.667 100.5 39 152.5s34.666 102 54.999 150s40.833 90.333 61.5 127l21 36.5c8.66699 15 16.334 27.5 23.001 37.5
c-7.33301 2 -15.333 3.66699 -24 5s-17.334 2.33301 -26.001 3l-24.5 -43.5l-40.5 -72.5l-47.5 -88c-16.333 -30.667 -31.166 -60.334 -44.499 -89.001c-14.667 -32 -27.667 -67.667 -39 -107s-20 -79 -26 -119s-9 -77.333 -9 -112c0 -36.667 3.83301 -67.834 11.5 -93.501
s19.834 -41.167 36.501 -46.5c8 -0.666992 14.5 -3.33398 19.5 -8.00098s7.5 -9 7.5 -13c0 -6.66699 -5.66699 -10 -17 -10z" />
    <glyph glyph-name="periodcentered" unicode="&#xb7;" horiz-adv-x="269" 
d="M154 320c-4.66699 0 -10.334 2 -17.001 6s-10 9.33301 -10 16c0 8.66699 3.66699 17.334 11 26.001s15.833 16.167 25.5 22.5s17.834 9.5 24.501 9.5c4 0 6 -2.33301 6 -7c0 -6.66699 -2.16699 -14.334 -6.5 -23.001s-8.83301 -20 -13.5 -34
c-2 -10.667 -8.66699 -16 -20 -16z" />
    <glyph glyph-name="cedilla" unicode="&#xb8;" horiz-adv-x="146" 
d="M58 -172c-10.667 0 -21.501 3.16699 -32.501 9.5s-16.5 13.833 -16.5 22.5c0 4.66699 2.5 7.5 7.5 8.5s8.16699 0.833008 9.5 -0.5s4.83301 -4.5 10.5 -9.5s13.5 -7.5 23.5 -7.5c12 0 23.333 2.5 34 7.5s16 13.5 16 25.5c0 6.66699 -3.83301 14 -11.5 22
s-15.167 16.667 -22.5 26s-11 19.333 -11 30c0 14 7.33301 25.667 22 35s28.334 14 41.001 14c4.66699 0 7 -3 7 -9c-8.66699 -1.33301 -17.667 -5 -27 -11s-14 -13.333 -14 -22c0 -12.667 4 -22.5 12 -29.5l23.5 -21c7.66699 -7 11.5 -16.833 11.5 -29.5
c0 -21.333 -7.66699 -36.833 -23 -46.5s-35.333 -14.5 -60 -14.5z" />
    <glyph glyph-name="uni00B9" unicode="&#xb9;" horiz-adv-x="190" 
d="M83 197c-16 0 -28.5 4.83398 -37.5 14.501s-15.167 21.5 -18.5 35.5s-5 26.667 -5 38c0 40 4.33301 82.167 13 126.5s20.334 85.166 35.001 122.499c-6 -2.66699 -12.667 -6 -20 -10s-12.333 -6 -15 -6c-12.667 0 -19 6 -19 18c0 4.66699 2 8.33398 6 11.001
c2.66699 1.33301 5 2.66602 7 3.99902s4.33301 2.33301 7 3c12 6.66699 23.667 13.5 35 20.5s21.333 15.5 30 25.5c2.66699 4 5.16699 8 7.5 12s4.5 8 6.5 12l9.5 15c3 4.66699 6.5 9.33398 10.5 14.001c2 4.66699 8 7 18 7c6 0 11.167 -1.16699 15.5 -3.5
s6.16602 -6.16602 5.49902 -11.499c-0.666992 -0.666992 -1 -1.66699 -1 -3l-2 -4l-12 -18l-13.5 -19c-4.33301 -6 -8.5 -12.333 -12.5 -19c-16 -28 -30.5 -58.667 -43.5 -92s-23.333 -67.333 -31 -102s-11.5 -68 -11.5 -100c0 -14.667 1.66699 -28.834 5 -42.501
s12.333 -22.834 27 -27.501c12 -2 17.667 -7 17 -15c-2 -4 -6.33301 -6 -13 -6z" />
    <glyph glyph-name="ordmasculine" unicode="&#xba;" horiz-adv-x="208" 
d="M85 342c-12.667 0 -22.5049 5.66602 -29.5049 16.999s-11.833 24.333 -14.5 39s-4 26.334 -4 35.001c0 7.33301 0.833008 18.833 2.5 34.5s4.33398 33 8.00098 52s8.33398 37.5 14.001 55.5s12.334 33.333 20.001 46s16.834 20 27.501 22c4 10.667 10.667 16 20 16
c10 0 18.833 -4.16699 26.5 -12.5s14 -18.5 19 -30.5s8.83301 -23.833 11.5 -35.5s4 -21.167 4 -28.5c0 -9.33301 -0.5 -19 -1.5 -29s-2.16699 -20.333 -3.5 -31h1c12.667 0 22.334 2 29.001 6s12.334 7.66699 17.001 11c5.33301 4.66699 9.66602 7 12.999 7
c5.33301 0 8 -3 8 -9c0 -7.33301 -4.66699 -14 -14 -20s-19.833 -10.667 -31.5 -14s-21.167 -5 -28.5 -5c-2.66699 -10 -6.66699 -22.167 -12 -36.5s-12 -28.333 -20 -42s-17.167 -25 -27.5 -34s-21.833 -13.5 -34.5 -13.5zM157.995 511.999
c2 13.333 2.99902 26.667 2.99902 40c0 9.33301 -1.66699 20.5 -5 33.5s-7.33301 24.333 -12 34s-8.66699 14.5 -12 14.5c-0.666992 0 -1.5 -2.16699 -2.5 -6.5s-1.5 -9.16602 -1.5 -14.499c0 -19.333 2.83301 -37.833 8.5 -55.5s12.834 -32.834 21.501 -45.501z
M86.9941 368c6 0 12.332 4.33203 18.999 12.999s13.167 19.334 19.5 32.001s11.833 25.167 16.5 37.5s8 21.833 10 28.5c-16.667 11.333 -29.667 27.166 -39 47.499s-14 41.833 -14 64.5v1v6c-11.333 -25.333 -19.666 -54.166 -24.999 -86.499s-8 -61.166 -8 -86.499
c0 -14.667 2 -27.834 6 -39.501s9 -17.5 15 -17.5z" />
    <glyph glyph-name="guillemotright" unicode="&#xbb;" horiz-adv-x="478" 
d="M247 30c-9.33301 0 -13.998 4.66113 -13.998 13.9941c0 6.66699 3.33301 13.334 10 20.001l41.5 35.5l54 47.5c18.333 16.667 33.833 32.334 46.5 47.001s19 26.334 19 35.001c0 4.66699 -4.5 13.5 -13.5 26.5s-20 28 -33 45l-39.5 50l-34 41.5
c-9.33301 11.333 -14.333 17.666 -15 18.999c-3.33301 6.66699 -5 11.334 -5 14.001c0 5.33301 2.66699 8 8 8s11.333 -3.33301 18 -10l17.5 -17.5l40 -42c15.667 -17 31.167 -35 46.5 -54s28.166 -37 38.499 -54s15.5 -31.167 15.5 -42.5
c0 -8.66699 -4.83301 -19.167 -14.5 -31.5s-21.834 -25.166 -36.501 -38.499s-29.667 -26.166 -45 -38.499l-41.5 -32.5c-12.333 -9.33301 -20.833 -16.333 -25.5 -21c-8.66699 -7.33301 -16.167 -12.666 -22.5 -15.999s-11.5 -5 -15.5 -5zM110.002 29.9941
c-9.33301 0 -13.998 4.66113 -13.998 13.9941c0 6.66699 3.33301 13.334 10 20.001l41.5 35.5l54 47.5c18.333 16.667 33.833 32.334 46.5 47.001s19 26.334 19 35.001c0 4.66699 -4.5 13.5 -13.5 26.5s-20 28 -33 45l-39.5 50l-34 41.5
c-9.33301 11.333 -14.333 17.666 -15 18.999c-3.33301 6.66699 -5 11.334 -5 14.001c0 5.33301 2.66699 8 8 8s11.333 -3.33301 18 -10l17.5 -17.5l40 -42c15.667 -17 31.167 -35 46.5 -54s28.166 -37 38.499 -54s15.5 -31.167 15.5 -42.5
c0 -8.66699 -4.83301 -19.167 -14.5 -31.5s-21.834 -25.166 -36.501 -38.499s-29.667 -26.166 -45 -38.499l-41.5 -32.5c-12.333 -9.33301 -20.833 -16.333 -25.5 -21c-8.66699 -7.33301 -16.167 -12.666 -22.5 -15.999s-11.5 -5 -15.5 -5z" />
    </font>
</defs>
</svg>
